<svg width="284" height="284" viewBox="0 0 284 284" fill="none" xmlns="http://www.w3.org/2000/svg">
<path d="M246.296 62.679C245.427 61.2284 244.518 59.8022 243.57 58.402C230.943 39.851 209.927 27.162 189.502 21.402C180.598 18.9259 171.429 17.5226 162.192 17.222C102.036 15.035 79.935 64.632 60.554 77.43C41.174 90.227 11.428 112.078 15.16 157.949C18 192.836 37.84 226.2 74.09 241.377C78.1852 243.096 82.3877 244.548 86.671 245.722C95.3457 248.071 104.256 249.441 113.236 249.806C140.642 251.028 162.897 244.416 184.662 227.785C189.723 223.917 194.756 219.555 201.322 219.078C206.099 218.731 210.62 220.441 205.633 225.059C199.771 230.477 206.536 241.139 221.418 233.732C246.279 221.361 256.503 194.665 261.32 167.52C267.233 134.196 264.37 92.766 246.296 62.679Z" fill="#4CAF4F"/>
<path opacity="0.7" d="M246.296 62.679C245.427 61.2284 244.518 59.8022 243.57 58.402C230.943 39.851 209.927 27.162 189.502 21.402C180.598 18.9259 171.429 17.5226 162.192 17.222C102.036 15.035 79.935 64.632 60.554 77.43C41.174 90.227 11.428 112.078 15.16 157.949C18 192.836 37.84 226.2 74.09 241.377C78.1852 243.096 82.3877 244.548 86.671 245.722C95.3457 248.071 104.256 249.441 113.236 249.806C140.642 251.028 162.897 244.416 184.662 227.785C189.723 223.917 194.756 219.555 201.322 219.078C206.099 218.731 210.62 220.441 205.633 225.059C199.771 230.477 206.536 241.139 221.418 233.732C246.279 221.361 256.503 194.665 261.32 167.52C267.233 134.196 264.37 92.766 246.296 62.679Z" fill="white"/>
<path d="M85.166 218.157C83.666 218.629 80.173 218.157 80.173 218.157C80.173 218.157 81.179 215.948 81.258 215.817C82.201 214.295 84.922 211.909 86.87 212.409C87.1905 212.499 87.4885 212.656 87.745 212.868C88.0014 213.08 88.2106 213.344 88.359 213.642C88.507 213.94 88.5905 214.266 88.6042 214.599C88.6178 214.932 88.5612 215.264 88.438 215.573C87.955 216.902 86.444 217.76 85.166 218.157ZM52.63 217.18C52.597 217.18 52.25 214.789 52.245 214.63C52.194 212.841 53.148 209.353 55.039 208.683C55.5167 208.529 56.031 208.531 56.5078 208.687C56.9847 208.844 57.3996 209.148 57.693 209.555C57.888 209.826 58.023 210.135 58.089 210.461C58.425 211.836 57.635 213.386 56.794 214.437C55.8 215.641 52.63 217.18 52.63 217.18Z" fill="#263238"/>
<path d="M53.239 242.962C54.409 243.11 56.726 242.451 57.374 242.258C57.482 243.257 57.607 244.24 57.783 245.206C57.863 245.62 57.919 246.052 58.021 246.444C58.123 246.836 58.214 247.239 58.305 247.631C58.527 248.432 58.725 249.176 58.953 249.903C59.061 250.284 59.174 250.63 59.288 250.994C59.0344 250.471 58.7731 249.952 58.504 249.437C57.641 248.119 55.204 246.08 53.506 246.546C53.2264 246.631 52.9677 246.774 52.7466 246.965C52.5254 247.156 52.3467 247.391 52.222 247.655C52.0978 247.92 52.0306 248.208 52.0248 248.5C52.0189 248.792 52.0745 249.083 52.188 249.352C52.637 250.488 53.988 251.238 55.118 251.562C56.363 251.919 59.095 251.527 59.435 251.476C59.719 252.362 60.004 253.226 60.276 254.027C60.458 254.555 60.634 255.049 60.804 255.532H61.94C61.713 254.964 61.48 254.333 61.236 253.674C60.992 253.016 60.702 252.192 60.43 251.402C60.736 251.272 63.11 250.266 64.065 249.341C64.82 249.81 65.604 250.233 66.411 250.607C66.149 251.505 65.911 252.379 65.701 253.197C65.491 254.015 65.297 254.793 65.133 255.532H66.269C66.411 254.867 66.564 254.186 66.734 253.447C66.904 252.709 67.109 251.914 67.302 251.107C67.637 251.17 70.358 251.675 71.613 251.368C72.749 251.09 74.135 250.414 74.623 249.272C74.7451 249.009 74.8108 248.723 74.8159 248.433C74.821 248.142 74.7653 247.854 74.6525 247.587C74.5397 247.319 74.3722 247.079 74.1608 246.88C73.9494 246.681 73.6988 246.528 73.425 246.432C71.721 245.904 69.228 247.841 68.313 249.125C67.9983 249.677 67.6916 250.234 67.393 250.795C67.518 250.306 67.649 249.823 67.791 249.318C67.99 248.591 68.222 247.824 68.45 247.086L68.842 245.95C68.967 245.552 69.137 245.194 69.285 244.814C69.512 244.246 69.773 243.678 70.035 243.11C70.762 243.354 72.915 244.047 74.05 243.95C75.186 243.854 76.686 243.382 77.345 242.337C77.5093 242.094 77.6207 241.82 77.6719 241.531C77.7232 241.242 77.7131 240.946 77.6424 240.662C77.5716 240.377 77.4418 240.111 77.2614 239.88C77.0809 239.649 76.8539 239.458 76.595 239.321C75.01 238.543 72.233 240.082 71.136 241.213C71.096 241.247 70.892 241.508 70.648 241.826C70.921 241.258 71.216 240.735 71.483 240.196C72.313 238.662 73.187 237.129 74.096 235.584L74.664 234.618C75.277 234.828 77.606 235.595 78.793 235.493C79.98 235.391 81.428 234.925 82.087 233.88C82.2508 233.637 82.3618 233.363 82.413 233.075C82.4641 232.787 82.4543 232.491 82.384 232.207C82.3136 231.923 82.184 231.657 82.0038 231.426C81.8235 231.196 81.5966 231.006 81.338 230.869C79.753 230.091 76.975 231.625 75.879 232.755C75.839 232.795 75.589 233.113 75.311 233.465C75.783 232.619 76.243 231.761 76.674 230.915C77.4196 229.445 78.0667 227.927 78.611 226.371C78.827 226.45 81.536 227.41 82.854 227.291C84.03 227.189 85.49 226.723 86.154 225.678C86.318 225.435 86.4291 225.161 86.4799 224.872C86.5308 224.584 86.5202 224.288 86.449 224.004C86.3777 223.72 86.2474 223.454 86.0665 223.224C85.8856 222.993 85.6581 222.804 85.399 222.667C83.819 221.889 81.037 223.423 79.94 224.553C79.86 224.633 78.98 225.774 78.68 226.195V226.144C79.18 224.606 79.54 223.026 79.753 221.423C79.956 219.997 80.073 218.559 80.105 217.118C80.15 215.778 80.105 214.556 80.065 213.471C80.0373 212.929 80.0013 212.388 79.957 211.847H79.986C79.986 211.847 80.724 209.842 80.753 209.711C81.099 208.178 80.866 205.008 79.35 204.105C78.9642 203.891 78.5203 203.804 78.0823 203.859C77.6444 203.914 77.2352 204.106 76.914 204.409C76.7007 204.609 76.532 204.852 76.419 205.122C75.896 206.258 76.311 207.723 76.868 208.763C77.424 209.802 79.384 211.376 79.872 211.756C79.906 212.279 79.935 212.835 79.952 213.46C79.952 214.545 79.986 215.766 79.912 217.101C79.912 217.453 79.861 217.834 79.832 218.203C79.747 217.572 79.622 216.703 79.6 216.624C79.202 215.102 77.532 212.392 75.777 212.296C75.4819 212.287 75.1883 212.34 74.9154 212.453C74.6426 212.565 74.3968 212.735 74.1943 212.949C73.9919 213.164 73.8374 213.42 73.7412 213.699C73.6449 213.978 73.6091 214.274 73.636 214.568C73.692 215.812 74.743 216.931 75.714 217.595C76.686 218.26 79.236 218.771 79.787 218.867C79.7142 219.714 79.6081 220.557 79.469 221.395C79.2307 222.975 78.8505 224.53 78.333 226.041H78.236C78.236 225.473 78.186 224.207 78.174 224.104C77.941 222.542 76.584 219.668 74.845 219.379C74.4079 219.318 73.9628 219.398 73.5739 219.606C73.1851 219.815 72.8727 220.142 72.682 220.54C72.555 220.804 72.4851 221.091 72.477 221.384C72.392 222.628 73.317 223.849 74.181 224.621C75.209 225.502 78.077 226.325 78.185 226.365C77.6231 227.851 76.965 229.299 76.215 230.699C75.6519 231.746 75.0648 232.78 74.454 233.8C74.454 233.386 74.402 231.75 74.385 231.63C74.158 230.074 72.801 227.2 71.062 226.91C70.7756 226.876 70.4853 226.901 70.2094 226.985C69.9335 227.069 69.6779 227.209 69.459 227.397C69.2393 227.584 69.0609 227.814 68.9351 228.074C68.8092 228.333 68.7387 228.616 68.728 228.904C68.648 230.142 69.568 231.369 70.46 232.136C71.46 232.999 74.21 233.806 74.436 233.874C74.158 234.34 73.868 234.811 73.596 235.277C72.676 236.799 71.744 238.316 70.876 239.849C70.574 240.378 70.307 240.912 70.012 241.445C70.012 240.821 69.966 239.685 69.949 239.588C69.722 238.032 68.365 235.158 66.626 234.862C66.3358 234.823 66.0406 234.845 65.7594 234.926C65.4781 235.008 65.2171 235.148 64.993 235.336C64.7691 235.525 64.5876 235.759 64.4601 236.023C64.3326 236.287 64.262 236.574 64.253 236.867C64.173 238.111 65.093 239.332 65.956 240.105C66.82 240.877 69.143 241.599 69.79 241.809C69.33 242.701 68.893 243.592 68.506 244.49C68.342 244.882 68.154 245.274 68.024 245.66C67.894 246.046 67.745 246.427 67.604 246.796C67.348 247.586 67.104 248.318 66.882 249.068C66.768 249.443 66.672 249.795 66.564 250.164C66.649 249.528 66.768 248.523 66.768 248.432C66.768 246.853 65.871 243.808 64.195 243.257C63.9146 243.174 63.6201 243.15 63.33 243.187C62.893 243.245 62.4856 243.44 62.1657 243.743C61.8459 244.046 61.6301 244.443 61.549 244.876C61.516 245.027 61.4969 245.181 61.492 245.336C60.7329 246.495 60.2814 247.828 60.18 249.21C60.18 249.307 60.27 250.505 60.333 251.113C60.166 250.63 60.005 250.146 59.85 249.659C59.612 248.943 59.39 248.176 59.169 247.432L58.862 246.256C58.748 245.859 58.686 245.461 58.601 245.064C58.4811 244.459 58.3787 243.851 58.294 243.24C59.038 243.047 61.219 242.434 62.111 241.729C63.003 241.025 63.997 239.81 63.968 238.566C63.9728 238.127 63.8386 237.698 63.5846 237.34C63.3306 236.981 62.9699 236.713 62.554 236.572C62.2783 236.478 61.986 236.444 61.696 236.47C59.946 236.686 58.476 239.503 58.18 241.054C58.18 241.105 58.146 241.434 58.118 241.832C58.0405 241.227 57.9722 240.621 57.913 240.014C57.76 238.276 57.658 236.504 57.55 234.726C57.55 234.357 57.499 233.982 57.476 233.59C58.101 233.431 60.469 232.789 61.401 232.045C62.332 231.301 63.292 230.125 63.264 228.881C63.2656 228.59 63.2066 228.302 63.0906 228.035C62.9747 227.769 62.8043 227.529 62.5905 227.332C62.3767 227.134 62.1241 226.984 61.8489 226.89C61.5736 226.796 61.2818 226.76 60.992 226.785C59.242 227.007 57.772 229.824 57.476 231.369C57.476 231.426 57.436 231.824 57.402 232.272C57.3315 231.31 57.2405 230.35 57.129 229.392C56.9364 227.759 56.6368 226.141 56.232 224.547C56.453 224.491 59.242 223.792 60.276 222.968C61.196 222.236 62.168 221.049 62.139 219.805C62.1408 219.514 62.0818 219.226 61.9659 218.959C61.85 218.692 61.6797 218.453 61.4659 218.255C61.252 218.058 60.9994 217.908 60.7241 217.813C60.4487 217.719 60.1568 217.684 59.867 217.709C58.117 217.93 56.647 220.748 56.351 222.292C56.351 222.406 56.226 223.843 56.204 224.36C56.2067 224.341 56.2067 224.322 56.204 224.303C55.774 222.74 55.204 221.219 54.5 219.759C53.8784 218.457 53.1823 217.192 52.415 215.971C51.4794 214.48 50.467 213.04 49.382 211.654H49.416C49.416 211.654 48.922 209.581 48.848 209.456C48.28 207.985 46.348 205.48 44.588 205.554C44.2957 205.576 44.0114 205.66 43.7537 205.8C43.4959 205.939 43.2705 206.132 43.092 206.364C42.9136 206.597 42.7862 206.864 42.7182 207.15C42.6501 207.435 42.6429 207.731 42.697 208.019C42.884 209.246 44.048 210.245 45.082 210.808C46.116 211.37 48.626 211.597 49.24 211.642C49.558 212.063 49.888 212.512 50.24 213.017C50.853 213.909 51.54 214.92 52.216 216.067C52.392 216.374 52.574 216.715 52.756 217.038C52.336 216.556 51.756 215.902 51.688 215.846C50.518 214.795 47.632 213.454 46.116 214.346C45.8661 214.499 45.6511 214.703 45.4849 214.945C45.3186 215.186 45.2049 215.46 45.151 215.748C45.0974 216.036 45.1051 216.332 45.1735 216.617C45.2419 216.902 45.3695 217.17 45.548 217.402C46.281 218.407 47.775 218.76 48.956 218.782C50.137 218.805 52.54 217.817 53.056 217.601C53.449 218.322 53.829 219.072 54.193 219.873C54.8577 221.337 55.3898 222.858 55.783 224.417L55.693 224.457C55.357 223.968 54.636 222.951 54.556 222.878C53.506 221.702 50.791 220.038 49.178 220.77C48.7811 220.962 48.455 221.275 48.2462 221.664C48.0374 222.052 47.9565 222.497 48.015 222.934C48.055 223.225 48.155 223.503 48.308 223.752C48.922 224.831 50.37 225.348 51.535 225.496C52.881 225.666 55.727 224.775 55.835 224.741C56.1955 226.299 56.4534 227.88 56.607 229.472C56.721 230.648 56.789 231.835 56.846 233.033C56.624 232.681 55.676 231.329 55.596 231.261C54.546 230.085 51.83 228.421 50.216 229.154C49.9525 229.282 49.7188 229.463 49.5299 229.687C49.341 229.91 49.2011 230.171 49.1193 230.452C49.0375 230.733 49.0156 231.028 49.055 231.318C49.0943 231.608 49.1942 231.887 49.348 232.136C49.961 233.215 51.41 233.732 52.574 233.88C53.886 234.05 56.624 233.204 56.851 233.13C56.851 233.698 56.908 234.215 56.925 234.76C56.999 236.538 57.061 238.321 57.175 240.077C57.215 240.69 57.277 241.286 57.34 241.888C56.987 241.372 56.329 240.446 56.26 240.372C55.21 239.196 52.495 237.532 50.882 238.27C50.6178 238.396 50.3831 238.576 50.1934 238.799C50.0037 239.022 49.8632 239.283 49.781 239.564C49.6989 239.845 49.677 240.14 49.7168 240.43C49.7566 240.72 49.8572 240.999 50.012 241.247C50.626 242.297 52.074 242.814 53.239 242.962ZM170.207 74.283C168.692 73.488 167.276 72.049 165.958 69.966C164.589 67.7513 163.896 65.1849 163.965 62.582C163.965 59.841 164.695 57.782 166.157 56.408C167.619 55.033 169.766 53.992 172.598 53.284L182.953 50.779C187.383 49.643 189.597 47.519 189.593 44.406C189.593 42.725 188.775 41.263 187.139 40.021C185.503 38.779 182.692 38.161 178.704 38.164C175.247 38.1413 171.805 38.61 168.48 39.556C165.775 40.2795 163.183 41.3746 160.778 42.81C159.261 41.6493 157.957 40.2327 156.927 38.624C155.827 36.852 155.272 34.7958 155.331 32.711C155.303 30.5375 156.01 28.4182 157.336 26.696C158.806 24.8591 160.696 23.402 162.846 22.447C165.508 21.2456 168.323 20.4178 171.212 19.987C174.748 19.4349 178.323 19.1694 181.902 19.193C192.342 19.178 200.247 21.489 205.616 26.128C210.985 30.767 213.663 36.854 213.648 44.389C213.648 58.555 203.643 67.629 183.634 71.613L170.207 74.283ZM165.822 91.681C165.822 88.053 166.958 85.066 169.23 82.718C171.502 80.37 174.624 79.196 178.596 79.196C182.576 79.196 185.696 80.37 187.957 82.718C190.218 85.066 191.354 88.053 191.365 91.681C191.365 95.316 190.229 98.304 187.957 100.644C185.685 102.984 182.565 104.158 178.596 104.166C174.609 104.166 171.487 102.992 169.23 100.644C166.973 98.296 165.837 95.308 165.822 91.681Z" fill="#263238"/>
<path d="M178.574 104.45C174.529 104.45 171.309 103.234 169.003 100.843C166.697 98.451 165.538 95.373 165.538 91.681C165.538 87.989 166.702 84.911 169.003 82.519C171.303 80.128 174.529 78.912 178.574 78.912C182.618 78.912 185.838 80.128 188.139 82.519C190.439 84.91 191.603 87.995 191.603 91.681C191.603 95.367 190.439 98.457 188.139 100.843C185.838 103.228 182.618 104.45 178.574 104.45ZM178.574 79.457C174.688 79.457 171.604 80.594 169.412 82.866C167.219 85.138 166.106 88.096 166.106 91.63C166.106 95.163 167.242 98.116 169.412 100.4C171.581 102.683 174.688 103.808 178.574 103.808C182.459 103.808 185.537 102.672 187.73 100.4C189.922 98.128 191.035 95.168 191.035 91.63C191.035 88.091 189.928 85.2 187.73 82.928C185.532 80.656 182.459 79.48 178.574 79.48V79.457ZM170.207 74.544C170.16 74.5437 170.113 74.532 170.071 74.51C168.531 73.698 167.066 72.238 165.714 70.097C164.326 67.8385 163.62 65.2272 163.681 62.577C163.681 59.765 164.447 57.617 165.953 56.192C167.458 54.767 169.656 53.722 172.524 53.006L182.896 50.501C187.213 49.365 189.314 47.383 189.314 44.406C189.314 42.827 188.531 41.424 186.974 40.249C185.418 39.073 182.612 38.448 178.71 38.448C175.28 38.428 171.865 38.892 168.565 39.828C165.887 40.5471 163.32 41.6306 160.937 43.048C160.888 43.0799 160.831 43.0969 160.773 43.0969C160.714 43.0969 160.657 43.0799 160.608 43.048C159.068 41.8658 157.744 40.4267 156.694 38.794C155.567 36.9718 155 34.8586 155.064 32.717C155.028 30.4739 155.75 28.2842 157.114 26.503C158.607 24.6261 160.527 23.1342 162.715 22.152C165.401 20.9408 168.241 20.1056 171.155 19.67C174.706 19.1158 178.297 18.8479 181.891 18.869C192.359 18.869 200.396 21.238 205.786 25.912C211.177 30.587 213.914 36.812 213.914 44.389C213.914 58.64 203.742 67.893 183.674 71.892L170.258 74.544H170.207ZM178.727 37.857C182.754 37.857 185.651 38.499 187.332 39.771C189.013 41.044 189.899 42.611 189.899 44.383C189.899 47.61 187.599 49.848 183.049 51.029L172.672 53.579C169.9 54.272 167.77 55.283 166.356 56.629C164.942 57.976 164.254 59.947 164.254 62.599C164.193 65.1433 164.869 67.6509 166.202 69.819C167.469 71.806 168.832 73.226 170.258 73.988L183.572 71.352C203.333 67.416 213.352 58.351 213.352 44.406C213.352 37.022 210.683 30.928 205.4 26.356C200.118 21.783 192.206 19.454 181.879 19.454C178.315 19.4309 174.756 19.6968 171.235 20.249C168.372 20.6754 165.582 21.4934 162.942 22.68C160.835 23.6194 158.982 25.0491 157.54 26.85C156.261 28.5346 155.588 30.6021 155.632 32.717C155.575 34.7454 156.114 36.7461 157.183 38.471C158.162 39.9898 159.389 41.3337 160.812 42.447C163.195 41.0547 165.753 39.9851 168.418 39.266C171.764 38.3208 175.227 37.8542 178.704 37.88L178.727 37.857ZM123.307 164.675L124.432 255.634H168.923L165.265 165.799L123.307 164.675Z" fill="#263238"/>
<path d="M168.923 255.918H124.432C124.395 255.918 124.358 255.911 124.323 255.896C124.289 255.882 124.258 255.861 124.231 255.835C124.205 255.808 124.184 255.777 124.17 255.743C124.155 255.708 124.148 255.671 124.148 255.634L123.012 164.675C123.014 164.599 123.045 164.526 123.097 164.47C123.125 164.443 123.158 164.422 123.194 164.409C123.23 164.395 123.268 164.389 123.307 164.391L165.265 165.527C165.337 165.529 165.406 165.558 165.458 165.608C165.509 165.659 165.54 165.727 165.544 165.799L169.207 255.6C169.21 255.638 169.204 255.676 169.19 255.711C169.176 255.746 169.155 255.778 169.128 255.804C169.105 255.837 169.074 255.865 169.038 255.884C169.003 255.904 168.963 255.916 168.923 255.918ZM124.71 255.35H168.628L164.993 166.078L123.591 164.942L124.71 255.35Z" fill="#263238"/>
<path d="M123.307 132.179L124.432 223.139H168.923L165.265 133.304L123.307 132.179Z" fill="white"/>
<path d="M168.923 223.423H124.432C124.395 223.423 124.358 223.416 124.323 223.401C124.289 223.387 124.258 223.366 124.231 223.34C124.205 223.313 124.184 223.282 124.17 223.248C124.155 223.213 124.148 223.176 124.148 223.139L123.012 132.185C123.012 132.108 123.043 132.035 123.097 131.98C123.123 131.951 123.156 131.928 123.192 131.914C123.229 131.899 123.268 131.893 123.307 131.895L165.265 133.031C165.337 133.031 165.406 133.058 165.458 133.108C165.51 133.158 165.541 133.226 165.544 133.298L169.202 223.133C169.204 223.172 169.198 223.21 169.184 223.246C169.171 223.283 169.149 223.316 169.122 223.343C169.068 223.394 168.997 223.423 168.923 223.423ZM124.71 222.855H168.628L164.993 133.582L123.591 132.446L124.71 222.855Z" fill="#263238"/>
<path d="M138.785 141.989L143.42 149.713L135.315 208.013L147.538 220.242L155.518 204.929L146.379 150.1L151.014 143.795L145.868 135.553L138.785 141.989Z" fill="#263238"/>
<path d="M147.538 220.526C147.501 220.526 147.464 220.519 147.43 220.504C147.395 220.49 147.364 220.468 147.339 220.441L135.11 208.217C135.079 208.185 135.056 208.147 135.042 208.104C135.028 208.062 135.025 208.017 135.031 207.973L143.136 149.77L138.558 142.136C138.522 142.08 138.507 142.013 138.517 141.947C138.526 141.882 138.559 141.822 138.609 141.778L145.686 135.343C145.718 135.316 145.755 135.297 145.795 135.285C145.836 135.273 145.878 135.27 145.919 135.275C145.96 135.28 145.999 135.295 146.034 135.318C146.068 135.34 146.097 135.371 146.118 135.406L151.264 143.642C151.296 143.689 151.314 143.744 151.314 143.801C151.314 143.858 151.296 143.913 151.264 143.96L146.72 150.168L155.836 204.878C155.847 204.94 155.837 205.003 155.808 205.059L147.856 220.395C147.836 220.435 147.806 220.469 147.769 220.495C147.733 220.521 147.69 220.537 147.646 220.543L147.538 220.526ZM135.61 207.916L147.458 219.765L155.217 204.878L146.095 150.145C146.084 150.069 146.102 149.992 146.146 149.929L150.69 143.778L145.823 135.996L139.16 142.045L143.704 149.566C143.736 149.623 143.75 149.688 143.744 149.753L135.61 207.916Z" fill="#263238"/>
<path d="M143.42 149.713L143.244 150.991L148.413 147.334L151.014 143.795L148.532 139.819L140.779 145.306L143.42 149.713Z" fill="#4CAF4F"/>
<path d="M143.244 151.275C143.191 151.274 143.14 151.259 143.096 151.23C143.049 151.202 143.011 151.16 142.987 151.111C142.963 151.062 142.953 151.007 142.96 150.952L143.125 149.77L140.535 145.453C140.496 145.392 140.482 145.318 140.497 145.247C140.512 145.176 140.554 145.113 140.614 145.073L148.367 139.592C148.431 139.546 148.511 139.528 148.589 139.541C148.627 139.549 148.662 139.565 148.693 139.587C148.725 139.61 148.751 139.638 148.771 139.671L151.253 143.647C151.284 143.694 151.3 143.75 151.3 143.806C151.3 143.862 151.284 143.918 151.253 143.965L148.657 147.504C148.637 147.528 148.614 147.549 148.589 147.566L143.42 151.224C143.368 151.259 143.307 151.277 143.244 151.275ZM141.154 145.408L143.664 149.588C143.697 149.645 143.711 149.711 143.704 149.776L143.613 150.401L148.214 147.152L150.673 143.801L148.452 140.251L141.154 145.408Z" fill="#263238"/>
<path d="M140.739 169.008L148.606 163.442L147.498 156.796L141.881 160.767L140.739 169.008Z" fill="#4CAF4F"/>
<path d="M140.739 169.264C140.686 169.265 140.633 169.251 140.587 169.222C140.542 169.194 140.506 169.153 140.483 169.105C140.459 169.056 140.449 169.001 140.455 168.946L141.591 160.704C141.597 160.665 141.61 160.628 141.631 160.595C141.651 160.562 141.678 160.533 141.71 160.511L147.322 156.535C147.361 156.507 147.407 156.49 147.455 156.485C147.503 156.48 147.551 156.488 147.595 156.507C147.639 156.526 147.678 156.555 147.708 156.593C147.737 156.631 147.757 156.676 147.765 156.723L148.873 163.368C148.881 163.42 148.875 163.474 148.855 163.523C148.834 163.572 148.801 163.614 148.759 163.646L140.904 169.264C140.85 169.28 140.793 169.28 140.739 169.264ZM142.148 160.909L141.108 168.372L148.293 163.26L147.294 157.239L142.148 160.909Z" fill="#263238"/>
<path d="M147.765 219.805L153.894 208.041L143.028 215.732L147.379 220.083L147.765 219.805Z" fill="#4CAF4F"/>
<path d="M147.379 220.384C147.302 220.384 147.228 220.353 147.174 220.299L142.829 215.948C142.799 215.919 142.775 215.883 142.761 215.844C142.74 215.786 142.738 215.722 142.756 215.663C142.775 215.603 142.812 215.552 142.863 215.516L153.729 207.831C153.779 207.792 153.841 207.771 153.905 207.771C153.969 207.771 154.031 207.792 154.081 207.831C154.129 207.872 154.161 207.928 154.173 207.99C154.184 208.052 154.174 208.117 154.144 208.172L148.021 219.935C147.998 219.975 147.967 220.011 147.93 220.038L147.544 220.31C147.5 220.354 147.441 220.38 147.379 220.384ZM143.465 215.778L147.407 219.719L147.544 219.623L153.099 208.967L143.465 215.778Z" fill="#263238"/>
<path d="M149.918 171.326L139.376 178.784L138.234 187.02L151.026 177.971L149.918 171.326Z" fill="#4CAF4F"/>
<path d="M138.234 187.304C138.182 187.305 138.131 187.291 138.086 187.264C138.038 187.235 138 187.193 137.976 187.142C137.951 187.092 137.943 187.035 137.95 186.98L139.086 178.744C139.097 178.667 139.138 178.598 139.2 178.551L149.742 171.099C149.781 171.07 149.827 171.051 149.875 171.045C149.923 171.039 149.972 171.045 150.017 171.063C150.063 171.081 150.102 171.111 150.133 171.149C150.163 171.187 150.183 171.232 150.191 171.28L151.292 177.926C151.304 177.978 151.299 178.033 151.279 178.083C151.259 178.132 151.224 178.175 151.179 178.204L138.388 187.253C138.342 187.284 138.289 187.301 138.234 187.304ZM139.643 178.92L138.592 186.412L150.707 177.841L149.702 171.82L139.643 178.92Z" fill="#263238"/>
<path d="M152.866 189.008L136.331 200.703L135.315 208.013L135.803 208.501L153.973 195.653L152.866 189.008Z" fill="#4CAF4F"/>
<path d="M135.803 208.785C135.765 208.787 135.728 208.78 135.693 208.767C135.658 208.753 135.626 208.732 135.599 208.706L135.11 208.217C135.079 208.185 135.056 208.147 135.042 208.104C135.028 208.062 135.025 208.017 135.031 207.973L136.047 200.663C136.061 200.586 136.104 200.517 136.167 200.47L152.701 188.775C152.74 188.747 152.786 188.73 152.834 188.725C152.882 188.72 152.93 188.727 152.974 188.746C153.018 188.765 153.057 188.795 153.087 188.832C153.116 188.87 153.136 188.915 153.144 188.962L154.252 195.608C154.259 195.66 154.252 195.713 154.232 195.762C154.212 195.811 154.18 195.854 154.138 195.886L135.962 208.734C135.915 208.766 135.86 208.784 135.803 208.785ZM135.616 207.916L135.832 208.132L153.661 195.523L152.661 189.502L136.593 200.862L135.616 207.916Z" fill="#263238"/>
<path d="M145.351 138.257L134.025 150.486L130.163 134.656L131.373 129.805L145.351 138.257Z" fill="white"/>
<path d="M134.048 150.77H133.974C133.925 150.757 133.88 150.732 133.844 150.696C133.808 150.66 133.782 150.615 133.77 150.565L129.913 134.735C129.902 134.69 129.902 134.644 129.913 134.599L131.123 129.748C131.134 129.706 131.155 129.666 131.184 129.633C131.212 129.599 131.248 129.573 131.288 129.555C131.328 129.536 131.371 129.526 131.415 129.526C131.46 129.526 131.503 129.536 131.543 129.555L145.499 138.024C145.536 138.046 145.567 138.075 145.59 138.111C145.614 138.146 145.629 138.186 145.635 138.228C145.641 138.27 145.637 138.313 145.624 138.353C145.611 138.393 145.59 138.43 145.561 138.461L134.235 150.69C134.184 150.738 134.118 150.766 134.048 150.77ZM130.481 134.656L134.201 149.907L144.931 138.319L131.583 130.248L130.481 134.656Z" fill="#263238"/>
<path d="M145.351 138.257L153.973 149.583L158.091 134.014L156.677 130.407L145.351 138.257Z" fill="white"/>
<path d="M153.973 149.867C153.93 149.866 153.887 149.856 153.848 149.838C153.809 149.819 153.774 149.792 153.746 149.759L145.124 138.399C145.1 138.369 145.083 138.334 145.075 138.297C145.066 138.259 145.065 138.221 145.073 138.183C145.078 138.145 145.092 138.109 145.113 138.077C145.133 138.044 145.16 138.017 145.192 137.996L156.512 130.146C156.548 130.122 156.589 130.105 156.633 130.099C156.676 130.092 156.72 130.094 156.762 130.106C156.802 130.12 156.839 130.143 156.871 130.172C156.902 130.201 156.927 130.237 156.944 130.276L158.358 133.878C158.375 133.935 158.375 133.997 158.358 134.054L154.24 149.628C154.227 149.68 154.199 149.727 154.16 149.763C154.121 149.8 154.072 149.824 154.019 149.833L153.973 149.867ZM145.76 138.325L153.848 148.952L157.796 134.048L156.546 130.867L145.76 138.325Z" fill="#263238"/>
<path d="M64.525 129.657C64.525 129.657 60.662 121.796 58.731 119.223C56.8 116.65 54.863 115.1 52.676 114.713C50.489 114.327 48.939 114.458 47.263 113.81C45.588 113.163 42.237 112.265 41.339 111.106C40.442 109.948 38.76 110.72 39.533 112.651C40.305 114.583 43.015 115.872 43.015 115.872L45.2 116.9C45.2 116.9 38.117 117.934 37.6 118.32C37.084 118.706 30.898 119.223 30.898 119.223C30.898 119.223 33.608 123.989 37.47 126.181C41.332 128.374 53.448 126.567 53.448 126.567L57.055 134.167L64.525 129.657Z" fill="white"/>
<path d="M57.056 134.451H56.97C56.9326 134.439 56.8982 134.419 56.8689 134.392C56.8397 134.366 56.8162 134.334 56.8 134.298L53.278 126.914C51.574 127.152 41.004 128.544 37.335 126.465C33.444 124.222 30.768 119.558 30.672 119.36C30.6496 119.318 30.6379 119.271 30.6379 119.224C30.6379 119.176 30.6496 119.129 30.672 119.087C30.6938 119.045 30.7262 119.01 30.766 118.984C30.8057 118.958 30.8515 118.942 30.899 118.939C33.847 118.695 37.107 118.309 37.459 118.093C37.909 117.752 42.004 117.093 44.276 116.758L42.936 116.128C42.822 116.076 40.096 114.77 39.317 112.759C38.823 111.521 39.249 110.737 39.766 110.442C40.0791 110.283 40.4398 110.245 40.7792 110.335C41.1186 110.425 41.413 110.637 41.606 110.93C42.254 111.765 44.446 112.521 46.071 113.072C46.571 113.242 47.036 113.401 47.411 113.543C48.401 113.891 49.436 114.102 50.484 114.168C51.177 114.236 51.898 114.31 52.722 114.458C54.902 114.838 56.879 116.309 58.97 119.076C60.895 121.643 64.65 129.231 64.792 129.555C64.8233 129.619 64.8296 129.692 64.8096 129.76C64.7896 129.829 64.7448 129.887 64.684 129.924L57.214 134.434C57.1636 134.453 57.1093 134.459 57.056 134.451ZM53.449 126.283C53.502 126.283 53.555 126.297 53.6 126.325C53.6449 126.354 53.6809 126.394 53.704 126.442L57.174 133.758L64.184 129.549C63.525 128.226 60.208 121.671 58.504 119.394C56.516 116.747 54.653 115.349 52.625 114.992C51.819 114.85 51.109 114.781 50.427 114.713C49.3085 114.654 48.2036 114.44 47.144 114.077C46.774 113.935 46.32 113.776 45.826 113.611C44.054 113.004 41.85 112.248 41.095 111.283C40.9852 111.099 40.8119 110.962 40.6078 110.897C40.4038 110.832 40.183 110.844 39.987 110.93C39.663 111.118 39.419 111.646 39.783 112.544C40.504 114.355 43.089 115.605 43.117 115.616L45.304 116.644C45.3592 116.671 45.4046 116.715 45.4339 116.769C45.4633 116.823 45.4752 116.885 45.468 116.946C45.4574 117.006 45.4281 117.062 45.3843 117.104C45.3406 117.147 45.2845 117.175 45.224 117.184C41.879 117.673 38.124 118.32 37.749 118.547C37.261 118.916 33.205 119.308 31.365 119.467C32.098 120.603 34.478 124.165 37.613 125.931C41.35 128.05 53.284 126.3 53.403 126.283H53.449Z" fill="#263238"/>
<path d="M28.462 117.951C28.462 117.951 26.474 113.719 26.639 112.805C26.804 111.89 28.548 112.475 29.127 113.719C29.707 114.963 31.7 117.951 31.7 117.951H28.462Z" fill="white"/>
<path d="M31.7 118.235H28.462C28.4084 118.234 28.3562 118.218 28.3112 118.189C28.2662 118.159 28.2301 118.118 28.207 118.07C27.867 117.349 26.185 113.708 26.361 112.754C26.3876 112.577 26.4734 112.414 26.6043 112.293C26.7353 112.171 26.9037 112.097 27.082 112.083C27.5703 112.093 28.046 112.24 28.454 112.509C28.8621 112.777 29.1859 113.155 29.388 113.6C29.956 114.816 31.916 117.769 31.938 117.798C31.9653 117.841 31.9806 117.891 31.9823 117.942C31.9841 117.993 31.9723 118.044 31.9481 118.089C31.9239 118.134 31.8882 118.172 31.8446 118.198C31.801 118.225 31.7511 118.24 31.7 118.241V118.235ZM28.644 117.667H31.172C30.3413 116.431 29.5737 115.153 28.872 113.839C28.7216 113.505 28.4838 113.218 28.1837 113.008C27.8836 112.798 27.5323 112.673 27.167 112.646C26.986 112.646 26.946 112.759 26.929 112.856C26.815 113.435 27.895 116.042 28.644 117.667Z" fill="#263238"/>
<path d="M24.935 115.934C24.935 115.934 28.025 122.506 30.087 124.307C32.149 126.107 36.273 126.244 36.273 126.244C36.273 126.244 31.376 121.086 30.348 119.155C29.32 117.224 25.56 112.583 24.935 115.934Z" fill="white"/>
<path d="M36.273 126.528C36.103 126.528 32.023 126.374 29.911 124.523C27.798 122.671 24.799 116.326 24.691 116.054C24.6716 115.999 24.6716 115.938 24.691 115.883C24.85 115.037 25.219 114.566 25.781 114.48C27.383 114.236 29.865 117.587 30.632 119.024C31.632 120.899 36.466 125.994 36.511 126.045C36.5388 126.076 36.5597 126.112 36.5723 126.151C36.5849 126.19 36.5889 126.232 36.584 126.273C36.5792 126.314 36.5656 126.353 36.5442 126.388C36.5228 126.424 36.4941 126.454 36.46 126.477C36.4146 126.508 36.3611 126.526 36.306 126.528H36.273ZM25.23 115.9C25.6 116.673 28.406 122.461 30.274 124.097C31.728 125.369 34.313 125.801 35.562 125.903C34.279 124.528 30.945 120.882 30.092 119.291C29.241 117.701 26.962 114.867 25.832 115.043C25.56 115.088 25.35 115.372 25.23 115.9Z" fill="#263238"/>
<path d="M27.423 116.514C27.423 116.514 30.513 123.086 32.575 124.892C34.637 126.698 38.76 126.823 38.76 126.823C38.76 126.823 33.864 121.671 32.836 119.734C31.808 117.798 28.065 113.168 27.423 116.514Z" fill="white"/>
<path d="M38.76 127.107C38.59 127.107 34.517 126.954 32.399 125.102C30.28 123.25 27.287 116.906 27.179 116.639C27.1595 116.582 27.1595 116.52 27.179 116.463C27.342 115.618 27.705 115.153 28.269 115.065C29.877 114.816 32.353 118.167 33.12 119.609C34.12 121.484 38.953 126.579 38.999 126.636C39.0381 126.675 39.0644 126.726 39.0745 126.78C39.0847 126.835 39.0782 126.891 39.056 126.942C39.0306 126.997 38.9882 127.043 38.9349 127.073C38.8817 127.103 38.8205 127.114 38.76 127.107ZM27.718 116.48C28.088 117.252 30.893 123.04 32.762 124.676C34.222 125.948 36.801 126.38 38.056 126.482C36.766 125.108 33.433 121.467 32.586 119.871C31.74 118.275 29.451 115.457 28.321 115.628C28.036 115.668 27.832 115.957 27.718 116.48Z" fill="#263238"/>
<path d="M55.38 123.216C55.38 123.216 54.732 122.182 52.54 120.768C50.347 119.354 38.755 122.955 38.755 122.955C38.755 122.955 33.472 116.389 32.7 115.741C31.927 115.094 30.507 114.713 30.252 116.003C29.996 117.292 33.472 122.819 34.375 123.733C35.279 124.648 38.755 126.823 38.755 126.823C40.8677 127.55 43.0922 127.898 45.326 127.851C48.0632 127.654 50.7787 127.225 53.443 126.567" fill="white"/>
<path d="M44.781 128.146C42.6965 128.126 40.6289 127.769 38.658 127.09L38.624 127.062C38.482 126.971 35.108 124.846 34.199 123.932C33.399 123.131 29.695 117.44 29.996 115.946C30.023 115.721 30.1115 115.509 30.2518 115.331C30.3921 115.153 30.5787 115.018 30.791 114.94C31.163 114.861 31.5485 114.871 31.9159 114.97C32.2832 115.068 32.6219 115.253 32.904 115.508C33.631 116.116 38.067 121.603 38.88 122.614C40.714 122.046 50.569 119.121 52.716 120.513C54.863 121.904 55.607 123.006 55.636 123.046C55.6671 123.093 55.683 123.149 55.6813 123.206C55.6797 123.263 55.6608 123.317 55.627 123.363C55.6049 123.393 55.577 123.419 55.545 123.438C55.5136 123.458 55.4786 123.472 55.442 123.479C55.4055 123.485 55.3681 123.484 55.332 123.476C55.2592 123.458 55.1967 123.411 55.158 123.347C54.39 122.395 53.4521 121.594 52.392 120.984C50.688 119.876 42.032 122.211 38.845 123.205C38.7906 123.222 38.7322 123.223 38.6774 123.207C38.6227 123.191 38.5741 123.158 38.538 123.114C36.721 120.842 33.12 116.434 32.524 115.94C32.3173 115.746 32.0695 115.601 31.799 115.516C31.5284 115.432 31.2423 115.41 30.962 115.452C30.8461 115.499 30.7451 115.577 30.6701 115.677C30.595 115.777 30.5486 115.896 30.536 116.02C30.32 117.088 33.597 122.506 34.58 123.489C35.41 124.318 38.556 126.329 38.885 126.528C40.9575 127.226 43.1343 127.564 45.321 127.527C48.041 127.341 50.741 126.927 53.392 126.289C53.448 126.276 53.5065 126.281 53.5602 126.301C53.6139 126.321 53.6605 126.357 53.6942 126.403C53.7279 126.45 53.7472 126.505 53.7499 126.562C53.7525 126.62 53.7383 126.677 53.709 126.726C53.6687 126.792 53.604 126.839 53.529 126.857C50.8458 127.519 48.1114 127.952 45.355 128.152C45.15 128.146 44.963 128.146 44.781 128.146Z" fill="#263238"/>
<path d="M69.023 136.4L64.383 128.192L53.143 134.974L55.993 141.938L69.023 136.4Z" fill="white"/>
<path d="M55.993 142.222C55.9572 142.227 55.9208 142.227 55.885 142.222C55.8162 142.192 55.7614 142.137 55.732 142.068L52.892 135.104C52.8672 135.041 52.8656 134.97 52.8876 134.906C52.9095 134.842 52.9536 134.787 53.012 134.752L64.252 127.97C64.287 127.955 64.3248 127.947 64.363 127.947C64.4012 127.947 64.4389 127.955 64.474 127.97C64.5471 127.99 64.61 128.037 64.65 128.101L69.296 136.263C69.3111 136.299 69.319 136.338 69.319 136.376C69.319 136.415 69.3111 136.454 69.296 136.49C69.2832 136.528 69.2625 136.563 69.235 136.593C69.2076 136.622 69.1742 136.646 69.137 136.661L56.107 142.199C56.0703 142.212 56.0319 142.22 55.993 142.222ZM53.494 135.093L56.147 141.563L68.643 136.263L64.303 128.584L53.494 135.093Z" fill="#263238"/>
<path d="M130.163 134.656L125.784 255.64H94.015L100.439 169.429C100.439 169.429 83.127 188.349 81.162 189.417C79.196 190.484 76.702 187.099 76.702 187.099L53.318 141.222L67.24 133.548L82.576 158.54L84.893 156.933L86.677 157.824C86.677 157.824 102.581 129.805 103.813 129.089C105.046 128.374 110.953 128.732 110.953 128.732L126.289 129.981L131.486 128.845L130.163 134.656Z" fill="#4CAF4F"/>
<path d="M125.784 255.918H94.015C93.9758 255.918 93.9369 255.91 93.901 255.894C93.8444 255.869 93.7968 255.828 93.7646 255.775C93.7324 255.723 93.7171 255.662 93.721 255.6L100.082 170.207C97.06 173.501 83.092 188.667 81.287 189.65C79.134 190.825 76.567 187.378 76.458 187.247L53.063 141.352C53.0303 141.285 53.0245 141.209 53.0466 141.138C53.0688 141.068 53.1172 141.008 53.182 140.972L67.103 133.298C67.167 133.264 67.2415 133.255 67.3119 133.273C67.3823 133.29 67.4433 133.334 67.483 133.395L82.673 158.131L84.751 156.694C84.7942 156.669 84.8431 156.656 84.893 156.656C84.9429 156.656 84.9919 156.669 85.035 156.694L86.58 157.467C88.733 153.672 102.439 129.572 103.688 128.862C104.938 128.152 110.374 128.43 110.987 128.465L126.323 129.714L131.475 128.578C131.545 128.561 131.619 128.573 131.681 128.61C131.743 128.646 131.788 128.706 131.807 128.776C131.82 128.823 131.821 128.872 131.81 128.919L130.47 134.696L126.096 255.64C126.095 255.679 126.085 255.717 126.069 255.753C126.043 255.806 126.002 255.85 125.952 255.879C125.901 255.908 125.843 255.922 125.784 255.918ZM94.322 255.35H125.528L129.896 134.644C129.894 134.625 129.894 134.607 129.896 134.588L131.14 129.22L126.386 130.254H126.3L110.964 129.004C109.357 128.908 104.955 128.771 103.989 129.322C103.035 129.97 93.283 146.8 86.949 157.955C86.9137 158.019 86.8549 158.066 86.7851 158.088C86.7153 158.109 86.6399 158.102 86.575 158.069L84.939 157.251L82.758 158.762C82.7264 158.784 82.6905 158.8 82.6526 158.807C82.6147 158.815 82.5756 158.815 82.5377 158.807C82.4999 158.799 82.4642 158.783 82.4327 158.761C82.4013 158.738 82.3748 158.709 82.355 158.676L67.138 133.923L53.698 141.335L76.953 186.963C76.953 186.963 79.304 190.104 81.025 189.161C82.547 188.332 94.254 175.762 100.229 169.23C100.269 169.186 100.322 169.155 100.38 169.143C100.438 169.131 100.499 169.138 100.553 169.162C100.607 169.186 100.652 169.227 100.683 169.277C100.713 169.328 100.727 169.387 100.723 169.446L94.322 255.35Z" fill="#263238"/>
<path d="M100.616 166.742L101.723 155.723L93.459 176.739L100.439 169.423L100.616 166.742Z" fill="#263238"/>
<path d="M93.459 177.023C93.4043 177.023 93.3507 177.007 93.305 176.977C93.25 176.942 93.2087 176.889 93.1881 176.827C93.1675 176.765 93.1689 176.698 93.192 176.637L101.462 155.621C101.487 155.557 101.534 155.505 101.594 155.472C101.654 155.44 101.724 155.43 101.791 155.445C101.858 155.461 101.918 155.5 101.957 155.557C101.997 155.613 102.015 155.682 102.007 155.751L100.871 166.77L100.695 169.44C100.69 169.506 100.662 169.568 100.616 169.616L93.663 176.932C93.6373 176.961 93.6058 176.984 93.5704 177C93.535 177.015 93.4977 177.023 93.459 177.023ZM101.235 157.711L94.254 175.512L100.161 169.315L100.332 166.742L101.235 157.711ZM99.724 159.176C99.6563 159.175 99.5911 159.15 99.5402 159.105C99.4893 159.06 99.4559 158.999 99.446 158.932C99.264 157.688 98.066 140.887 98.014 140.188C98.0114 140.151 98.0162 140.113 98.0282 140.077C98.0402 140.042 98.0592 140.009 98.084 139.981C98.1084 139.953 98.1381 139.93 98.1714 139.913C98.2047 139.896 98.241 139.887 98.2782 139.884C98.3153 139.881 98.3526 139.886 98.388 139.898C98.4233 139.91 98.4559 139.929 98.484 139.953C98.542 140.003 98.577 140.073 98.582 140.148C98.582 140.324 99.832 157.643 100.008 158.892C100.013 158.929 100.011 158.967 100.001 159.003C99.9914 159.039 99.9748 159.073 99.952 159.102C99.9292 159.132 99.9007 159.157 99.8683 159.175C99.8359 159.194 99.8001 159.205 99.763 159.21L99.724 159.176Z" fill="#263238"/>
<path d="M98.298 165.6C98.2299 165.601 98.1636 165.578 98.1114 165.534C98.0592 165.49 98.0246 165.429 98.014 165.362L96.054 152.866C96.0446 152.811 96.052 152.754 96.0751 152.703C96.0983 152.652 96.1362 152.609 96.184 152.58C96.2245 152.556 96.2701 152.543 96.317 152.54C96.3639 152.538 96.4107 152.547 96.4533 152.567C96.4959 152.587 96.533 152.616 96.5615 152.654C96.5901 152.691 96.6091 152.735 96.617 152.781L98.577 165.277C98.5836 165.314 98.5827 165.351 98.5744 165.387C98.5662 165.424 98.5507 165.458 98.529 165.488C98.5073 165.518 98.4797 165.544 98.4479 165.563C98.4161 165.582 98.3808 165.595 98.344 165.6H98.298ZM77.77 169.883C77.7294 169.894 77.6866 169.894 77.646 169.883C77.5795 169.85 77.5285 169.792 77.504 169.722C77.4796 169.652 77.4835 169.575 77.515 169.508L82.155 159.852C82.1697 159.816 82.1915 159.783 82.2192 159.756C82.2468 159.729 82.2797 159.707 82.3159 159.693C82.3521 159.679 82.3908 159.672 82.4297 159.673C82.4685 159.675 82.5068 159.684 82.542 159.7C82.5774 159.717 82.6089 159.74 82.6346 159.77C82.6604 159.799 82.6797 159.833 82.6913 159.871C82.703 159.908 82.7068 159.947 82.7024 159.986C82.698 160.025 82.6857 160.062 82.666 160.096L78.026 169.752C78.0003 169.796 77.9626 169.831 77.9175 169.854C77.8724 169.878 77.8216 169.888 77.771 169.883H77.77ZM82.769 166.85C82.7259 166.849 82.6833 166.84 82.644 166.822C82.5776 166.787 82.5271 166.728 82.5029 166.657C82.4787 166.587 82.4827 166.509 82.514 166.441L86.262 158.943C86.2785 158.91 86.3012 158.88 86.329 158.855C86.3711 158.817 86.4237 158.794 86.4797 158.787C86.5357 158.781 86.5923 158.791 86.642 158.818C86.7095 158.852 86.7614 158.911 86.787 158.982C86.7993 159.017 86.8043 159.055 86.8019 159.092C86.7995 159.129 86.7897 159.166 86.773 159.199L83.025 166.691C83.0018 166.739 82.9655 166.78 82.9201 166.808C82.8748 166.836 82.8224 166.851 82.769 166.85ZM124.358 190.587C124.299 190.588 124.241 190.571 124.193 190.537C124.145 190.503 124.109 190.455 124.091 190.399C121.348 182.726 119.28 170.837 118.025 162.209C118.015 162.136 118.034 162.061 118.079 162.002C118.124 161.943 118.19 161.903 118.263 161.891C118.337 161.881 118.413 161.901 118.473 161.945C118.534 161.99 118.574 162.056 118.587 162.13C119.837 170.729 121.898 182.578 124.625 190.212C124.637 190.247 124.643 190.284 124.64 190.321C124.638 190.358 124.629 190.395 124.613 190.428C124.596 190.461 124.573 190.491 124.545 190.515C124.517 190.54 124.484 190.558 124.449 190.57C124.42 190.581 124.389 190.587 124.358 190.587ZM117.746 158.415C117.678 158.414 117.612 158.389 117.56 158.345C117.508 158.3 117.473 158.239 117.462 158.171C117.122 155.581 116.934 153.939 116.934 153.928C116.929 153.875 116.938 153.821 116.961 153.773C116.984 153.725 117.02 153.684 117.065 153.655L123.585 149.412L115.565 148.106C115.515 148.099 115.468 148.078 115.429 148.046C115.39 148.014 115.361 147.972 115.344 147.924C115.327 147.876 115.323 147.825 115.332 147.775C115.341 147.725 115.362 147.679 115.395 147.64C115.395 147.64 117.19 145.482 118.945 142.846C120.7 140.211 126.38 131.486 126.437 131.43C126.478 131.366 126.543 131.321 126.618 131.305C126.692 131.289 126.77 131.303 126.834 131.344C126.896 131.386 126.939 131.45 126.954 131.524C126.969 131.597 126.955 131.673 126.914 131.736C126.857 131.827 121.183 140.518 119.416 143.164C118.388 144.697 117.295 146.184 116.139 147.623L124.392 148.975C124.434 148.982 124.474 148.998 124.509 149.023C124.544 149.047 124.573 149.079 124.594 149.117C124.615 149.154 124.626 149.196 124.629 149.238C124.631 149.281 124.624 149.324 124.607 149.363C124.585 149.416 124.548 149.461 124.5 149.492L117.508 154.036C117.565 154.519 117.735 155.996 118.013 158.097C118.018 158.134 118.016 158.171 118.006 158.208C117.997 158.244 117.98 158.277 117.957 158.307C117.935 158.336 117.906 158.361 117.874 158.38C117.842 158.398 117.806 158.41 117.769 158.415H117.746Z" fill="#263238"/>
<path d="M223.639 129.657C223.639 129.657 227.501 121.796 229.438 119.223C231.375 116.65 233.3 115.1 235.493 114.713C237.685 114.327 239.225 114.458 240.9 113.81C242.576 113.163 245.927 112.265 246.83 111.106C247.733 109.948 249.403 110.72 248.631 112.651C247.858 114.583 245.154 115.872 245.154 115.872L242.962 116.9C242.962 116.9 250.051 117.934 250.562 118.32C251.073 118.706 257.264 119.223 257.264 119.223C257.264 119.223 254.555 123.989 250.692 126.181C246.83 128.374 234.72 126.567 234.72 126.567L231.114 134.167L223.639 129.657Z" fill="white"/>
<path d="M231.108 134.451C231.058 134.45 231.009 134.436 230.966 134.412L223.491 129.902C223.431 129.864 223.387 129.806 223.367 129.738C223.347 129.669 223.353 129.596 223.383 129.532C223.542 129.209 227.285 121.62 229.211 119.053C231.284 116.287 233.266 114.816 235.459 114.435C236.201 114.307 236.947 114.21 237.697 114.145C238.759 114.091 239.809 113.888 240.815 113.543C241.196 113.401 241.656 113.242 242.155 113.072C243.769 112.504 245.972 111.765 246.62 110.93C246.813 110.636 247.107 110.424 247.447 110.334C247.786 110.244 248.147 110.282 248.46 110.442C248.977 110.737 249.409 111.521 248.915 112.759C248.108 114.77 245.404 116.076 245.291 116.128L243.95 116.758C246.177 117.093 250.295 117.752 250.766 118.093C251.113 118.309 254.373 118.695 257.321 118.939C257.393 118.943 257.461 118.975 257.509 119.028C257.558 119.082 257.584 119.152 257.582 119.224C257.58 119.272 257.567 119.319 257.543 119.36C257.435 119.558 254.754 124.222 250.869 126.425C247.199 128.504 236.6 127.113 234.919 126.874L231.403 134.258C231.386 134.294 231.361 134.327 231.331 134.353C231.301 134.38 231.265 134.4 231.227 134.412L231.108 134.451ZM224.008 129.549L230.989 133.758L234.459 126.442C234.486 126.387 234.53 126.342 234.584 126.314C234.638 126.285 234.699 126.275 234.76 126.283C234.879 126.283 246.819 128.05 250.55 125.931C253.669 124.165 256.054 120.632 256.798 119.467C254.975 119.308 250.903 118.899 250.408 118.547C250.045 118.314 246.285 117.673 242.939 117.184C242.879 117.176 242.823 117.148 242.78 117.105C242.737 117.062 242.709 117.006 242.701 116.946C242.692 116.885 242.702 116.823 242.731 116.769C242.759 116.714 242.805 116.671 242.86 116.644L245.047 115.616C245.075 115.616 247.665 114.35 248.386 112.544C248.744 111.646 248.5 111.118 248.182 110.93C247.983 110.837 247.756 110.822 247.546 110.887C247.336 110.952 247.158 111.094 247.046 111.283C246.296 112.248 244.087 112.987 242.314 113.611C241.826 113.776 241.372 113.935 240.997 114.077C239.943 114.438 238.844 114.652 237.731 114.713C237.049 114.781 236.339 114.85 235.533 114.992C233.51 115.349 231.642 116.747 229.659 119.394C227.955 121.671 224.667 128.226 224.008 129.549Z" fill="#263238"/>
<path d="M259.701 117.951C259.701 117.951 261.689 113.719 261.524 112.805C261.359 111.89 259.616 112.475 259.036 113.719C258.457 114.963 256.463 117.951 256.463 117.951H259.701Z" fill="white"/>
<path d="M259.701 118.235H256.463C256.412 118.233 256.362 118.218 256.318 118.191C256.274 118.164 256.238 118.127 256.213 118.082C256.186 118.039 256.171 117.988 256.171 117.937C256.171 117.886 256.186 117.835 256.213 117.792C256.213 117.792 258.196 114.81 258.764 113.594C258.962 113.154 259.281 112.779 259.683 112.511C260.084 112.244 260.554 112.096 261.036 112.083C261.214 112.096 261.383 112.17 261.514 112.292C261.645 112.414 261.731 112.577 261.757 112.754C261.933 113.708 260.252 117.349 259.911 118.07C259.892 118.113 259.863 118.15 259.826 118.179C259.79 118.207 259.747 118.227 259.701 118.235ZM256.992 117.667H259.519C260.275 116.042 261.348 113.435 261.223 112.856C261.223 112.759 261.166 112.668 260.985 112.646C260.62 112.673 260.269 112.798 259.969 113.008C259.669 113.218 259.431 113.505 259.281 113.839C258.583 115.153 257.819 116.43 256.992 117.667Z" fill="#263238"/>
<path d="M263.228 115.934C263.228 115.934 260.138 122.506 258.076 124.307C256.015 126.107 251.891 126.244 251.891 126.244C251.891 126.244 256.787 121.086 257.821 119.155C258.855 117.224 262.586 112.583 263.228 115.934Z" fill="white"/>
<path d="M251.891 126.528C251.836 126.527 251.783 126.51 251.738 126.48C251.693 126.45 251.657 126.407 251.635 126.357C251.613 126.305 251.605 126.249 251.614 126.193C251.624 126.138 251.649 126.087 251.686 126.045C251.738 125.994 256.571 120.899 257.571 119.024C258.338 117.587 260.82 114.23 262.422 114.48C262.99 114.566 263.348 115.048 263.507 115.883C263.524 115.939 263.524 115.998 263.507 116.054C263.376 116.326 260.366 122.699 258.281 124.523C256.196 126.346 252.09 126.522 251.919 126.528H251.891ZM262.234 115.037C261.098 115.037 258.877 117.78 258.071 119.291C257.264 120.802 253.885 124.528 252.601 125.903C253.851 125.778 256.435 125.369 257.889 124.097C259.758 122.461 262.564 116.673 262.933 115.9C262.819 115.372 262.615 115.088 262.336 115.043L262.234 115.037Z" fill="#263238"/>
<path d="M260.74 116.514C260.74 116.514 257.65 123.086 255.589 124.892C253.527 126.698 249.403 126.823 249.403 126.823C249.403 126.823 254.299 121.671 255.333 119.734C256.367 117.798 260.099 113.168 260.74 116.514Z" fill="white"/>
<path d="M249.403 127.107C249.349 127.106 249.296 127.09 249.25 127.06C249.205 127.03 249.17 126.987 249.148 126.937C249.123 126.887 249.115 126.83 249.124 126.775C249.133 126.72 249.159 126.669 249.199 126.63C249.25 126.573 254.078 121.478 255.077 119.604C255.844 118.167 258.315 114.816 259.928 115.06C260.496 115.145 260.86 115.628 261.019 116.457C261.038 116.514 261.038 116.576 261.019 116.633C260.894 116.9 257.878 123.279 255.799 125.096C253.72 126.914 249.608 127.096 249.437 127.101L249.403 127.107ZM259.746 115.616C258.582 115.616 256.384 118.36 255.583 119.871C254.731 121.467 251.397 125.108 250.113 126.482C251.363 126.357 253.947 125.948 255.401 124.676C257.27 123.04 260.076 117.252 260.445 116.48C260.331 115.957 260.127 115.668 259.843 115.628L259.746 115.616Z" fill="#263238"/>
<path d="M232.783 123.216C232.783 123.216 233.431 122.182 235.623 120.768C237.816 119.354 249.409 122.955 249.409 122.955C249.409 122.955 254.691 116.389 255.464 115.741C256.236 115.094 257.656 114.713 257.912 116.003C258.167 117.292 254.691 122.819 253.788 123.733C252.885 124.648 249.409 126.823 249.409 126.823C247.296 127.55 245.071 127.898 242.837 127.851C240.102 127.654 237.388 127.225 234.726 126.567" fill="white"/>
<path d="M243.388 128.146H242.82C240.064 127.947 237.329 127.514 234.646 126.851C234.609 126.842 234.573 126.826 234.542 126.804C234.511 126.781 234.485 126.753 234.465 126.72C234.445 126.687 234.432 126.651 234.426 126.613C234.42 126.575 234.422 126.536 234.431 126.499C234.449 126.424 234.497 126.359 234.563 126.319C234.629 126.278 234.708 126.266 234.783 126.283C237.427 126.935 240.121 127.362 242.837 127.561C245.024 127.602 247.201 127.264 249.272 126.562C249.591 126.357 252.749 124.352 253.578 123.523C254.561 122.54 257.838 117.122 257.622 116.054C257.61 115.929 257.564 115.81 257.489 115.71C257.414 115.61 257.312 115.532 257.196 115.486C256.916 115.445 256.63 115.467 256.359 115.552C256.089 115.636 255.841 115.78 255.634 115.974C255.066 116.468 251.442 120.882 249.619 123.148C249.583 123.192 249.534 123.224 249.479 123.24C249.425 123.257 249.366 123.256 249.312 123.239C246.126 122.251 237.475 119.916 235.765 121.018C233.675 122.37 233.028 123.37 233.022 123.375C232.98 123.435 232.917 123.476 232.846 123.49C232.774 123.505 232.7 123.491 232.638 123.453C232.576 123.414 232.532 123.354 232.513 123.283C232.495 123.213 232.504 123.138 232.539 123.074C232.539 123.034 233.244 121.978 235.459 120.541C237.674 119.104 247.461 122.075 249.301 122.643C250.113 121.632 254.544 116.145 255.271 115.537C255.554 115.283 255.893 115.099 256.26 115.001C256.627 114.902 257.012 114.891 257.384 114.969C257.597 115.046 257.784 115.181 257.924 115.359C258.064 115.536 258.153 115.749 258.179 115.974C258.48 117.468 254.771 123.159 253.981 123.96C253.067 124.875 249.693 126.999 249.551 127.09L249.5 127.118C247.531 127.788 245.467 128.135 243.388 128.146Z" fill="#263238"/>
<path d="M219.14 136.4L223.781 128.192L235.027 134.974L232.17 141.938L219.14 136.4Z" fill="white"/>
<path d="M232.17 142.222C232.132 142.227 232.094 142.227 232.056 142.222L219.026 136.684C218.989 136.669 218.956 136.646 218.93 136.616C218.903 136.587 218.884 136.551 218.873 136.513C218.856 136.478 218.848 136.439 218.848 136.4C218.848 136.361 218.856 136.322 218.873 136.286L223.514 128.073C223.553 128.008 223.616 127.961 223.69 127.942C223.725 127.927 223.763 127.919 223.801 127.919C223.838 127.919 223.876 127.927 223.911 127.942L235.152 134.73C235.209 134.766 235.252 134.821 235.272 134.885C235.293 134.95 235.291 135.019 235.266 135.082L232.426 142.045C232.396 142.114 232.341 142.169 232.272 142.199C232.239 142.211 232.205 142.219 232.17 142.222ZM219.543 136.263L232.039 141.563L234.692 135.093L223.9 128.584L219.543 136.263Z" fill="#263238"/>
<path d="M158.001 134.656L162.38 255.64H194.154L187.724 169.423C187.724 169.423 205.037 188.343 207.002 189.411C208.967 190.479 211.466 187.094 211.466 187.094L234.845 141.222L220.952 133.548L205.616 158.54L203.293 156.933L201.509 157.824C201.509 157.824 185.605 129.805 184.373 129.089C183.14 128.374 177.233 128.732 177.233 128.732L161.897 129.981L156.217 128.845L158.001 134.656Z" fill="#4CAF4F"/>
<path d="M194.154 255.918H162.38C162.306 255.917 162.235 255.887 162.183 255.835C162.13 255.784 162.099 255.714 162.096 255.64L157.717 134.701L155.876 128.936C155.855 128.864 155.862 128.787 155.896 128.72C155.931 128.653 155.989 128.602 156.06 128.577C156.107 128.561 156.157 128.557 156.206 128.567L161.886 129.703L177.193 128.453C177.812 128.419 183.214 128.112 184.498 128.851C185.781 129.589 199.453 153.661 201.606 157.455L203.151 156.683C203.195 156.658 203.245 156.645 203.296 156.645C203.347 156.645 203.397 156.658 203.441 156.683L205.514 158.12L220.708 133.383C220.747 133.323 220.807 133.279 220.877 133.262C220.946 133.244 221.02 133.253 221.083 133.287L235.004 140.961C235.069 140.996 235.118 141.056 235.141 141.127C235.163 141.198 235.157 141.274 235.124 141.341L211.739 187.213C211.608 187.395 209.047 190.831 206.888 189.65C205.088 188.667 191.121 173.501 188.093 170.207L194.438 255.6C194.44 255.64 194.435 255.679 194.421 255.716C194.407 255.754 194.386 255.788 194.358 255.816C194.334 255.847 194.303 255.872 194.267 255.889C194.232 255.907 194.193 255.917 194.154 255.918ZM162.652 255.35H193.847L187.44 169.446C187.436 169.386 187.45 169.326 187.482 169.275C187.514 169.225 187.561 169.185 187.616 169.162C187.669 169.137 187.729 169.13 187.786 169.143C187.844 169.155 187.896 169.186 187.934 169.23C193.915 175.762 205.616 188.332 207.138 189.144C208.842 190.087 211.211 186.94 211.239 186.906L234.47 141.318L221.026 133.906L205.815 158.665C205.795 158.698 205.769 158.727 205.738 158.75C205.69 158.784 205.633 158.802 205.575 158.802C205.517 158.802 205.46 158.784 205.412 158.75L203.23 157.239L201.595 158.057C201.531 158.09 201.456 158.097 201.387 158.075C201.318 158.054 201.26 158.007 201.225 157.944C194.898 146.788 185.145 129.958 184.185 129.311C183.225 128.743 178.823 128.896 177.205 128.993L161.869 130.242H161.789L156.564 129.209L158.268 134.559C158.271 134.584 158.271 134.608 158.268 134.633L162.652 255.35Z" fill="#263238"/>
<path d="M187.724 169.423L187.508 160.716L194.398 176.222L187.724 169.423Z" fill="#263238"/>
<path d="M194.398 176.506C194.361 176.506 194.324 176.499 194.29 176.484C194.255 176.47 194.224 176.448 194.199 176.421L187.525 169.605C187.474 169.553 187.444 169.484 187.44 169.412L187.224 160.744C187.224 160.679 187.245 160.615 187.285 160.563C187.326 160.512 187.383 160.476 187.447 160.461C187.51 160.446 187.577 160.452 187.637 160.48C187.696 160.509 187.743 160.558 187.769 160.619L194.659 176.125C194.686 176.186 194.69 176.254 194.672 176.317C194.653 176.381 194.612 176.436 194.557 176.472C194.509 176.5 194.453 176.511 194.398 176.506ZM188.008 169.304L193.501 174.904L187.821 162.136L188.008 169.304Z" fill="#263238"/>
<path d="M187.548 167.026C187.476 167.026 187.407 167 187.355 166.951C187.302 166.903 187.27 166.836 187.264 166.765L185.656 143.204C185.653 143.167 185.658 143.129 185.67 143.094C185.682 143.059 185.701 143.026 185.726 142.998C185.763 142.956 185.812 142.926 185.866 142.911C185.92 142.896 185.977 142.897 186.031 142.914C186.084 142.933 186.13 142.966 186.165 143.01C186.199 143.055 186.219 143.108 186.224 143.164L187.832 166.725C187.836 166.8 187.81 166.874 187.761 166.931C187.736 166.959 187.706 166.982 187.673 166.998C187.639 167.015 187.602 167.024 187.565 167.026H187.548ZM188.44 159.176H188.4C188.327 159.164 188.261 159.125 188.216 159.065C188.172 159.006 188.152 158.932 188.161 158.858C188.332 157.631 189.189 147.748 189.195 147.652C189.205 147.577 189.243 147.509 189.3 147.46C189.358 147.412 189.432 147.387 189.508 147.39C189.582 147.398 189.65 147.435 189.698 147.492C189.745 147.549 189.769 147.623 189.763 147.697C189.729 148.106 188.9 157.694 188.724 158.938C188.712 159.005 188.677 159.065 188.625 159.109C188.573 159.152 188.508 159.176 188.44 159.176ZM189.871 165.6H189.826C189.788 165.596 189.752 165.584 189.72 165.565C189.687 165.545 189.659 165.52 189.637 165.489C189.615 165.459 189.599 165.424 189.59 165.388C189.582 165.352 189.581 165.314 189.587 165.277L191.552 152.781C191.558 152.744 191.571 152.708 191.59 152.675C191.609 152.643 191.635 152.614 191.665 152.592C191.696 152.57 191.73 152.554 191.767 152.545C191.822 152.531 191.88 152.533 191.934 152.553C191.987 152.572 192.034 152.607 192.067 152.653C192.09 152.683 192.106 152.718 192.115 152.754C192.124 152.791 192.126 152.829 192.12 152.866L190.155 165.362C190.145 165.43 190.111 165.491 190.058 165.535C190.006 165.579 189.939 165.602 189.871 165.6ZM206.655 165.413C206.588 165.411 206.524 165.387 206.474 165.343C206.423 165.3 206.389 165.24 206.377 165.174L205.474 160.011C205.468 159.974 205.469 159.936 205.477 159.899C205.485 159.862 205.501 159.827 205.523 159.796C205.544 159.765 205.572 159.739 205.604 159.719C205.636 159.698 205.672 159.685 205.709 159.679C205.747 159.672 205.785 159.673 205.822 159.682C205.878 159.695 205.928 159.723 205.968 159.765C206.007 159.806 206.033 159.859 206.042 159.915L206.951 165.078C206.962 165.152 206.944 165.228 206.9 165.289C206.857 165.35 206.792 165.393 206.718 165.407L206.655 165.413ZM201.589 162.88C201.515 162.875 201.445 162.843 201.393 162.789C201.342 162.736 201.312 162.664 201.311 162.59L201.367 159.063C201.375 158.99 201.409 158.922 201.462 158.871C201.515 158.82 201.584 158.789 201.657 158.784C201.713 158.786 201.768 158.804 201.814 158.836C201.86 158.868 201.895 158.913 201.916 158.965C201.929 159 201.936 159.037 201.935 159.074L201.879 162.596C201.879 162.634 201.871 162.671 201.857 162.706C201.842 162.741 201.82 162.773 201.793 162.799C201.738 162.851 201.665 162.88 201.589 162.88ZM163.811 190.587C163.779 190.595 163.746 190.595 163.715 190.587C163.68 190.575 163.648 190.556 163.62 190.532C163.592 190.507 163.569 190.478 163.553 190.444C163.536 190.411 163.527 190.375 163.524 190.338C163.522 190.301 163.527 190.264 163.539 190.229C164.013 188.892 164.441 187.539 164.822 186.173C164.835 186.127 164.86 186.084 164.893 186.049C164.926 186.015 164.967 185.988 165.013 185.973C165.059 185.958 165.107 185.954 165.155 185.961C165.202 185.969 165.247 185.988 165.286 186.017C165.333 186.052 165.368 186.1 165.386 186.156C165.405 186.211 165.406 186.271 165.39 186.327C165.003 187.704 164.571 189.067 164.095 190.416C164.072 190.471 164.032 190.517 163.981 190.547C163.93 190.578 163.87 190.592 163.811 190.587ZM165.856 183.799H165.782C165.71 183.78 165.648 183.734 165.61 183.67C165.591 183.638 165.578 183.604 165.573 183.567C165.567 183.531 165.569 183.494 165.578 183.458C168.599 171.53 170.462 155.871 170.69 154.047L163.698 149.503C163.65 149.472 163.613 149.427 163.591 149.374C163.57 149.322 163.565 149.264 163.578 149.208C163.588 149.152 163.616 149.1 163.656 149.06C163.697 149.021 163.75 148.995 163.806 148.986L172.07 147.635C171.502 146.896 170.127 145.175 168.793 143.176C167.026 140.529 161.352 131.816 161.295 131.748C161.259 131.685 161.248 131.61 161.265 131.539C161.283 131.469 161.327 131.407 161.388 131.368C161.449 131.329 161.523 131.314 161.595 131.328C161.666 131.342 161.73 131.382 161.772 131.441C161.829 131.526 167.503 140.216 169.264 142.858C170.371 144.512 171.558 146.112 172.82 147.652C172.85 147.692 172.87 147.739 172.878 147.788C172.886 147.838 172.882 147.889 172.865 147.936C172.848 147.983 172.818 148.025 172.779 148.057C172.741 148.089 172.694 148.11 172.644 148.117L164.623 149.424L171.15 153.667C171.194 153.696 171.229 153.737 171.252 153.785C171.274 153.833 171.282 153.886 171.275 153.939C171.275 154.104 169.355 170.923 166.163 183.595C166.144 183.66 166.103 183.716 166.047 183.753C165.991 183.791 165.923 183.807 165.856 183.799Z" fill="#263238"/>
<path d="M131.322 117.667L131.373 129.805L145.351 138.257L156.677 130.407L155.632 116.639C155.632 116.639 146.879 122.319 145.72 122.557C144.562 122.796 131.322 117.667 131.322 117.667Z" fill="white"/>
<path d="M145.351 138.541C145.299 138.542 145.248 138.528 145.203 138.501L131.208 130.072C131.166 130.046 131.132 130.01 131.107 129.968C131.082 129.925 131.068 129.877 131.066 129.828L131.015 117.69C131.016 117.644 131.028 117.599 131.049 117.558C131.071 117.518 131.102 117.484 131.14 117.458C131.178 117.432 131.221 117.415 131.266 117.409C131.311 117.403 131.358 117.407 131.401 117.423C136.513 119.399 144.84 122.466 145.652 122.302C146.464 122.137 151.968 118.684 155.473 116.423C155.515 116.398 155.563 116.385 155.612 116.385C155.661 116.385 155.709 116.398 155.751 116.423C155.795 116.445 155.833 116.478 155.861 116.519C155.889 116.56 155.906 116.607 155.91 116.656L156.938 130.424C156.942 130.474 156.932 130.524 156.911 130.569C156.889 130.614 156.855 130.652 156.813 130.68L145.493 138.53C145.447 138.545 145.399 138.549 145.351 138.541ZM131.657 129.646L145.34 137.922L156.382 130.265L155.399 117.133C153.536 118.337 146.879 122.597 145.8 122.813C144.721 123.029 134.514 119.183 131.6 118.059L131.657 129.646Z" fill="#263238"/>
<path d="M131.515 127.482L144.789 124.193L131.373 118.718L131.515 127.482Z" fill="#263238"/>
<path d="M131.515 127.76C131.478 127.762 131.441 127.755 131.406 127.742C131.371 127.729 131.34 127.708 131.313 127.682C131.286 127.656 131.265 127.625 131.251 127.591C131.237 127.556 131.23 127.519 131.231 127.482L131.089 118.712C131.089 118.665 131.1 118.619 131.122 118.577C131.144 118.535 131.175 118.5 131.214 118.473C131.255 118.451 131.301 118.44 131.348 118.44C131.394 118.44 131.44 118.451 131.481 118.473L144.897 123.949C144.953 123.972 144.999 124.012 145.031 124.063C145.063 124.114 145.077 124.173 145.073 124.233C145.067 124.292 145.043 124.349 145.004 124.394C144.966 124.44 144.915 124.473 144.857 124.489L131.583 127.772L131.515 127.76ZM131.668 119.144L131.793 127.096L143.874 124.102L131.668 119.144ZM155.632 102.479C155.632 102.479 155.501 96.946 157.046 93.856C157.541 92.8556 157.798 91.7546 157.798 90.6385C157.798 89.5224 157.541 88.4214 157.046 87.421L158.472 86.904C157.696 86.2543 156.88 85.6531 156.03 85.104C155.643 84.973 156.285 81.502 155.126 79.696C153.968 77.89 152.809 77.509 152.809 77.509L152.167 79.827C152.167 79.827 148.691 75.709 146.76 74.937C144.829 74.164 139.302 70.432 139.16 72.363C139.018 74.294 139.808 75.067 139.808 75.067C139.808 75.067 135.945 72.874 132.992 73.647C130.038 74.419 127.198 76.226 127.84 76.867C128.482 77.509 131.316 80.213 131.316 80.213C131.316 80.213 124.756 80.469 123.983 81.241C123.465 81.8417 123.078 82.544 122.847 83.303L126.579 85.234C126.579 85.234 123.233 84.973 121.944 87.034C120.655 89.097 120.399 89.874 121.302 90.249C122.194 90.704 123.054 91.221 123.875 91.795C123.875 91.795 122.972 93.339 124.006 95.912C125.04 98.485 127.476 104.154 127.476 104.154C127.476 104.154 128.379 94.884 129.021 93.084C129.663 91.284 137.649 87.034 138.802 86.648C139.955 86.262 148.072 88.449 148.589 88.449C149.106 88.449 152.446 101.45 153.218 101.962C153.99 102.473 155.632 102.479 155.632 102.479Z" fill="#263238"/>
<path d="M127.459 104.438C127.404 104.436 127.351 104.419 127.306 104.388C127.26 104.356 127.225 104.313 127.204 104.262C127.204 104.205 124.744 98.582 123.722 96.02C122.875 93.907 123.279 92.448 123.5 91.897C122.758 91.38 121.98 90.917 121.171 90.511C121.02 90.4594 120.882 90.3744 120.768 90.2622C120.654 90.15 120.567 90.0135 120.513 89.863C120.319 89.244 120.757 88.375 121.688 86.881C122.563 85.478 124.284 85.075 125.437 84.973L122.688 83.553C122.628 83.525 122.58 83.4759 122.554 83.415C122.528 83.3542 122.525 83.2858 122.546 83.223C122.794 82.417 123.213 81.6736 123.773 81.043C124.477 80.338 128.771 80.053 130.634 79.957C129.799 79.157 128.112 77.543 127.635 77.067C127.555 76.9916 127.498 76.8944 127.472 76.7874C127.446 76.6803 127.451 76.5679 127.488 76.464C127.766 75.436 130.583 73.982 132.912 73.374C135.139 72.806 137.797 73.794 139.12 74.402C138.899 73.7405 138.816 73.0408 138.876 72.346C138.877 72.2047 138.915 72.0661 138.987 71.9443C139.059 71.8226 139.162 71.7221 139.285 71.653C140.143 71.182 142.08 72.153 144.721 73.584C145.561 74.039 146.357 74.47 146.862 74.675C148.492 75.323 151.088 78.168 152.031 79.219L152.531 77.413C152.542 77.3759 152.56 77.3413 152.584 77.311C152.609 77.2809 152.639 77.2558 152.673 77.237C152.707 77.2202 152.745 77.2115 152.784 77.2115C152.822 77.2115 152.86 77.2202 152.894 77.237C152.945 77.237 154.161 77.674 155.359 79.509C156.138 80.719 156.149 82.587 156.155 83.825C156.147 84.163 156.162 84.501 156.2 84.836C157.051 85.391 157.869 85.996 158.648 86.648C158.687 86.6809 158.717 86.7233 158.735 86.7711C158.753 86.8189 158.758 86.8706 158.75 86.921C158.74 86.9702 158.718 87.0159 158.685 87.0538C158.652 87.0917 158.61 87.1204 158.563 87.137L157.427 87.546C157.88 88.5563 158.103 89.6547 158.08 90.7618C158.056 91.8689 157.787 92.9569 157.291 93.947C155.797 96.941 155.905 102.382 155.905 102.439C155.904 102.516 155.874 102.589 155.819 102.643C155.794 102.67 155.763 102.692 155.729 102.707C155.695 102.722 155.658 102.729 155.621 102.728C155.547 102.728 153.848 102.728 153.019 102.16C152.599 101.882 151.985 100.03 150.355 94.606C149.623 92.181 148.725 89.187 148.418 88.682C148.157 88.648 147.583 88.512 146.357 88.227C144.158 87.711 139.586 86.631 138.848 86.876C137.643 87.279 129.828 91.499 129.243 93.124C128.624 94.873 127.726 104.029 127.715 104.12C127.709 104.183 127.683 104.242 127.64 104.289C127.596 104.335 127.539 104.366 127.476 104.376L127.459 104.438ZM126.221 85.507C125.38 85.507 123.125 85.654 122.165 87.211C121.41 88.426 120.927 89.318 121.029 89.721C121.029 89.795 121.115 89.909 121.376 90.022C122.285 90.482 123.16 91.006 123.994 91.59C124.054 91.63 124.097 91.693 124.113 91.763C124.129 91.834 124.117 91.9083 124.08 91.971C124.08 91.971 123.267 93.441 124.227 95.839C125.211 98.2594 126.224 100.668 127.266 103.064C127.527 100.542 128.198 94.475 128.714 93.016C129.436 90.999 137.734 86.722 138.677 86.41C139.495 86.132 142.841 86.881 146.487 87.739C147.47 87.972 148.401 88.188 148.549 88.193C148.924 88.193 149.066 88.409 150.901 94.51C151.781 97.423 152.979 101.405 153.349 101.763C153.97 102.058 154.649 102.213 155.337 102.217C155.337 101.007 155.416 96.497 156.785 93.76C157.254 92.7985 157.498 91.7428 157.498 90.673C157.498 89.6032 157.254 88.5475 156.785 87.586C156.765 87.55 156.754 87.5102 156.751 87.4693C156.748 87.4283 156.754 87.3873 156.769 87.349C156.783 87.3104 156.806 87.2755 156.835 87.2466C156.864 87.2177 156.899 87.1957 156.938 87.182L157.881 86.842C157.26 86.3165 156.603 85.8343 155.916 85.399C155.581 85.291 155.581 84.882 155.57 83.888C155.57 82.718 155.57 80.951 154.865 79.878C154.396 79.0904 153.746 78.4262 152.968 77.941L152.4 79.929C152.387 79.9789 152.36 80.0242 152.323 80.0601C152.286 80.0961 152.24 80.1213 152.19 80.133C152.139 80.1435 152.087 80.1401 152.038 80.1232C151.989 80.1063 151.945 80.0765 151.912 80.037C151.878 79.997 148.458 75.964 146.618 75.226C145.864 74.8851 145.129 74.5059 144.414 74.09C142.71 73.175 140.177 71.818 139.524 72.153C139.495 72.153 139.421 72.21 139.41 72.386C139.296 74.141 139.978 74.862 139.978 74.874C140.023 74.925 140.048 74.9906 140.048 75.0585C140.048 75.1264 140.023 75.192 139.978 75.243C139.936 75.297 139.877 75.3342 139.81 75.3478C139.743 75.3613 139.673 75.3504 139.614 75.317C139.58 75.317 135.82 73.198 133.003 73.931C130.367 74.618 128.141 76.038 127.982 76.623C128.618 77.305 131.43 79.986 131.458 80.031C131.498 80.0697 131.527 80.1195 131.539 80.1741C131.551 80.2288 131.547 80.2858 131.527 80.338C131.507 80.3903 131.472 80.4354 131.426 80.4678C131.38 80.5002 131.326 80.5183 131.27 80.52C128.59 80.622 124.602 80.985 124.125 81.468C123.679 81.9637 123.335 82.5428 123.114 83.172L126.63 84.99C126.687 85.0213 126.732 85.0708 126.758 85.1306C126.783 85.1904 126.789 85.257 126.772 85.32C126.753 85.3829 126.714 85.4377 126.661 85.4758C126.607 85.5139 126.543 85.5329 126.477 85.53C126.477 85.53 126.414 85.507 126.221 85.507Z" fill="#263238"/>
<path d="M134.412 83.433C134.412 83.433 125.789 91.953 125.659 93.339C125.528 94.725 129.39 116.764 129.635 117.536C129.879 118.309 139.029 124.102 141.858 124.744C144.687 125.386 147.652 124.614 148.424 123.972C149.197 123.33 156.66 119.081 157.433 115.605C158.205 112.129 153.36 88.449 152.792 87.552C152.224 86.654 140.205 80.855 134.412 83.433Z" fill="white"/>
<path d="M144.113 125.267C143.34 125.27 142.568 125.188 141.813 125.022C139.115 124.409 129.703 118.598 129.379 117.638C129.027 116.582 125.25 94.737 125.375 93.328C125.5 91.919 132.759 84.672 134.213 83.24C134.237 83.215 134.266 83.1959 134.298 83.184C140.023 80.639 152.389 86.239 153.042 87.421C153.576 88.352 158.495 112.112 157.705 115.679C157.046 118.65 151.787 122.092 149.543 123.563C149.083 123.864 148.725 124.097 148.6 124.205C147.958 124.744 146.129 125.267 144.113 125.267ZM134.576 83.672C131.265 86.932 126.028 92.414 125.943 93.368C125.829 94.646 129.595 116.48 129.919 117.445C130.316 118.195 139.097 123.824 141.937 124.466C144.777 125.108 147.572 124.33 148.259 123.756C148.407 123.631 148.742 123.409 149.253 123.074C151.44 121.643 156.563 118.292 157.171 115.543C157.915 112.203 153.082 88.653 152.57 87.711C152.093 86.978 140.296 81.224 134.576 83.672Z" fill="#263238"/>
<path d="M134.411 83.433C134.411 83.433 137.399 84.91 138.632 85.461C139.864 86.012 141.227 84.092 141.227 84.092C141.227 84.092 151.809 87.722 152.815 87.552C153.82 87.382 149.975 83.405 145.999 81.9C142.023 80.395 134.434 80.582 134.411 83.433Z" fill="#263238"/>
<path d="M152.758 87.835C151.389 87.835 143.42 85.143 141.33 84.428C140.932 84.916 139.717 86.251 138.49 85.723C137.263 85.194 134.292 83.701 134.264 83.683C134.216 83.6598 134.176 83.6236 134.148 83.5784C134.12 83.5333 134.105 83.4812 134.105 83.428C134.117 83.093 134.213 82.7664 134.385 82.4784C134.556 82.1905 134.798 81.9506 135.087 81.781C137.359 80.241 142.954 80.441 146.101 81.639C149.588 82.962 153.337 86.387 153.235 87.415C153.228 87.5188 153.185 87.617 153.113 87.6926C153.042 87.7683 152.946 87.8168 152.843 87.83L152.758 87.835ZM141.228 83.808C141.26 83.8026 141.292 83.8026 141.324 83.808C145.249 85.155 151.639 87.216 152.684 87.256C152.446 86.478 149.378 83.462 145.925 82.144C142.926 81.008 137.496 80.821 135.44 82.229C135.254 82.3361 135.093 82.4817 134.967 82.6561C134.842 82.8304 134.755 83.0295 134.713 83.24C135.366 83.559 137.706 84.717 138.751 85.177C139.586 85.547 140.66 84.382 141.023 83.905C141.048 83.8751 141.08 83.851 141.115 83.8343C141.15 83.8176 141.189 83.8086 141.228 83.808ZM142.307 107.795C142.233 107.801 142.159 107.801 142.085 107.795L141.364 107.676C140.853 107.759 140.337 107.801 139.819 107.801C139.477 107.778 139.151 107.645 138.892 107.42C138.632 107.196 138.453 106.893 138.382 106.557C138.367 106.484 138.38 106.408 138.419 106.345C138.458 106.281 138.52 106.235 138.592 106.216C138.664 106.199 138.74 106.211 138.804 106.249C138.868 106.287 138.914 106.348 138.933 106.42C138.933 106.455 139.154 107.238 139.819 107.238C140.318 107.24 140.816 107.198 141.307 107.113H141.432L142.204 107.238C142.892 107.358 144.374 106.619 144.476 106.296C144.579 105.972 143.835 102.683 143.34 100.303C142.772 97.509 142.409 95.759 142.409 95.424C142.409 94.584 143.977 92.862 144.289 92.527C144.343 92.4748 144.415 92.4456 144.49 92.4456C144.566 92.4456 144.638 92.4748 144.692 92.527C144.719 92.5534 144.74 92.585 144.754 92.62C144.769 92.6544 144.777 92.6915 144.777 92.729C144.777 92.7665 144.769 92.8036 144.754 92.838C144.74 92.873 144.719 92.9046 144.692 92.931C143.977 93.697 142.988 94.987 142.988 95.441C142.988 95.759 143.477 98.122 143.908 100.207C144.823 104.631 145.113 106.154 145.044 106.455C144.84 107.068 143.215 107.795 142.307 107.795Z" fill="#263238"/>
<path d="M145.164 106.665C144.993 106.663 144.822 106.648 144.653 106.619C144.579 106.604 144.514 106.56 144.472 106.498C144.452 106.466 144.438 106.432 144.43 106.395C144.417 106.321 144.432 106.244 144.473 106.181C144.493 106.149 144.52 106.123 144.551 106.102C144.582 106.081 144.618 106.067 144.654 106.06C144.691 106.054 144.729 106.055 144.766 106.063C145.085 106.133 145.419 106.104 145.72 105.977C145.786 105.93 145.831 105.859 145.845 105.779L145.97 105.006C145.979 104.96 145.998 104.917 146.027 104.88C146.056 104.844 146.093 104.814 146.136 104.795C146.179 104.776 146.225 104.768 146.272 104.77C146.319 104.773 146.364 104.787 146.404 104.811C146.452 104.84 146.489 104.883 146.512 104.934C146.535 104.985 146.543 105.042 146.533 105.097L146.402 105.87C146.383 105.984 146.341 106.092 146.28 106.19C146.218 106.287 146.138 106.372 146.044 106.438C145.779 106.598 145.473 106.677 145.164 106.665ZM141.358 107.653C141.301 107.653 141.245 107.636 141.199 107.602C140.885 107.359 140.655 107.022 140.544 106.641C140.433 106.259 140.446 105.852 140.58 105.478C140.588 105.439 140.604 105.401 140.628 105.369C140.652 105.336 140.682 105.309 140.717 105.289C140.752 105.269 140.791 105.257 140.831 105.254C140.871 105.25 140.911 105.255 140.949 105.268C141.006 105.288 141.056 105.325 141.09 105.375C141.125 105.424 141.143 105.483 141.142 105.544C141.141 105.584 141.131 105.623 141.114 105.659C141.019 105.918 141.008 106.201 141.082 106.467C141.157 106.734 141.313 106.97 141.529 107.142C141.576 107.178 141.611 107.228 141.629 107.285C141.647 107.342 141.646 107.402 141.628 107.459C141.609 107.516 141.573 107.565 141.524 107.599C141.476 107.634 141.418 107.653 141.358 107.653ZM139.046 115.503C138.976 115.503 138.908 115.479 138.853 115.435C138.801 115.381 138.772 115.308 138.772 115.233C138.772 115.158 138.801 115.085 138.853 115.031C138.899 114.98 143.289 110.141 148.31 112.123C148.345 112.136 148.377 112.157 148.404 112.183C148.43 112.209 148.452 112.24 148.466 112.275C148.496 112.344 148.497 112.422 148.47 112.492C148.456 112.527 148.435 112.558 148.409 112.585C148.356 112.639 148.284 112.67 148.209 112.672C148.172 112.672 148.135 112.665 148.1 112.651C143.448 110.817 139.319 115.361 139.279 115.412C139.25 115.444 139.213 115.468 139.173 115.484C139.133 115.5 139.089 115.506 139.046 115.503ZM130.163 97.77C130.072 97.7689 129.982 97.7459 129.902 97.703C129.821 97.66 129.752 97.5984 129.7 97.5232C129.649 97.4481 129.616 97.3616 129.604 97.2711C129.593 97.1806 129.603 97.0886 129.635 97.003C130.24 95.5417 131.254 94.2856 132.554 93.385C134.724 91.936 138.484 93.652 138.643 93.725C138.78 93.7897 138.886 93.9057 138.938 94.048C138.963 94.118 138.975 94.193 138.972 94.268C138.965 94.3802 138.927 94.488 138.86 94.5786C138.793 94.6691 138.702 94.7384 138.597 94.778C138.454 94.8293 138.298 94.8224 138.16 94.759C137.24 94.328 134.542 93.419 133.185 94.328C132.085 95.1004 131.224 96.1648 130.697 97.401C130.656 97.5093 130.583 97.6025 130.487 97.6684C130.392 97.7343 130.279 97.7697 130.163 97.77ZM152.69 95.327C152.586 95.3281 152.484 95.3006 152.395 95.2478C152.306 95.1949 152.233 95.1185 152.184 95.027C151.54 93.9305 150.558 93.073 149.384 92.584C148.878 92.4003 148.332 92.3529 147.802 92.4466C147.271 92.5403 146.775 92.7719 146.362 93.118C146.307 93.1689 146.242 93.2081 146.171 93.2336C146.101 93.259 146.026 93.27 145.951 93.266C145.8 93.258 145.659 93.1907 145.558 93.0789C145.456 92.9671 145.403 92.8198 145.41 92.669C145.418 92.5191 145.484 92.3782 145.595 92.277C146.163 91.7907 146.85 91.4644 147.586 91.3317C148.322 91.199 149.08 91.2647 149.782 91.522C151.215 92.1059 152.413 93.1487 153.19 94.487C153.237 94.5736 153.261 94.671 153.259 94.7695C153.257 94.868 153.229 94.9644 153.179 95.049C153.128 95.1337 153.057 95.2038 152.971 95.2526C152.885 95.3013 152.789 95.3269 152.69 95.327ZM135.894 101.064C136.427 101.064 136.86 100.459 136.86 99.712C136.86 98.966 136.427 98.361 135.894 98.361C135.361 98.361 134.928 98.966 134.928 99.712C134.928 100.459 135.361 101.064 135.894 101.064ZM148.379 97.781C148.379 98.525 147.941 99.133 147.413 99.133C146.885 99.133 146.447 98.525 146.447 97.781C146.447 97.037 146.879 96.429 147.413 96.429C147.947 96.429 148.379 97.037 148.379 97.781Z" fill="#263238"/>
<path d="M127.232 102.734C127.232 102.734 124.79 99.264 123.631 101.962C122.472 104.66 123.631 106.852 124.767 108.658C125.903 110.465 128.368 111.362 128.368 111.362L127.232 102.734Z" fill="white"/>
<path d="M128.368 111.646C128.336 111.652 128.303 111.652 128.271 111.646C128.169 111.612 125.721 110.692 124.528 108.806C123.228 106.784 122.188 104.546 123.347 101.848C123.434 101.546 123.604 101.274 123.837 101.063C124.069 100.851 124.356 100.708 124.665 100.65C125.954 100.519 127.294 102.354 127.442 102.569C127.471 102.605 127.488 102.649 127.493 102.694L128.629 111.317C128.634 111.366 128.627 111.416 128.608 111.461C128.589 111.507 128.559 111.547 128.521 111.578C128.478 111.615 128.425 111.639 128.368 111.646ZM124.801 101.218H124.721C124.381 101.252 124.097 101.541 123.869 102.07C122.762 104.648 123.869 106.739 125.005 108.499C125.784 109.548 126.824 110.374 128.022 110.896L126.937 102.836C126.562 102.337 125.573 101.218 124.795 101.218H124.801Z" fill="#263238"/>
<path d="M155.905 98.491C155.905 98.491 156.16 96.043 157.194 96.299C158.228 96.554 160.153 98.491 158.995 101.189C157.836 103.887 156.677 106.727 156.677 106.727L155.632 101.45L155.905 98.491Z" fill="white"/>
<path d="M156.677 107.011C156.616 107.004 156.559 106.977 156.514 106.936C156.469 106.894 156.439 106.839 156.427 106.778L155.399 101.502C155.396 101.475 155.396 101.449 155.399 101.422L155.655 98.462C155.655 98.281 155.865 96.668 156.586 96.162C156.688 96.0901 156.804 96.0413 156.927 96.0188C157.049 95.9964 157.175 96.0009 157.296 96.032C157.728 96.1874 158.124 96.427 158.463 96.7371C158.801 97.0471 159.075 97.4214 159.267 97.838C159.53 98.3786 159.667 98.9719 159.667 99.573C159.667 100.174 159.53 100.767 159.267 101.308C158.485 103.148 157.713 104.993 156.95 106.841C156.928 106.894 156.889 106.939 156.841 106.969C156.792 107 156.734 107.014 156.677 107.011ZM155.933 101.433L156.774 105.745C157.211 104.694 157.972 102.848 158.733 101.081C158.957 100.614 159.073 100.103 159.073 99.5845C159.073 99.0665 158.957 98.555 158.733 98.088C158.419 97.3934 157.844 96.8505 157.132 96.577C157.09 96.5644 157.045 96.562 157.001 96.57C156.958 96.578 156.917 96.5962 156.882 96.623C156.501 96.889 156.257 97.923 156.194 98.513L155.933 101.433ZM266.727 255.918H28.65C28.5941 255.917 28.5395 255.9 28.4932 255.869C28.4469 255.838 28.4109 255.793 28.3895 255.742C28.3682 255.69 28.3626 255.633 28.3733 255.578C28.3841 255.523 28.4107 255.473 28.45 255.433C28.5031 255.38 28.575 255.35 28.65 255.35H266.727C266.802 255.35 266.874 255.38 266.928 255.433C266.981 255.487 267.011 255.559 267.011 255.634C267.01 255.709 266.979 255.78 266.926 255.833C266.873 255.886 266.802 255.917 266.727 255.918Z" fill="#263238"/>
</svg>
