<svg width="371" height="371" viewBox="0 0 371 371" fill="none" xmlns="http://www.w3.org/2000/svg">
<path d="M344.659 96.876C343.476 94.8884 342.239 92.9337 340.949 91.014C323.757 65.526 294.159 48.096 265.042 40.216C252.268 36.8179 239.145 34.9033 225.932 34.51C139.4 31.58 104.934 99.806 76.337 117.37C47.74 134.933 3.71 165.036 6.678 228.098C9.646 291.161 55.071 350.528 143.065 354.238C231.059 357.948 236.928 318.318 286.056 303.626C318.57 293.921 341.706 261.139 352.984 230.844C368.403 189.559 367.676 135.935 344.659 96.876Z" fill="#4CAF4F"/>
<path opacity="0.7" d="M344.659 96.876C343.476 94.8884 342.239 92.9337 340.949 91.014C323.757 65.526 294.159 48.096 265.042 40.216C252.268 36.8179 239.145 34.9033 225.932 34.51C139.4 31.58 104.934 99.806 76.337 117.37C47.74 134.933 3.71 165.036 6.678 228.098C9.646 291.161 55.071 350.528 143.065 354.238C231.059 357.948 236.928 318.318 286.056 303.626C318.57 293.921 341.706 261.139 352.984 230.844C368.403 189.559 367.676 135.935 344.659 96.876Z" fill="white"/>
<path opacity="0.2" d="M342.804 200.362H311.64V212.976H342.804V200.362ZM241.432 98.523H210.268V111.137H241.432V98.523ZM222.236 117.585H191.072V130.199H222.236V117.585ZM243.346 33.85H212.182V46.464H243.346V33.85ZM218.148 186.828H186.984V199.442H218.148V186.828ZM156.71 74.193H125.546V86.807H156.71V74.193ZM190.842 74.193H159.678V86.807H190.842V74.193ZM164.724 280.105H133.56V292.719H164.724V280.105ZM148.4 295.687H117.236V308.301H148.4V295.687Z" fill="black"/>
<path opacity="0.1" d="M205.17 135.022H174.006V147.636H205.17V135.022ZM159.07 42.813H127.906V55.427H159.07V42.813ZM360.612 230.606H329.448V243.22H360.612V230.606ZM178.08 249.898H146.916V262.512H178.08V249.898ZM213.696 249.898H182.532V262.512H213.696V249.898ZM216.664 232.09H185.5V244.704H216.664V232.09ZM240.786 135.022H209.622V147.636H240.786V135.022Z" fill="black"/>
<path opacity="0.2" d="M256.732 294.418H225.568V307.032H256.732V294.418Z" fill="black"/>
<path opacity="0.1" d="M239.666 311.855H208.502V324.469H239.666V311.855ZM275.282 311.855H244.118V324.469H275.282V311.855Z" fill="black"/>
<path opacity="0.2" d="M105.653 137.418H74.489V150.032H105.653V137.418Z" fill="black"/>
<path opacity="0.1" d="M88.587 154.855H57.423V167.469H88.587V154.855ZM124.203 154.855H93.039V167.469H124.203V154.855Z" fill="black"/>
<path opacity="0.2" d="M93.492 231.348H62.328V243.962H93.492V231.348Z" fill="black"/>
<path opacity="0.1" d="M231.504 171.031H200.34V183.645H231.504V171.031ZM184.758 294.945H153.594V307.559H184.758V294.945ZM174.518 58.61H143.354V71.225H174.518V58.61Z" fill="black"/>
<path opacity="0.2" d="M75.684 189.581H44.52V202.195H75.684V189.581Z" fill="black"/>
<path opacity="0.1" d="M93.492 173.999H62.328V186.613H93.492V173.999ZM172.886 98.16H141.722V110.773H172.886V98.159V98.16ZM127.453 105.564H96.289V118.178H127.453V105.564Z" fill="black"/>
<path opacity="0.2" d="M281.218 200.362H250.054V212.976H281.218V200.362ZM53.817 270.133H22.653V282.747H53.817V270.133Z" fill="black"/>
<path opacity="0.1" d="M40.357 92.898H9.193V105.512H40.357V92.898ZM75.973 92.898H44.81V105.512H75.974L75.973 92.898ZM78.941 75.09H47.777V87.704H78.941V75.09ZM55.65 125.769H24.486V138.383H55.65V125.769Z" fill="black"/>
<path opacity="0.2" d="M96.111 283.118H64.947V295.732H96.111V283.118Z" fill="black"/>
<path d="M348.695 320.974H342.366V340.252H348.695V320.974ZM291.153 320.974H284.824V340.252H291.153V320.974ZM285.781 206.662H346.514C346.978 206.662 347.437 206.753 347.866 206.93C348.295 207.108 348.684 207.368 349.012 207.696C349.34 208.024 349.6 208.413 349.778 208.842C349.955 209.271 350.046 209.73 350.046 210.194V212.553H282.242V210.194C282.242 209.73 282.334 209.27 282.512 208.841C282.69 208.412 282.951 208.022 283.279 207.694C283.608 207.366 283.998 207.106 284.427 206.929C284.857 206.752 285.317 206.661 285.781 206.662Z" fill="#263238" stroke="#263238" stroke-miterlimit="10" stroke-linecap="round"/>
<path d="M289.936 212.331H343.182V338.174C343.181 338.874 342.903 339.546 342.408 340.041C341.913 340.536 341.241 340.814 340.541 340.815H292.578C291.878 340.815 291.206 340.536 290.71 340.041C290.215 339.546 289.937 338.874 289.936 338.174V212.331Z" fill="#4CAF4F" stroke="#263238" stroke-miterlimit="10" stroke-linecap="round"/>
<path d="M306.082 280.29H327.022V338.166C327.022 338.867 326.744 339.539 326.248 340.034C325.753 340.53 325.081 340.808 324.38 340.808H308.724C308.023 340.808 307.351 340.53 306.856 340.034C306.36 339.539 306.082 338.867 306.082 338.166V280.29ZM349.282 266.46L343.294 274.918H289.899L283.837 266.46V212.331H349.282V266.46Z" fill="#4CAF4F" stroke="#263238" stroke-miterlimit="10" stroke-linecap="round"/>
<path d="M307.693 252.955C307.326 252.975 306.963 252.879 306.654 252.681C306.393 252.482 306.201 252.207 306.105 251.894C305.985 251.502 305.927 251.094 305.934 250.685V248.459C305.928 248.045 305.983 247.632 306.097 247.234C306.196 246.914 306.4 246.637 306.676 246.448C307.019 246.246 307.414 246.15 307.811 246.173C308.186 246.155 308.56 246.234 308.895 246.403C309.153 246.551 309.354 246.781 309.466 247.056C309.593 247.39 309.653 247.746 309.644 248.103V248.444H308.494V248.065C308.496 247.884 308.481 247.703 308.449 247.524C308.431 247.389 308.365 247.266 308.264 247.175C308.14 247.084 307.987 247.041 307.834 247.056C307.749 247.048 307.664 247.058 307.584 247.085C307.503 247.112 307.429 247.155 307.366 247.212C307.27 247.329 307.209 247.47 307.188 247.62C307.164 247.805 307.151 247.991 307.151 248.177V250.944C307.15 251.144 307.17 251.343 307.21 251.538C307.237 251.687 307.313 251.823 307.425 251.924C307.55 252.02 307.706 252.068 307.863 252.057C307.943 252.065 308.024 252.055 308.101 252.03C308.178 252.004 308.248 251.963 308.308 251.909C308.421 251.798 308.499 251.656 308.531 251.501C308.572 251.298 308.592 251.092 308.59 250.885V250.262H307.848V249.52H309.644V252.874H308.902L308.813 252.221C308.728 252.431 308.59 252.615 308.412 252.755C308.202 252.902 307.948 252.973 307.693 252.955ZM310.594 252.866V246.255H311.803V252.035H313.406V252.866H310.594ZM313.695 252.866L315.024 246.255H316.315L317.635 252.866H316.515L316.255 251.338H315.105L314.831 252.866H313.695ZM315.224 250.573H316.092L315.647 247.798L315.224 250.573ZM319.928 252.955C319.582 252.97 319.238 252.89 318.934 252.725C318.664 252.567 318.451 252.329 318.325 252.043C318.179 251.692 318.101 251.317 318.095 250.937L319.134 250.737C319.14 250.965 319.173 251.191 319.231 251.412C319.265 251.582 319.347 251.739 319.468 251.864C319.521 251.92 319.586 251.963 319.658 251.991C319.73 252.02 319.807 252.032 319.884 252.028C319.963 252.036 320.042 252.023 320.114 251.992C320.187 251.961 320.25 251.912 320.299 251.85C320.388 251.719 320.432 251.562 320.425 251.404C320.442 251.141 320.372 250.88 320.225 250.662C320.074 250.459 319.9 250.275 319.706 250.113L318.874 249.371C318.65 249.179 318.46 248.951 318.311 248.696C318.166 248.412 318.094 248.095 318.103 247.776C318.089 247.553 318.122 247.33 318.202 247.122C318.281 246.913 318.404 246.724 318.563 246.567C318.908 246.27 319.355 246.118 319.809 246.144C320.076 246.138 320.341 246.186 320.589 246.285C320.785 246.372 320.954 246.51 321.078 246.685C321.206 246.856 321.299 247.05 321.353 247.257C321.412 247.48 321.452 247.709 321.471 247.939L320.44 248.117C320.428 247.933 320.406 247.75 320.373 247.568C320.349 247.423 320.282 247.288 320.18 247.182C320.127 247.141 320.066 247.112 320.001 247.095C319.936 247.079 319.868 247.076 319.802 247.086C319.724 247.081 319.645 247.094 319.573 247.125C319.5 247.156 319.436 247.204 319.386 247.264C319.294 247.392 319.245 247.545 319.245 247.702C319.237 247.895 319.286 248.086 319.386 248.251C319.498 248.418 319.633 248.567 319.787 248.696L320.611 249.438C320.883 249.667 321.119 249.938 321.308 250.24C321.508 250.576 321.608 250.962 321.598 251.353C321.605 251.648 321.533 251.94 321.39 252.198C321.25 252.436 321.051 252.633 320.811 252.77C320.538 252.909 320.234 252.973 319.928 252.955ZM323.89 252.955C323.544 252.968 323.201 252.889 322.896 252.725C322.629 252.566 322.419 252.328 322.295 252.043C322.144 251.694 322.066 251.317 322.065 250.937L323.104 250.737C323.108 250.964 323.137 251.191 323.193 251.412C323.23 251.581 323.312 251.737 323.43 251.864C323.485 251.92 323.551 251.964 323.624 251.992C323.697 252.02 323.775 252.033 323.853 252.028C323.932 252.036 324.011 252.023 324.084 251.992C324.157 251.961 324.22 251.912 324.269 251.85C324.355 251.718 324.396 251.561 324.388 251.404C324.407 251.142 324.339 250.881 324.195 250.662C324.042 250.461 323.868 250.277 323.675 250.113L322.837 249.371C322.617 249.177 322.429 248.949 322.28 248.696C322.132 248.413 322.06 248.096 322.073 247.776C322.058 247.553 322.091 247.33 322.17 247.121C322.25 246.912 322.373 246.723 322.533 246.567C322.878 246.27 323.325 246.118 323.779 246.144C324.033 246.141 324.286 246.189 324.521 246.285C324.718 246.374 324.889 246.512 325.018 246.685C325.143 246.858 325.236 247.051 325.293 247.257C325.353 247.48 325.391 247.709 325.404 247.939L324.38 248.117C324.369 247.932 324.345 247.749 324.306 247.568C324.283 247.424 324.219 247.29 324.12 247.182C324.068 247.132 324.006 247.094 323.938 247.07C323.871 247.045 323.799 247.036 323.727 247.041C323.649 247.036 323.57 247.05 323.498 247.081C323.426 247.112 323.362 247.16 323.312 247.22C323.214 247.344 323.164 247.499 323.171 247.657C323.164 247.849 323.21 248.039 323.304 248.206C323.42 248.37 323.555 248.519 323.705 248.652L324.536 249.394C324.805 249.627 325.039 249.897 325.233 250.195C325.433 250.531 325.533 250.917 325.523 251.308C325.526 251.603 325.455 251.894 325.315 252.154C325.174 252.393 324.972 252.591 324.729 252.725C324.474 252.873 324.185 252.952 323.89 252.955Z" fill="#263238"/>
<path d="M324.306 264.189C323.371 265.673 322.444 267.209 321.501 268.715C321.383 268.92 321.21 269.089 321.002 269.202C320.793 269.314 320.558 269.367 320.321 269.353H318.459V270.696H318.37L317.88 269.858C317.465 269.116 317.049 268.374 316.641 267.677C316.595 267.565 316.595 267.44 316.641 267.328C317.212 266.237 317.806 265.154 318.437 263.981V265.636H321.123L319.03 261.978L322.436 260.012L324.336 263.469L324.306 264.189ZM314.244 255.189C314.393 255.189 314.541 255.248 314.69 255.255L318.659 255.307C318.92 255.29 319.181 255.352 319.407 255.484C319.633 255.616 319.815 255.813 319.928 256.049C320.203 256.569 320.522 257.066 320.833 257.593L322.028 256.91L322.073 256.955L321.182 258.58C320.922 259.054 320.663 259.537 320.396 260.004C320.344 260.093 320.232 260.205 320.143 260.205C318.908 260.285 317.671 260.325 316.433 260.323L317.762 259.537C317.292 258.769 316.837 257.992 316.396 257.207C315.654 258.476 315.001 259.7 314.319 260.917L310.898 259.04L311.395 258.127C311.699 257.57 312.033 257.029 312.315 256.457C312.442 256.16 312.631 255.893 312.869 255.675C313.107 255.456 313.388 255.291 313.695 255.189H314.244ZM309.459 261.429L308.264 260.687V260.62H309.592C310.193 260.62 310.794 260.657 311.395 260.62C311.583 260.589 311.776 260.621 311.943 260.713C312.109 260.805 312.241 260.95 312.315 261.125C312.864 262.082 313.465 263.017 314.007 264.004L312.642 263.187L311.291 265.532H315.498V269.457H312.248C311.904 269.469 311.564 269.379 311.27 269.2C310.976 269.021 310.741 268.759 310.594 268.448C309.911 267.127 309.236 265.807 308.524 264.501C308.372 264.263 308.294 263.984 308.301 263.701C308.307 263.419 308.398 263.144 308.561 262.913C308.88 262.453 309.147 261.926 309.459 261.429Z" fill="white"/>
<path d="M338.256 243.272H294.856L291.027 212.331H342.084L338.256 243.272Z" stroke="#263238" stroke-miterlimit="10" stroke-linecap="round"/>
<path d="M353.051 212.331H280.068V219.209H353.051V212.331Z" fill="#4CAF4F" stroke="#263238" stroke-miterlimit="10" stroke-linecap="round"/>
<path d="M298.848 242.909V230.346M307.322 242.909V228.009M315.795 242.909V223.335M324.276 242.909V228.009M332.75 242.909V230.346" stroke="#263238" stroke-miterlimit="10" stroke-linecap="round"/>
<path d="M268.203 320.974H261.874V340.252H268.203V320.974ZM210.661 320.974H204.332V340.252H210.661V320.974ZM205.289 206.662H266.044C266.983 206.662 267.883 207.035 268.546 207.699C269.21 208.362 269.583 209.262 269.583 210.201V212.561H201.75V210.201C201.75 209.736 201.841 209.276 202.019 208.847C202.197 208.417 202.458 208.027 202.786 207.698C203.115 207.37 203.505 207.109 203.935 206.931C204.364 206.753 204.824 206.662 205.289 206.662Z" fill="#263238" stroke="#263238" stroke-miterlimit="10" stroke-linecap="round"/>
<path d="M209.444 212.331H262.668V338.174C262.668 338.521 262.6 338.865 262.467 339.185C262.334 339.506 262.14 339.797 261.894 340.042C261.649 340.287 261.358 340.482 261.037 340.615C260.717 340.747 260.373 340.815 260.026 340.815H212.086C211.739 340.815 211.396 340.747 211.075 340.614C210.754 340.482 210.463 340.287 210.218 340.042C209.973 339.797 209.778 339.505 209.645 339.185C209.512 338.864 209.444 338.521 209.444 338.174V212.331Z" fill="#4CAF4F" stroke="#263238" stroke-miterlimit="10" stroke-linecap="round"/>
<path d="M225.568 280.29H246.507V338.166C246.507 338.513 246.439 338.856 246.306 339.177C246.174 339.498 245.979 339.789 245.734 340.034C245.489 340.279 245.197 340.474 244.877 340.607C244.556 340.74 244.213 340.808 243.866 340.808H228.232C227.885 340.808 227.541 340.74 227.221 340.607C226.9 340.474 226.609 340.28 226.364 340.034C225.869 339.539 225.59 338.867 225.59 338.166V280.29H225.568ZM268.79 266.46L262.809 274.918H209.415L203.345 266.46V212.331H268.79V266.46Z" fill="#4CAF4F" stroke="#263238" stroke-miterlimit="10" stroke-linecap="round"/>
<path d="M223.253 252.28V245.669H225.197C225.533 245.654 225.866 245.731 226.162 245.891C226.409 246.039 226.602 246.263 226.711 246.529C226.834 246.854 226.892 247.199 226.881 247.546C226.896 247.905 226.822 248.262 226.666 248.585C226.529 248.84 226.313 249.043 226.05 249.164C225.754 249.288 225.436 249.349 225.115 249.342H224.462V252.31L223.253 252.28ZM224.462 248.496H224.915C225.091 248.506 225.267 248.473 225.427 248.399C225.489 248.37 225.543 248.327 225.586 248.275C225.63 248.222 225.662 248.161 225.679 248.095C225.733 247.915 225.758 247.727 225.753 247.539C225.756 247.342 225.737 247.145 225.694 246.952C225.681 246.885 225.655 246.822 225.617 246.766C225.579 246.71 225.529 246.662 225.472 246.626C225.299 246.543 225.107 246.507 224.915 246.522H224.462V248.496ZM227.519 252.28V245.669H228.729V251.449H230.332V252.28H227.519ZM230.621 252.28L231.942 245.669H233.233L234.554 252.28H233.441L233.174 250.751H232.023L231.756 252.28H230.621ZM232.15 249.987H233.047L232.595 247.212L232.15 249.987ZM236.854 252.347C236.505 252.361 236.16 252.281 235.852 252.117C235.585 251.958 235.375 251.719 235.251 251.434C235.105 251.086 235.027 250.713 235.021 250.336L236.06 250.128C236.063 250.356 236.093 250.583 236.149 250.803C236.186 250.973 236.268 251.129 236.386 251.256C236.441 251.311 236.508 251.354 236.58 251.382C236.653 251.41 236.731 251.422 236.809 251.419C236.888 251.427 236.967 251.415 237.04 251.383C237.113 251.352 237.176 251.303 237.225 251.241C237.313 251.11 237.357 250.954 237.351 250.796C237.363 250.546 237.292 250.298 237.151 250.091C237.002 249.884 236.828 249.697 236.631 249.535L235.8 248.793C235.574 248.602 235.383 248.374 235.236 248.117C235.091 247.832 235.02 247.516 235.028 247.197C235.015 246.974 235.05 246.752 235.129 246.543C235.209 246.335 235.331 246.146 235.489 245.988C235.834 245.691 236.281 245.539 236.735 245.565C237.002 245.557 237.268 245.608 237.514 245.713C237.712 245.795 237.882 245.931 238.004 246.107C238.13 246.278 238.224 246.472 238.278 246.678C238.339 246.901 238.376 247.13 238.39 247.361L237.366 247.539C237.354 247.354 237.33 247.171 237.292 246.99C237.269 246.846 237.204 246.712 237.106 246.604C237.053 246.555 236.991 246.518 236.924 246.493C236.856 246.469 236.785 246.459 236.713 246.463C236.635 246.458 236.556 246.471 236.484 246.502C236.411 246.533 236.347 246.581 236.297 246.641C236.199 246.765 236.149 246.921 236.156 247.079C236.147 247.272 236.196 247.463 236.297 247.628C236.409 247.794 236.544 247.944 236.698 248.073L237.522 248.815C237.792 249.046 238.027 249.316 238.219 249.616C238.419 249.952 238.519 250.338 238.508 250.729C238.512 251.024 238.44 251.315 238.301 251.575C238.163 251.814 237.963 252.012 237.722 252.146C237.455 252.287 237.156 252.356 236.854 252.347ZM239.881 252.28V246.559H238.828V245.669H242.122V246.559H241.083V252.28H239.881ZM242.76 252.28V245.669H243.947V252.28H242.76ZM246.752 252.347C246.351 252.368 245.954 252.27 245.609 252.065C245.344 251.886 245.143 251.625 245.038 251.323C244.923 250.953 244.868 250.567 244.875 250.18V247.821C244.866 247.424 244.921 247.028 245.038 246.648C245.135 246.341 245.337 246.078 245.609 245.906C245.954 245.703 246.352 245.608 246.752 245.632C247.123 245.613 247.493 245.695 247.821 245.869C248.077 246.018 248.273 246.252 248.377 246.53C248.489 246.854 248.545 247.195 248.54 247.539V248.088H247.375V247.012C247.36 246.878 247.306 246.752 247.22 246.648C247.159 246.598 247.089 246.56 247.014 246.538C246.939 246.515 246.86 246.507 246.782 246.515C246.701 246.507 246.619 246.516 246.541 246.54C246.464 246.564 246.391 246.604 246.329 246.656C246.229 246.762 246.164 246.896 246.144 247.041C246.115 247.221 246.103 247.402 246.107 247.583V250.455C246.101 250.654 246.119 250.853 246.159 251.048C246.186 251.185 246.259 251.308 246.366 251.397C246.487 251.483 246.634 251.525 246.782 251.516C246.86 251.524 246.938 251.515 247.012 251.491C247.086 251.466 247.154 251.427 247.212 251.375C247.299 251.266 247.353 251.135 247.368 250.996C247.38 250.818 247.38 250.64 247.368 250.462V249.869H248.57V250.403C248.575 250.755 248.523 251.106 248.414 251.442C248.324 251.743 248.133 252.005 247.873 252.184C247.523 252.346 247.134 252.403 246.752 252.347Z" fill="#263238"/>
<path d="M243.606 264.189L240.801 268.715C240.683 268.92 240.51 269.089 240.302 269.202C240.093 269.314 239.858 269.367 239.621 269.353H237.759V270.696H237.67L237.18 269.858C236.765 269.116 236.349 268.374 235.941 267.677C235.895 267.565 235.895 267.44 235.941 267.328C236.512 266.237 237.106 265.154 237.729 263.981V265.636H240.408L238.316 261.978L241.721 260.012L243.621 263.469L243.606 264.189ZM233.537 255.189C233.693 255.189 233.841 255.248 233.99 255.255L237.959 255.307C238.22 255.291 238.48 255.354 238.706 255.486C238.932 255.618 239.113 255.814 239.228 256.049C239.503 256.569 239.814 257.066 240.133 257.593L241.328 256.91L241.373 256.955L240.482 258.58C240.222 259.054 239.963 259.537 239.688 260.004C239.636 260.093 239.532 260.205 239.443 260.205C238.208 260.285 236.971 260.325 235.733 260.323L237.069 259.537C236.6 258.767 236.142 257.99 235.696 257.207C235.009 258.445 234.319 259.682 233.626 260.917L230.198 259.025L230.703 258.112C231.007 257.556 231.341 257.014 231.615 256.443C231.745 256.146 231.936 255.88 232.175 255.662C232.414 255.443 232.696 255.277 233.003 255.174L233.537 255.189ZM228.759 261.429L227.557 260.687V260.62H228.877C229.486 260.62 230.087 260.657 230.688 260.62C230.876 260.589 231.069 260.621 231.236 260.713C231.402 260.805 231.534 260.95 231.608 261.125C232.15 262.082 232.751 263.017 233.292 264.004L231.934 263.187L230.576 265.532H234.791V269.457H231.541C231.197 269.469 230.856 269.38 230.562 269.201C230.268 269.022 230.033 268.76 229.886 268.448C229.208 267.126 228.518 265.81 227.816 264.501C227.662 264.263 227.583 263.985 227.59 263.701C227.596 263.418 227.688 263.143 227.853 262.913C228.18 262.453 228.447 261.926 228.759 261.429Z" fill="white"/>
<path d="M257.763 243.272H214.364L210.535 212.331H261.592L257.763 243.272Z" stroke="#263238" stroke-miterlimit="10" stroke-linecap="round"/>
<path d="M272.559 212.331H199.576V219.209H272.559V212.331Z" fill="#4CAF4F" stroke="#263238" stroke-miterlimit="10" stroke-linecap="round"/>
<path d="M218.356 242.909V230.346M226.829 242.909V228.009M235.31 242.909V223.335M243.784 242.909V228.009M252.258 242.909V230.346" stroke="#263238" stroke-miterlimit="10" stroke-linecap="round"/>
<path d="M188.794 211.885H124.107C124.107 211.885 120.115 148.43 124.107 143.903C131.809 135.17 182.495 136.751 188.794 143.903C193.209 148.905 188.794 211.885 188.794 211.885Z" fill="#263238" stroke="#263238" stroke-miterlimit="10" stroke-linecap="round"/>
<path d="M169.888 153.045H143.206C137.235 153.045 132.395 157.885 132.395 163.856V191.814C132.395 197.785 137.235 202.625 143.206 202.625H169.888C175.859 202.625 180.699 197.785 180.699 191.814V163.856C180.699 157.885 175.859 153.045 169.888 153.045Z" fill="#263238" stroke="white" stroke-miterlimit="10" stroke-linecap="round"/>
<path d="M188.208 320.974H181.879V340.252H188.208V320.974ZM130.666 320.974H124.337V340.252H130.666V320.974Z" fill="#263238" stroke="#263238" stroke-miterlimit="10" stroke-linecap="round"/>
<path d="M129.449 212.331H182.695V338.174C182.695 338.521 182.627 338.864 182.495 339.185C182.362 339.506 182.167 339.797 181.922 340.042C181.677 340.287 181.386 340.482 181.065 340.615C180.744 340.747 180.401 340.815 180.054 340.815H132.076C131.376 340.815 130.704 340.536 130.208 340.041C129.713 339.546 129.435 338.874 129.434 338.174V212.331H129.449Z" fill="#4CAF4F" stroke="#263238" stroke-miterlimit="10" stroke-linecap="round"/>
<path d="M145.603 280.29H166.542V338.166C166.542 338.867 166.264 339.539 165.768 340.034C165.523 340.28 165.232 340.474 164.911 340.607C164.591 340.74 164.247 340.808 163.9 340.808H148.244C147.543 340.808 146.872 340.529 146.376 340.034C145.881 339.538 145.603 338.867 145.603 338.166V280.29ZM188.794 266.46L182.814 274.918H129.42L123.35 266.46V212.331H188.794V266.46Z" fill="#4CAF4F" stroke="#263238" stroke-miterlimit="10" stroke-linecap="round"/>
<path d="M146.322 252.28V245.669H148.259C148.597 245.654 148.933 245.731 149.231 245.891C149.478 246.037 149.669 246.262 149.773 246.529C149.899 246.853 149.959 247.199 149.951 247.546C149.967 247.906 149.891 248.263 149.728 248.585C149.596 248.843 149.378 249.047 149.112 249.164C148.817 249.29 148.498 249.35 148.177 249.342H147.524V252.31L146.322 252.28ZM147.524 248.496H147.984C148.16 248.505 148.336 248.472 148.496 248.399C148.557 248.369 148.611 248.326 148.655 248.274C148.698 248.221 148.73 248.161 148.749 248.095C148.799 247.914 148.822 247.726 148.816 247.539C148.82 247.342 148.803 247.145 148.764 246.952C148.75 246.885 148.723 246.821 148.683 246.765C148.644 246.709 148.593 246.661 148.534 246.626C148.364 246.542 148.173 246.506 147.984 246.522H147.524V248.496ZM149.936 252.28L151.257 245.669H152.548L153.869 252.28H152.748L152.488 250.751H151.368L151.071 252.28H149.936ZM151.464 249.987H152.362L151.91 247.212L151.464 249.987ZM154.499 252.28V245.669H156.443C156.779 245.654 157.112 245.731 157.408 245.891C157.655 246.039 157.848 246.263 157.957 246.529C158.077 246.855 158.135 247.199 158.128 247.546C158.142 247.905 158.069 248.262 157.912 248.585C157.776 248.84 157.56 249.043 157.297 249.164C157.001 249.288 156.683 249.349 156.362 249.342H155.709V252.31L154.499 252.28ZM155.709 248.496H156.161C156.337 248.505 156.513 248.472 156.673 248.399C156.734 248.368 156.787 248.325 156.831 248.273C156.874 248.221 156.907 248.16 156.926 248.095C156.976 247.914 156.999 247.726 156.992 247.539C156.997 247.342 156.98 247.145 156.94 246.952C156.927 246.884 156.9 246.82 156.861 246.764C156.821 246.708 156.77 246.661 156.71 246.626C156.54 246.542 156.35 246.506 156.161 246.522H155.709V248.496ZM158.788 252.28V245.669H161.563V246.522H159.975V248.422H161.207V249.26H159.975V251.486H161.556V252.28H158.788ZM162.261 252.28V245.669H163.841C164.226 245.658 164.61 245.714 164.976 245.832C165.267 245.922 165.515 246.115 165.674 246.374C165.854 246.692 165.939 247.055 165.919 247.42C165.921 247.669 165.896 247.918 165.844 248.162C165.801 248.359 165.715 248.544 165.592 248.704C165.467 248.863 165.3 248.984 165.11 249.052L166.03 252.31H164.82L164.019 249.282H163.47V252.28H162.261ZM163.47 248.496H163.841C164.034 248.503 164.227 248.467 164.405 248.392C164.541 248.324 164.647 248.207 164.702 248.065C164.767 247.879 164.797 247.684 164.791 247.487C164.81 247.226 164.745 246.966 164.605 246.745C164.518 246.65 164.409 246.577 164.288 246.533C164.166 246.489 164.036 246.475 163.908 246.492H163.47V248.496Z" fill="#263238"/>
<path d="M164.093 264.189L161.296 268.715C161.176 268.92 161.002 269.089 160.792 269.201C160.583 269.314 160.346 269.366 160.109 269.353H158.246V270.696H158.157L157.668 269.858C157.252 269.116 156.837 268.374 156.428 267.676C156.405 267.621 156.393 267.562 156.393 267.502C156.393 267.442 156.405 267.383 156.428 267.328C157 266.237 157.593 265.154 158.224 263.981V265.636H160.91L158.788 261.993L162.194 260.026L164.093 263.484V264.189ZM154.032 255.189C154.18 255.189 154.329 255.248 154.477 255.255L158.447 255.307C158.708 255.291 158.968 255.353 159.194 255.485C159.42 255.617 159.601 255.813 159.715 256.049C159.99 256.569 160.309 257.066 160.621 257.593L161.815 256.91L161.86 256.955L160.969 258.58C160.71 259.054 160.45 259.537 160.183 260.004C160.131 260.093 160.02 260.205 159.931 260.205C158.696 260.285 157.459 260.325 156.221 260.323L157.549 259.537C157.079 258.769 156.624 257.992 156.184 257.207C155.442 258.476 154.789 259.7 154.106 260.917L150.685 259.025L151.182 258.112C151.487 257.556 151.821 257.014 152.103 256.443C152.23 256.146 152.419 255.879 152.657 255.661C152.895 255.442 153.176 255.276 153.483 255.174L154.032 255.189ZM149.246 261.429L148.051 260.687V260.62H149.379C149.98 260.62 150.581 260.657 151.182 260.62C151.37 260.588 151.563 260.621 151.73 260.713C151.897 260.804 152.029 260.95 152.103 261.125C152.652 262.082 153.253 263.017 153.794 264.004L152.429 263.187L151.079 265.532H155.286V269.457H152.036C151.692 269.469 151.352 269.38 151.057 269.2C150.763 269.021 150.528 268.759 150.381 268.448C149.698 267.127 149.023 265.807 148.318 264.501C148.159 264.267 148.074 263.99 148.074 263.707C148.074 263.424 148.159 263.147 148.318 262.913C148.667 262.453 148.934 261.926 149.246 261.429Z" fill="white"/>
<path d="M177.776 243.272H134.369L130.54 212.331H181.604L177.776 243.272Z" stroke="#263238" stroke-miterlimit="10" stroke-linecap="round"/>
<path d="M192.564 212.331H119.581V219.209H192.564V212.331Z" fill="#4CAF4F" stroke="#263238" stroke-miterlimit="10" stroke-linecap="round"/>
<path d="M138.361 242.909V230.346M146.834 242.909V228.009M155.315 242.909V223.335M163.789 242.909V228.009M172.263 242.909V230.346M293.305 34.347L271.275 52.578M336.979 70.052L314.949 88.276M287.228 147.146L265.198 165.377M281.752 39.667L271.654 48.022M335.302 65.875L325.204 74.23M285.93 152.845L275.831 161.2M282.888 112.584L272.796 120.939M334.538 147.903L324.447 156.265M252.28 19.032V176.388H351.344V19.032H252.28ZM347.738 56.83H304.079V24.76H347.738V56.83ZM304.079 99.576H347.738V133.938H304.079V99.576ZM304.079 95.384V61.022H347.738V95.384H304.079ZM255.901 24.76H299.56V56.83H256.124V61.022H299.56V95.384H256.124V99.576H299.56V133.938H256.124V138.131H299.56V170.66H255.901V24.76ZM304.079 170.66V138.131H347.738V170.66H304.079Z" stroke="#263238" stroke-miterlimit="10" stroke-linecap="round"/>
<path d="M357.488 176.284H246.589V190.063H357.488V176.284Z" stroke="#263238" stroke-miterlimit="10" stroke-linecap="round"/>
<path d="M112.502 300.577C111.018 302.306 111.463 304.45 111.359 306.735C111.381 307.786 111.326 308.838 111.196 309.881C110.766 308.472 110.291 306.988 109.712 305.578C109.711 303.786 109.649 301.994 109.527 300.206C109.363 297.935 108.785 294.745 106.432 294.863C104.696 294.96 104.206 296.54 104.474 298.098C104.83 300.065 106.195 301.408 107.575 303.062C108.24 303.814 108.85 304.613 109.4 305.452C109.452 305.548 109.66 306.097 109.697 306.194V306.231C110.091 307.255 110.439 308.338 110.766 309.384C110.03 307.958 109.233 306.565 108.377 305.207C107.145 303.3 104.615 300.822 102.693 302.877C101.276 304.398 102.485 306.09 103.546 307.21C104.889 308.635 106.403 308.88 108.399 309.355C109.283 309.481 110.145 309.731 110.959 310.097C111.003 310.097 111.033 310.267 111.04 310.312C111.045 310.347 111.045 310.382 111.04 310.416H111.1C111.639 312.397 112.041 314.412 112.302 316.448C112.302 316.604 112.302 316.767 112.346 316.923C111.352 315.55 110.261 314.103 109.178 312.835C107.798 311.21 104.941 309.303 103.353 311.544C102.188 313.198 103.427 314.645 104.6 315.55C106.084 316.7 107.62 316.686 109.601 316.767C110.083 316.767 111.745 316.634 112.339 317.019V317.071L112.279 317.138H112.346C112.413 318.238 112.413 319.34 112.346 320.44C112.198 321.546 111.76 322.666 111.5 323.727C111.04 322.436 110.403 321.215 109.608 320.099C108.428 318.414 105.854 316.226 103.925 317.925C102.5 319.186 103.346 320.744 104.333 321.761C105.587 323.045 107.1 323.156 108.955 323.475C109.792 323.522 110.619 323.685 111.411 323.957C110.988 325.604 110.454 327.229 110.068 328.899C109.438 327.711 108.668 326.602 107.775 325.597C106.418 324.18 103.739 323.126 102.114 324.892C100.912 326.198 101.661 327.556 102.782 328.335C104.192 329.314 105.594 329.077 107.419 328.973C107.857 328.973 109.46 328.661 110.016 328.973C109.494 330.852 109.303 332.808 109.452 334.753C109.431 334.746 109.407 334.746 109.386 334.753H109.445C109.46 334.753 109.541 334.917 109.445 334.857C108.31 333.996 107.679 332.987 106.477 331.956C104.993 330.724 102.337 330.094 100.934 332.082C99.895 333.566 101.083 334.827 102.314 335.362C103.873 336.037 105.119 335.696 106.9 335.28C107.345 335.176 108.837 334.672 109.452 334.909C109.981 337.147 110.791 339.308 111.864 341.342L112.042 341.186C110.978 339.177 110.185 337.037 109.682 334.82C111.035 335.207 112.414 335.497 113.808 335.688C115.915 335.881 119.002 335.325 119.603 332.72C120.056 330.813 118.527 330.131 116.984 330.301C115.032 330.524 113.689 331.785 111.96 333.039C111.267 333.667 110.502 334.213 109.682 334.664C109.356 332.772 109.816 330.873 110.232 328.973C111.562 329.36 112.918 329.653 114.29 329.849C116.375 330.086 119.417 329.277 120.011 326.717C120.441 324.833 119.039 323.987 117.518 324.217C115.596 324.514 114.513 325.783 112.821 327.066C112.42 327.378 110.988 328.713 110.276 328.884C110.632 327.326 111.159 325.701 111.575 324.128C111.441 324.128 111.337 324.128 111.834 324.031C113.283 323.897 114.722 323.661 116.138 323.326C117.852 322.829 120.835 320.707 120.241 318.132C119.803 316.203 118.215 315.996 116.865 316.975C115.151 318.207 114.876 319.772 113.719 321.62C113.407 322.102 112.428 323.846 111.619 324.083C111.894 322.911 112.406 321.657 112.569 320.492C112.643 319.361 112.643 318.225 112.569 317.094C113.898 316.813 115.195 316.4 116.442 315.862C118.564 314.868 120.501 312.449 119.729 309.889C119.158 307.997 117.503 307.744 116.108 308.813C114.372 310.171 114.238 311.959 113.496 314.074C113.278 315.002 112.962 315.905 112.554 316.767C112.535 316.659 112.523 316.55 112.517 316.441C112.254 314.36 111.837 312.301 111.27 310.282C112.437 309.442 113.557 308.538 114.624 307.574C116.383 305.904 117.718 302.818 116.323 300.629C115.307 298.981 113.645 299.211 112.502 300.577ZM87.066 318.147C86.688 319.468 87.452 320.559 87.964 321.857C88.241 322.435 88.474 323.033 88.662 323.646C88.068 322.97 87.437 322.265 86.777 321.62C86.3287 320.608 85.8334 319.618 85.293 318.652C84.64 317.435 83.519 315.81 82.243 316.426C81.301 316.908 81.42 317.91 81.961 318.711C82.651 319.713 83.742 320.121 84.929 320.692C85.4865 320.944 86.0246 321.237 86.539 321.568C86.591 321.605 86.844 321.857 86.889 321.894C87.363 322.369 87.838 322.881 88.269 323.378C87.526 322.815 86.614 322.117 85.901 321.65C84.744 320.908 82.718 320.166 82.191 321.776C81.776 322.97 82.874 323.608 83.749 324.002C84.848 324.454 85.746 324.217 86.977 324.002C87.5038 323.856 88.0483 323.783 88.595 323.787C88.595 323.787 88.676 323.868 88.684 323.89C88.6891 323.912 88.6891 323.935 88.684 323.957C89.4759 324.924 90.2022 325.943 90.858 327.007L90.998 327.259C90.101 326.747 89.136 326.213 88.216 325.775C87.044 325.219 84.981 324.87 84.662 326.517C84.425 327.734 85.471 328.224 86.354 328.439C87.46 328.706 88.313 328.313 89.434 327.868C89.9224 327.585 90.4616 327.401 91.021 327.326V327.378H91.058C91.368 327.976 91.646 328.59 91.889 329.218C92.039 329.892 92.156 330.573 92.238 331.258C91.6581 330.655 90.9991 330.134 90.279 329.708C89.203 329.07 87.229 328.491 86.569 329.923C86.087 330.977 86.948 331.629 87.749 331.949C88.766 332.349 89.634 332.038 90.717 331.748C91.1933 331.565 91.6928 331.451 92.201 331.407C92.379 332.423 92.483 333.462 92.683 334.486C92.037 333.982 91.3318 333.558 90.583 333.225C89.485 332.772 87.727 332.854 87.267 334.241C86.925 335.265 87.675 335.837 88.491 335.992C89.522 336.185 90.242 335.703 91.229 335.191C91.466 335.065 92.29 334.508 92.713 334.538C92.8892 335.714 93.271 336.849 93.841 337.892C93.841 337.892 93.93 337.959 93.841 337.944C92.995 337.744 92.357 337.343 91.466 337.068C90.353 336.742 88.699 337.068 88.416 338.552C88.201 339.628 89.159 340.036 89.997 340.036C91.036 340.036 91.637 339.524 92.527 338.849C92.75 338.686 93.455 338.033 93.856 338.011C94.7166 339.121 95.7138 340.118 96.824 340.979L96.89 340.845C95.7957 339.989 94.8205 338.991 93.99 337.877C94.837 337.758 95.675 337.577 96.497 337.335C97.721 336.913 99.287 335.851 98.983 334.249C98.76 333.069 97.743 333.076 96.927 333.559C95.897 334.167 95.443 335.184 94.813 336.334C94.5857 336.861 94.2967 337.359 93.952 337.818C93.3731 336.799 92.9952 335.678 92.839 334.516C93.674 334.399 94.499 334.223 95.309 333.989C96.527 333.603 98.026 332.394 97.714 330.828C97.484 329.671 96.49 329.544 95.704 330.086C94.709 330.732 94.427 331.704 93.804 332.839C93.5615 333.429 93.2395 333.983 92.847 334.486C92.653 333.529 92.542 332.498 92.379 331.518C92.305 331.518 92.245 331.57 92.498 331.399C93.274 330.958 94.018 330.463 94.724 329.915C95.554 329.218 96.683 327.296 95.704 325.99C94.961 325.033 94.041 325.308 93.537 326.191C92.891 327.304 93.128 328.239 92.943 329.552C92.891 329.901 92.787 331.118 92.393 331.451C92.253 330.709 92.231 329.908 92.023 329.225C91.7839 328.577 91.4989 327.948 91.17 327.341C91.8386 326.854 92.4573 326.302 93.017 325.693C93.952 324.61 94.42 322.777 93.358 321.553C93.2215 321.358 93.0341 321.205 92.8164 321.109C92.5987 321.014 92.3589 320.98 92.1232 321.011C91.8875 321.043 91.665 321.138 91.4798 321.287C91.2946 321.436 91.1539 321.633 91.073 321.857C90.45 323.045 90.821 324.083 90.933 325.434C91.044 326.003 91.097 326.582 91.088 327.163C91.088 327.126 91.021 327.051 90.984 326.992C90.3147 325.903 89.5709 324.862 88.758 323.876C89.194 323.119 89.588 322.339 89.938 321.538C90.502 320.173 90.472 318.125 89.151 317.25C88.231 316.559 87.363 317.109 87.066 318.147Z" fill="#263238"/>
<path d="M84.714 113.778C84.714 113.778 85.746 117.295 85.3 118.913C84.8545 120.237 84.6045 121.62 84.558 123.016C84.558 124.5 87.526 127.861 85.879 129.182C84.9719 129.956 83.8406 130.419 82.651 130.503C82.0689 132.707 81.3249 134.864 80.425 136.958C79.253 139.451 79.253 139.889 77.635 139.889C76.018 139.889 73.569 138.754 73.569 138.754C73.569 138.754 70.49 143.703 70.342 147.079C70.2333 149.362 70.5347 151.647 71.232 153.824C71.67 155.59 81.947 173.049 81.798 176.129C81.65 179.208 79.743 181.412 79.446 182.732C79.149 184.053 76.663 219.09 76.812 222.34C76.96 225.59 76.07 240.534 76.07 240.534L67.997 241.417L43.927 239.065C43.927 239.065 41.879 238.627 40.557 226.013C39.237 213.399 44.372 206.202 46.865 202.974C49.358 199.746 51.413 193.877 51.413 193.877C48.149 184.857 46.8486 175.244 47.599 165.681C48.92 150.099 55.376 143.384 56.986 140.297C58.6079 137.215 59.7466 133.901 60.362 130.473C60.658 127.98 58.306 127.505 58.603 122.986C58.9 118.468 63.152 117.266 67.113 115.359C71.076 113.452 84.714 113.778 84.714 113.778Z" fill="white" stroke="#263238" stroke-miterlimit="10" stroke-linecap="round"/>
<path d="M76.062 240.534C76.062 240.534 76.938 225.568 76.804 222.34C76.73 220.856 77.227 212.583 77.806 203.976C67.478 203.553 54.737 200.807 49.016 199.464C48.4078 200.696 47.6903 201.871 46.872 202.974C44.379 206.202 39.244 213.362 40.565 226.013C41.885 238.664 43.934 239.065 43.934 239.065L67.997 241.417L76.062 240.534Z" fill="#9E9E9E" stroke="#263238" stroke-miterlimit="10" stroke-linecap="round"/>
<path d="M67.99 241.417L70.78 224.247M54.492 207.374C54.492 207.374 50.382 216.471 50.092 226.013C49.803 235.555 50.53 238.041 50.53 238.041" stroke="#263238" stroke-miterlimit="10" stroke-linecap="round"/>
<path d="M53.172 215.736C53.172 215.736 61.386 211.633 62.12 205.764" stroke="#263238" stroke-miterlimit="10" stroke-linecap="round"/>
<path d="M82.362 123.543C82.192 124.374 81.709 124.982 81.272 124.893C80.833 124.804 80.611 124.062 80.774 123.224C80.937 122.385 81.434 121.784 81.872 121.873C82.31 121.963 82.518 122.705 82.362 123.543Z" fill="#263238"/>
<path d="M80.025 120.204C80.4829 119.794 81.0686 119.555 81.6826 119.528C82.2965 119.501 82.9009 119.688 83.393 120.056M77.383 131.089C78.124 131.846 79.1107 132.315 80.166 132.41" stroke="#263238" stroke-miterlimit="10" stroke-linecap="round"/>
<path d="M56.548 109.816C56.548 109.816 51.116 104.971 48.475 104.385C45.833 103.798 42.019 107.174 41.144 111.137C40.268 115.099 42.464 119.64 46.279 120.671C50.092 121.703 51.851 120.375 53.172 118.765C54.492 117.154 56.548 109.816 56.548 109.816Z" fill="#263238" stroke="#263238" stroke-miterlimit="10" stroke-linecap="round"/>
<path d="M51.413 138.131C55.079 132.996 59.189 132.699 59.189 132.699C56.8253 134.922 54.887 137.557 53.469 140.475" stroke="#263238" stroke-miterlimit="10" stroke-linecap="round"/>
<path d="M73.57 138.754C73.57 138.754 69.607 136.995 68.138 135.786C67.1733 134.916 66.4628 133.8 66.082 132.558C66.082 132.558 66.52 137.552 67.567 139.607C68.5258 141.342 69.604 143.008 70.794 144.594L73.57 138.754Z" fill="#263238" stroke="#263238" stroke-miterlimit="10" stroke-linecap="round"/>
<path d="M73.22 157.89C72.568 158.365 71.447 158.432 69.607 157.645C64.472 155.419 63.003 152.065 58.477 147.962C56.317 146.003 54.552 145.877 53.283 146.278C50.968 150.381 48.386 156.503 47.607 165.711C46.8566 175.274 48.157 184.887 51.421 193.907C50.4763 196.544 49.2941 199.089 47.889 201.512C58.009 205.222 72.531 205.816 77.68 205.92C78.385 195.346 79.275 183.519 79.438 182.762C79.735 181.441 81.665 179.238 81.791 176.158C81.887 173.851 76.314 163.737 73.22 157.89Z" fill="#4CAF4F" stroke="#263238" stroke-miterlimit="10" stroke-linecap="round"/>
<path d="M66.669 123.172C66.669 123.172 69.896 123.172 71.069 121.117C72.241 119.061 72.249 118.186 74.593 117.451C76.938 116.717 78.11 118.475 83.69 114.958C89.27 111.441 89.997 108.354 88.973 107.182C87.949 106.01 78.407 99.844 68.138 101.016C57.868 102.188 52.556 113.927 52.556 120.679C52.556 127.431 55.784 131.972 59.16 132.707C62.536 133.441 63.998 126.548 64.294 126.103C64.591 125.658 66.669 123.172 66.669 123.172Z" fill="#263238" stroke="#263238" stroke-miterlimit="10" stroke-linecap="round"/>
<path d="M67.841 124.048C67.841 124.048 64.761 118.178 62.269 120.085C59.776 121.992 60.043 125.22 61.972 127.275C63.901 129.331 65.682 128.299 65.682 128.299" fill="white"/>
<path d="M67.841 124.048C67.841 124.048 64.761 118.178 62.269 120.085C59.776 121.992 60.043 125.22 61.972 127.275C63.901 129.331 65.682 128.299 65.682 128.299" stroke="#263238" stroke-miterlimit="10" stroke-linecap="round"/>
<path d="M113.875 173.554H91.985V202.744H113.875V173.554Z" fill="white" stroke="#263238" stroke-miterlimit="10" stroke-linecap="round"/>
<path d="M103.943 172.843L83.083 179.477L91.929 207.294L112.789 200.661L103.943 172.843Z" fill="#4CAF4F" stroke="#263238" stroke-miterlimit="10" stroke-linecap="round"/>
<path d="M102.213 175.343L81.353 181.976L90.199 209.793L111.058 203.16L102.213 175.343Z" fill="#4CAF4F" stroke="#263238" stroke-miterlimit="10" stroke-linecap="round"/>
<path d="M89.871 214.839L82.191 182.577L104.852 178.162L106.967 186.034L106.195 187.956L111.189 209.652L89.871 214.839Z" fill="white" stroke="#263238" stroke-miterlimit="10" stroke-linecap="round"/>
<path d="M87.185 216.953L79.505 184.691L102.166 180.276L104.273 188.149L103.509 190.071L108.503 211.767L87.185 216.953ZM107.345 194.679C107.345 194.679 108.087 187.57 110.232 184.112C112.376 180.655 116.568 177.969 116.568 177.969C116.568 177.969 121.94 179.119 125.784 181.619C128.047 183.078 130.112 184.824 131.928 186.813C131.928 186.813 121.747 190.457 119.64 194.686L107.345 194.679Z" fill="white" stroke="#263238" stroke-miterlimit="10" stroke-linecap="round"/>
<path d="M116.568 177.969C116.568 177.969 117.14 177.583 119.254 177.397C120.857 177.305 122.464 177.367 124.055 177.583C124.055 177.583 121.554 178.547 115.218 183.734C108.881 188.921 108.31 190.835 108.31 190.835C108.31 190.835 107.924 188.342 110.232 184.112C111.716 181.502 113.914 179.371 116.568 177.969Z" fill="white" stroke="#263238" stroke-miterlimit="10" stroke-linecap="round"/>
<path d="M117.525 182.384L123.862 185.841M115.032 185.27L119.447 187.763M111.767 188.535L115.032 190.256" stroke="#263238" stroke-miterlimit="10" stroke-linecap="round"/>
<path d="M78.036 193.12V229.53H121.688V193.12H78.036ZM108.71 200.014C108.71 200.84 108.382 201.633 107.797 202.217C107.213 202.802 106.42 203.13 105.594 203.13H94.115C93.7058 203.13 93.3006 203.05 92.9226 202.893C92.5445 202.736 92.201 202.507 91.9117 202.218C91.6224 201.928 91.393 201.585 91.2366 201.207C91.0801 200.828 90.9997 200.423 91 200.014C90.9997 199.605 91.0802 199.199 91.2366 198.821C91.3931 198.443 91.6226 198.099 91.912 197.81C92.2014 197.52 92.545 197.291 92.9232 197.134C93.3014 196.977 93.7067 196.897 94.116 196.897H105.595C106.004 196.897 106.41 196.977 106.788 197.134C107.166 197.291 107.51 197.52 107.799 197.81C108.088 198.099 108.318 198.443 108.474 198.821C108.631 199.199 108.71 199.605 108.71 200.014Z" fill="white" stroke="#263238" stroke-miterlimit="10" stroke-linecap="round"/>
<path d="M50.092 182.436C50.092 182.436 52.437 205.326 54.203 205.764C55.969 206.202 60.362 205.616 60.362 205.616C60.362 205.616 88.239 197.988 88.825 197.988C89.411 197.988 92.639 200.214 93.96 200.481C94.9688 200.818 96.0671 200.765 97.039 200.333C97.5881 200.066 98.1869 199.917 98.797 199.895C98.797 199.895 100.704 201.067 101.587 200.481C102.47 199.895 102.76 199.895 102.611 198.997C102.18 197.731 101.642 196.505 101.001 195.331L100.118 193.425C101.172 193.794 102.25 194.089 103.346 194.308C103.932 194.308 105.987 193.425 105.401 192.401C104.815 191.377 103.056 191.08 100.118 189.9C97.18 188.72 94.983 188.416 94.248 189.158C93.514 189.9 92.765 190.33 92.49 190.768C92.216 191.206 88.528 191.941 87.356 192.252C86.183 192.564 63.612 193.425 63.612 193.425L62.588 181.553L50.092 182.436Z" fill="white" stroke="#263238" stroke-miterlimit="10" stroke-linecap="round"/>
<path d="M53.61 150.626C53.61 150.626 50.092 151.657 48.92 156.354C47.748 161.051 46.865 169.525 47.013 172.144C47.161 174.763 48.037 181.389 48.037 181.389L63.619 180.506C63.619 180.506 63.033 160.554 63.033 160.992" fill="#4CAF4F"/>
<path d="M53.61 150.626C53.61 150.626 50.092 151.657 48.92 156.354C47.748 161.051 46.865 169.525 47.013 172.144C47.161 174.763 48.037 181.389 48.037 181.389L63.619 180.506C63.619 180.506 63.033 160.554 63.033 160.992" stroke="#263238" stroke-miterlimit="10" stroke-linecap="round"/>
<path d="M47.013 178.918L48.037 183.905L64.91 182.584L64.613 177.739L47.013 178.918ZM74.445 241.417C74.445 241.417 72.39 262.668 70.49 275.89C68.59 289.113 65.066 304.65 64.48 310.809C63.894 316.968 63.441 326.947 63.59 327.964C63.738 328.981 72.1 334.568 73.977 335.451C75.855 336.334 80.136 336.037 79.401 337.795C78.667 339.554 77.917 339.116 74.712 339.554C71.506 339.992 65.615 339.265 62.677 339.265C59.738 339.265 54.901 339.702 53.728 339.116C52.556 338.53 53.877 335.154 54.611 332.661C55.346 330.168 55.494 328.55 55.494 324.009C55.494 319.468 56.518 307.425 55.049 295.813C53.579 284.201 55.791 271.898 56.08 270.288C56.37 268.678 58.618 262.831 58.618 262.104C58.618 261.377 59.204 241.12 59.204 241.12L74.445 241.417Z" fill="white" stroke="#263238" stroke-miterlimit="10" stroke-linecap="round"/>
<path d="M74.742 339.561C77.969 339.124 78.704 339.561 79.432 337.803C80.158 336.044 75.914 336.319 74.007 335.458C73.1684 335.03 72.3536 334.557 71.566 334.041L70.49 336.631C70.49 336.631 60.102 335.666 54.233 334.011C53.535 336.237 52.793 338.641 53.765 339.124C54.938 339.71 59.783 339.272 62.714 339.272C65.644 339.272 71.514 340.007 74.742 339.561Z" fill="#263238" stroke="#263238" stroke-miterlimit="10" stroke-linecap="round"/>
<path d="M68.286 238.479L78.407 237.455L78.555 243.176L67.7 243.762L68.286 238.479ZM42.902 238.627L44.958 274.54C44.958 274.54 38.502 284.809 35.564 291.413C33.59 295.865 30.236 304.88 26.764 311.662C25.2883 314.356 23.5695 316.909 21.629 319.29C20.309 320.166 17.815 321.049 15.909 322.073C14.001 323.096 12.94 323.838 13.267 326.183C13.593 328.528 18.55 333.403 20.034 337.514C20.776 339.584 21.518 340.444 24.724 340.593C27.929 340.741 31.038 341.335 30.741 339.71C30.444 338.085 27.951 335.896 27.365 334.427C26.779 332.958 27.075 330.324 27.365 327.096C27.677 323.675 27.662 323.571 28.107 322.837C28.552 322.102 47.911 299.093 52.593 289.833C57.275 280.572 58.165 277.797 58.759 276.039C59.353 274.28 65.942 242.003 65.942 242.003L42.902 238.627Z" fill="white" stroke="#263238" stroke-miterlimit="10" stroke-linecap="round"/>
<path d="M30.726 339.71C30.541 338.716 29.524 337.484 28.626 336.356C26.4 336.452 25.822 336.861 23.833 334.872C22.104 333.158 19.025 324.744 17.808 321.197C17.163 321.494 16.524 321.791 15.938 322.102C14.031 323.134 12.97 323.868 13.297 326.213C13.623 328.558 18.55 333.403 20.034 337.514C20.776 339.584 21.518 340.444 24.724 340.593C27.929 340.741 31.023 341.32 30.726 339.71Z" fill="#263238" stroke="#263238" stroke-miterlimit="10" stroke-linecap="round"/>
<path d="M40.847 234.376L41.73 240.534L67.7 243.762L68.286 238.479L40.847 234.376Z" fill="white" stroke="#263238" stroke-miterlimit="10" stroke-linecap="round"/>
<path d="M7.917 340.815H365.368" stroke="#263238" stroke-miterlimit="10" stroke-linecap="round"/>
</svg>
