<svg width="415" height="361" viewBox="0 0 415 361" fill="none" xmlns="http://www.w3.org/2000/svg">
<path d="M54.85 278.496C54.85 278.496 95.26 329.666 164.32 331.746C233.38 333.826 295.14 290.746 346.09 257.226C397.04 223.706 413.76 167.546 388.32 121.226C362.88 74.9062 316.72 90.7762 261.32 58.2262C205.92 25.6762 195.99 8.60618 131.68 11.5262C67.37 14.4462 14.22 83.1262 16.56 160.066C18.9 237.006 54.85 278.496 54.85 278.496Z" fill="#4CAF4F"/>
<path opacity="0.7" d="M54.85 278.496C54.85 278.496 95.26 329.666 164.32 331.746C233.38 333.826 295.14 290.746 346.09 257.226C397.04 223.706 413.76 167.546 388.32 121.226C362.88 74.9062 316.72 90.7762 261.32 58.2262C205.92 25.6762 195.99 8.60618 131.68 11.5262C67.37 14.4462 14.22 83.1262 16.56 160.066C18.9 237.006 54.85 278.496 54.85 278.496Z" fill="white"/>
<path d="M67.41 25.2862C67.35 25.2862 68.11 21.5562 68.18 21.2862C69.04 18.6162 72.28 13.9762 75.41 13.9862C75.9314 14.0009 76.4438 14.1254 76.9139 14.3515C77.3839 14.5776 77.8009 14.9004 78.1378 15.2986C78.4747 15.6968 78.7238 16.1616 78.869 16.6626C79.0141 17.1636 79.0519 17.6896 78.98 18.2062C78.75 20.4062 76.77 22.2862 74.98 23.3662C72.88 24.6762 67.41 25.2862 67.41 25.2862Z" fill="#4CAF4F"/>
<path d="M61.34 0.206187C64.34 1.26619 65.76 6.72619 65.66 9.52619C65.66 9.76619 65.1 13.5262 65.05 13.5262H64.99C65.22 14.3862 65.47 15.3162 65.72 16.3362C66.16 18.2162 66.64 20.3362 67.01 22.6962C67.439 25.2243 67.7195 27.7753 67.85 30.3362C68.0095 33.2058 67.9124 36.0839 67.56 38.9362C67.5553 38.9694 67.5553 39.003 67.56 39.0362C67.95 38.2062 69.11 35.9062 69.21 35.7462C70.75 33.4062 75.09 29.7462 78.12 30.6162C78.6175 30.7679 79.0774 31.0228 79.4697 31.3643C79.8621 31.7058 80.178 32.1261 80.3969 32.5979C80.6158 33.0697 80.7328 33.5824 80.7402 34.1025C80.7477 34.6225 80.6454 35.1383 80.44 35.6162C79.64 37.6762 77.24 38.9662 75.23 39.5362C72.96 40.1862 67.9 39.4262 67.5 39.3562C67.0723 42.2512 66.4509 45.1143 65.64 47.9262C65.1733 49.5662 64.6667 51.2029 64.12 52.8362C64.47 52.1262 64.8 51.4962 64.85 51.4162C66.39 49.0662 70.74 45.4162 73.76 46.2862C74.2575 46.4379 74.7174 46.6928 75.1097 47.0343C75.5021 47.3758 75.818 47.7961 76.0369 48.2679C76.2558 48.7397 76.3728 49.2524 76.3803 49.7725C76.3877 50.2925 76.2854 50.8083 76.08 51.2862C75.28 53.3462 72.88 54.6362 70.87 55.2062C68.86 55.7762 64.5 55.2062 63.36 55.0562L62.73 56.9362C61.73 59.9362 60.64 62.9362 59.73 65.8762C59.4 66.8762 59.11 67.9562 58.82 68.9962C59.14 68.3662 59.41 67.8362 59.46 67.7562C60.99 65.4162 65.34 61.7562 68.36 62.6262C68.8566 62.7795 69.3155 63.0352 69.7072 63.3768C70.0989 63.7184 70.4147 64.1382 70.6342 64.6093C70.8538 65.0804 70.9721 65.5922 70.9817 66.1118C70.9913 66.6314 70.892 67.1473 70.69 67.6262C69.89 69.6962 67.48 70.9762 65.47 71.5562C63.46 72.1362 59.53 71.6262 58.17 71.4362C57.9 72.5062 57.64 73.5762 57.43 74.6262C57.3 75.3562 57.13 76.0362 57.04 76.7662L56.74 78.9162C56.6 80.2862 56.44 81.6962 56.34 83.0362C56.26 83.9662 56.2 84.8562 56.14 85.7562C56.46 84.7562 57.14 82.6862 57.14 82.5262C58.2474 80.3261 59.8999 78.4464 61.94 77.0662C62.0487 76.8113 62.1863 76.5697 62.35 76.3462C62.6331 75.9093 63.0052 75.537 63.442 75.2538C63.8789 74.9705 64.3705 74.7827 64.8849 74.7024C65.3993 74.6222 65.9248 74.6515 66.4272 74.7882C66.9295 74.925 67.3973 75.1662 67.8 75.4962C70.18 77.5462 69.58 83.1662 68.49 85.7462C68.43 85.8962 67.54 87.4662 66.97 88.4562C67.4 87.9262 67.8 87.4062 68.25 86.8762C69.12 85.8062 70.02 84.7662 70.98 83.6462L72.45 82.0562C72.93 81.5162 73.51 81.0562 74.04 80.4662C75.29 79.2562 76.62 78.0862 77.99 76.9362C77.06 76.1762 73.78 73.4162 72.84 71.5362C71.9 69.6562 71.23 67.0262 72.21 65.0362C72.4255 64.5616 72.7384 64.1376 73.1283 63.7917C73.5182 63.4458 73.9764 63.1857 74.4733 63.0282C74.9702 62.8708 75.4946 62.8195 76.0126 62.8777C76.5305 62.9359 77.0305 63.1024 77.48 63.3662C80.13 65.0362 80.4 70.6862 79.71 73.3662C79.71 73.5362 78.95 75.4262 78.54 76.4562C79.37 75.7762 80.19 75.0962 81.05 74.4562C83.53 72.5462 86.1 70.6762 88.65 68.8062L90.98 67.0862C90.65 66.8162 86.69 63.6162 85.63 61.5062C84.7 59.6362 84.02 56.9962 85 55.0162C85.2143 54.5405 85.5265 54.1154 85.9162 53.7686C86.306 53.4218 86.7645 53.1611 87.2618 53.0035C87.7591 52.8459 88.2841 52.795 88.8024 52.854C89.3208 52.9131 89.8209 53.0808 90.27 53.3462C92.93 55.0062 93.19 60.6562 92.5 63.3462C92.45 63.5462 91.42 66.2662 91.13 66.9462C92.83 65.6762 94.52 64.3962 96.13 63.0562C98.3206 61.2704 100.392 59.343 102.33 57.2862C102.18 57.1562 98.03 53.8362 96.95 51.6862C96.01 49.8162 95.34 47.1662 96.32 45.1862C96.5345 44.7119 96.8463 44.2881 97.2353 43.9423C97.6243 43.5964 98.0817 43.3363 98.5778 43.1788C99.0739 43.0213 99.5975 42.9699 100.115 43.028C100.632 43.0862 101.131 43.2525 101.58 43.5162C104.24 45.1862 104.51 50.8362 103.82 53.5162C103.82 53.6962 102.99 55.7662 102.6 56.7462L102.75 56.8462C104.644 54.7202 106.348 52.4314 107.84 50.0062C108.68 48.6762 109.4 47.3662 110.08 46.0762C109.24 45.5362 105.45 43.0262 104.26 41.1962C103.07 39.3662 102.17 36.8862 102.92 34.8062C103.081 34.3104 103.344 33.854 103.693 33.4667C104.042 33.0795 104.468 32.7702 104.945 32.5588C105.421 32.3475 105.937 32.2389 106.458 32.2402C106.979 32.2415 107.495 32.3525 107.97 32.5662C110.8 33.9362 111.68 39.5662 111.29 42.2962C111.29 42.4462 110.89 43.9562 110.6 45.0462C110.89 44.4562 111.21 43.8562 111.48 43.2862C112.48 41.1562 113.33 39.1362 114.03 37.2862C114.43 36.2862 114.76 35.3362 115.03 34.4562C114.48 33.4562 112.34 29.6162 112.13 27.4562C111.92 25.2962 112.26 22.6762 113.89 21.1762C114.261 20.8109 114.705 20.5279 115.193 20.3455C115.68 20.1631 116.201 20.0854 116.721 20.1175C117.241 20.1495 117.748 20.2907 118.209 20.5316C118.671 20.7726 119.077 21.1081 119.4 21.5162C121.28 24.0262 119.49 29.3962 117.87 31.6762C117.73 31.8762 115.18 34.6762 115.15 34.6762V34.6162C114.87 35.4662 114.57 36.3762 114.21 37.3562C113.55 39.1762 112.78 41.2162 111.79 43.3562C110.743 45.6978 109.565 47.9781 108.26 50.1862C106.804 52.6629 105.131 55.0055 103.26 57.1862L103.19 57.2662C103.97 56.7862 106.19 55.5062 106.38 55.4262C108.96 54.3262 114.58 53.7062 116.64 56.0662C116.972 56.4678 117.215 56.9348 117.354 57.4366C117.493 57.9385 117.525 58.464 117.448 58.9791C117.37 59.4941 117.186 59.9871 116.905 60.4259C116.625 60.8648 116.255 61.2397 115.82 61.5262C114.01 62.8062 111.3 62.5262 109.3 61.9262C107.05 61.2062 103.3 57.7862 102.96 57.5062C101.007 59.6852 98.9087 61.7299 96.68 63.6262C95.39 64.7362 94.05 65.8162 92.68 66.8862C93.37 66.4862 93.99 66.1362 94.08 66.0962C96.65 64.9962 102.27 64.3762 104.33 66.7362C104.663 67.1372 104.908 67.604 105.048 68.1061C105.188 68.6083 105.22 69.1343 105.143 69.6498C105.065 70.1653 104.88 70.6587 104.598 71.0975C104.317 71.5363 103.946 71.9107 103.51 72.1962C101.71 73.4762 98.99 73.1962 97 72.5962C95.01 71.9962 91.68 69.0962 90.82 68.3262C90.29 68.7262 89.82 69.1362 89.25 69.5462C86.74 71.4662 84.25 73.3762 81.8 75.3362C80.95 76.0162 80.14 76.7262 79.32 77.4362L80.54 76.7562C83.11 75.6562 88.73 75.0262 90.79 77.3862C91.1218 77.7887 91.3652 78.2564 91.5044 78.759C91.6437 79.2617 91.6757 79.788 91.5984 80.3038C91.5211 80.8196 91.3361 81.3135 91.0556 81.7532C90.775 82.1929 90.4052 82.5687 89.97 82.8562C88.17 84.1362 85.45 83.8562 83.46 83.2462C81.47 82.6362 78.46 80.0262 77.46 79.1162C76.65 79.8662 75.83 80.6162 75.08 81.3762C74.57 81.9062 74.08 82.3762 73.58 82.9462L72.14 84.5662C71.27 85.6362 70.36 86.7262 69.53 87.7862C68.95 88.5162 68.41 89.2262 67.87 89.9462C68.7 89.2462 70.38 87.9462 70.53 87.8262C72.9 86.3462 78.37 84.8262 80.76 86.9062C81.1473 87.2541 81.4571 87.6797 81.6691 88.1552C81.8812 88.6307 81.9908 89.1455 81.9908 89.6662C81.9908 90.1868 81.8812 90.7017 81.6691 91.1772C81.4571 91.6527 81.1473 92.0783 80.76 92.4262C79.16 93.9662 76.44 94.1262 74.38 93.8062C72.1 93.4462 67.98 90.8062 67.47 90.4262C66.57 91.6162 65.71 92.7662 64.91 93.8762C62.14 97.7062 59.98 101.006 58.5 103.326L58.35 103.566L56.43 102.636L56.73 102.176C58.28 99.8562 60.54 96.5762 63.42 92.7762C64.33 91.5662 65.32 90.2962 66.35 89.0062C65.2788 87.8358 64.2771 86.6037 63.35 85.3162C61.14 86.1862 56.56 86.2162 55.96 86.2162C55.87 87.6962 55.79 89.1462 55.73 90.5062C55.53 95.2262 55.55 99.1662 55.6 101.926V102.246L53.49 101.246C53.49 98.5062 53.6 94.8062 53.88 90.4262C53.97 88.9262 54.1 87.3162 54.25 85.6662C53.66 85.5162 48.89 84.2962 47.09 82.8562C45.46 81.5462 43.74 79.4362 43.8 77.2162C43.796 76.6954 43.9017 76.1796 44.1102 75.7023C44.3187 75.2251 44.6254 74.797 45.0103 74.4461C45.3951 74.0952 45.8496 73.8293 46.344 73.6656C46.8384 73.502 47.3618 73.4442 47.88 73.4962C50.99 73.8962 53.6 78.9162 54.11 81.6662C54.11 81.8362 54.27 83.6662 54.33 84.7662C54.4 84.0962 54.45 83.4362 54.53 82.7662C54.66 81.3962 54.84 80.0362 55.03 78.5662C55.14 77.8562 55.26 77.1462 55.37 76.4262C55.48 75.7062 55.67 74.9662 55.82 74.2262C56.2 72.5262 56.66 70.8162 57.17 69.1062C55.97 68.9862 51.72 68.4862 49.9 67.4362C48.08 66.3862 46.06 64.5662 45.79 62.3662C45.7064 61.8516 45.7322 61.3251 45.8657 60.8212C45.9992 60.3172 46.2374 59.8471 46.5648 59.4413C46.8922 59.0356 47.3014 58.7035 47.7658 58.4665C48.2302 58.2296 48.7393 58.0932 49.26 58.0662C52.39 57.9962 55.73 62.5562 56.65 65.2062C56.71 65.3662 57.16 67.3362 57.39 68.4262C57.7 67.4262 58 66.3762 58.39 65.3462C59.39 62.3462 60.52 59.4162 61.62 56.4462C61.96 55.5362 62.28 54.6262 62.62 53.7162C62.19 53.7162 57.12 53.1862 55.08 52.0162C53.27 51.0162 51.25 49.1462 50.97 46.9462C50.888 46.4318 50.9149 45.9059 51.0491 45.4026C51.1832 44.8993 51.4216 44.4298 51.7487 44.0244C52.0758 43.6191 52.4844 43.287 52.948 43.0495C53.4116 42.8121 53.9199 42.6747 54.44 42.6462C57.58 42.5762 60.92 47.1362 61.84 49.7862C61.91 49.9862 62.55 52.7862 62.68 53.5462C63.4 51.5462 64.11 49.5462 64.68 47.5462C65.5257 44.8461 66.1938 42.0935 66.68 39.3062C66.48 39.3062 61.19 38.8062 59.1 37.6062C57.28 36.6062 55.26 34.7362 54.99 32.5362C54.9063 32.0221 54.9321 31.4962 55.0657 30.9927C55.1993 30.4893 55.4376 30.0198 55.7652 29.6148C56.0927 29.2099 56.5021 28.8786 56.9665 28.6428C57.4308 28.4069 57.9398 28.2718 58.46 28.2462C61.59 28.1662 64.93 32.7262 65.85 35.3762C65.91 35.5462 66.41 37.7062 66.62 38.7462H66.79C67.203 35.9295 67.3637 33.0815 67.27 30.2362C67.27 28.6662 67.12 27.1762 66.97 25.7262C65.97 25.7262 61.43 25.7262 59.43 24.8562C57.43 23.9862 55.3 22.4262 54.78 20.2762C54.6413 19.7725 54.6105 19.2453 54.6897 18.7289C54.7688 18.2126 54.9561 17.7187 55.2393 17.2798C55.5225 16.8408 55.8952 16.4666 56.3331 16.1817C56.7709 15.8967 57.264 15.7074 57.78 15.6262C60.89 15.1962 64.71 19.3762 65.92 21.8962C65.98 22.0362 66.5 23.5062 66.85 24.5862C66.78 23.9262 66.71 23.2462 66.62 22.5862C66.31 20.2362 65.87 18.1062 65.47 16.2162C65.23 15.1462 65 14.2162 64.77 13.2862C63.77 12.7862 59.85 10.7262 58.51 9.06619C57.17 7.40619 55.97 4.99619 56.51 2.85619C56.6295 2.35083 56.8538 1.87619 57.1683 1.46298C57.4828 1.04976 57.8806 0.70718 58.3359 0.457392C58.7911 0.207604 59.2938 0.056176 59.8113 0.0129034C60.3287 -0.0303691 60.8496 0.0354789 61.34 0.206187Z" fill="#4CAF4F"/>
<path d="M118.02 48.4962C115.57 48.3962 110.67 45.8862 110.67 45.8862C110.67 45.8862 113.3 43.1562 113.49 43.0062C115.68 41.2662 120.94 39.1762 123.55 40.9162C123.977 41.2151 124.335 41.6007 124.603 42.0478C124.87 42.4949 125.04 42.9934 125.101 43.5107C125.163 44.028 125.114 44.5524 124.959 45.0497C124.803 45.5469 124.545 46.0058 124.2 46.3962C122.8 48.1062 120.11 48.5862 118.02 48.4962Z" fill="#4CAF4F"/>
<g opacity="0.5">
<path d="M67.41 25.2862C67.35 25.2862 68.11 21.5562 68.18 21.2862C69.04 18.6162 72.28 13.9762 75.41 13.9862C75.9314 14.0009 76.4438 14.1254 76.9139 14.3515C77.3839 14.5776 77.8009 14.9004 78.1378 15.2986C78.4747 15.6968 78.7238 16.1616 78.869 16.6626C79.0141 17.1636 79.0519 17.6896 78.98 18.2062C78.75 20.4062 76.77 22.2862 74.98 23.3662C72.88 24.6762 67.41 25.2862 67.41 25.2862Z" fill="white"/>
<path d="M61.34 0.206187C64.34 1.26619 65.76 6.72619 65.66 9.52619C65.66 9.76619 65.1 13.5262 65.05 13.5262H64.99C65.22 14.3862 65.47 15.3162 65.72 16.3362C66.16 18.2162 66.64 20.3362 67.01 22.6962C67.439 25.2243 67.7195 27.7753 67.85 30.3362C68.0095 33.2058 67.9124 36.0839 67.56 38.9362C67.5553 38.9694 67.5553 39.003 67.56 39.0362C67.95 38.2062 69.11 35.9062 69.21 35.7462C70.75 33.4062 75.09 29.7462 78.12 30.6162C78.6175 30.7679 79.0774 31.0228 79.4697 31.3643C79.8621 31.7058 80.178 32.1261 80.3969 32.5979C80.6158 33.0697 80.7328 33.5824 80.7402 34.1025C80.7477 34.6225 80.6454 35.1383 80.44 35.6162C79.64 37.6762 77.24 38.9662 75.23 39.5362C72.96 40.1862 67.9 39.4262 67.5 39.3562C67.0723 42.2512 66.4509 45.1143 65.64 47.9262C65.1733 49.5662 64.6667 51.2029 64.12 52.8362C64.47 52.1262 64.8 51.4962 64.85 51.4162C66.39 49.0662 70.74 45.4162 73.76 46.2862C74.2575 46.4379 74.7174 46.6928 75.1097 47.0343C75.5021 47.3758 75.818 47.7961 76.0369 48.2679C76.2558 48.7397 76.3728 49.2524 76.3803 49.7725C76.3877 50.2925 76.2854 50.8083 76.08 51.2862C75.28 53.3462 72.88 54.6362 70.87 55.2062C68.86 55.7762 64.5 55.2062 63.36 55.0562L62.73 56.9362C61.73 59.9362 60.64 62.9362 59.73 65.8762C59.4 66.8762 59.11 67.9562 58.82 68.9962C59.14 68.3662 59.41 67.8362 59.46 67.7562C60.99 65.4162 65.34 61.7562 68.36 62.6262C68.8566 62.7795 69.3155 63.0352 69.7072 63.3768C70.0989 63.7184 70.4147 64.1382 70.6342 64.6093C70.8538 65.0804 70.9721 65.5922 70.9817 66.1118C70.9913 66.6314 70.892 67.1473 70.69 67.6262C69.89 69.6962 67.48 70.9762 65.47 71.5562C63.46 72.1362 59.53 71.6262 58.17 71.4362C57.9 72.5062 57.64 73.5762 57.43 74.6262C57.3 75.3562 57.13 76.0362 57.04 76.7662L56.74 78.9162C56.6 80.2862 56.44 81.6962 56.34 83.0362C56.26 83.9662 56.2 84.8562 56.14 85.7562C56.46 84.7562 57.14 82.6862 57.14 82.5262C58.2474 80.3261 59.8999 78.4464 61.94 77.0662C62.0487 76.8113 62.1863 76.5697 62.35 76.3462C62.6331 75.9093 63.0052 75.537 63.442 75.2538C63.8789 74.9705 64.3705 74.7827 64.8849 74.7024C65.3993 74.6222 65.9248 74.6515 66.4272 74.7882C66.9295 74.925 67.3973 75.1662 67.8 75.4962C70.18 77.5462 69.58 83.1662 68.49 85.7462C68.43 85.8962 67.54 87.4662 66.97 88.4562C67.4 87.9262 67.8 87.4062 68.25 86.8762C69.12 85.8062 70.02 84.7662 70.98 83.6462L72.45 82.0562C72.93 81.5162 73.51 81.0562 74.04 80.4662C75.29 79.2562 76.62 78.0862 77.99 76.9362C77.06 76.1762 73.78 73.4162 72.84 71.5362C71.9 69.6562 71.23 67.0262 72.21 65.0362C72.4255 64.5616 72.7384 64.1376 73.1283 63.7917C73.5182 63.4458 73.9764 63.1857 74.4733 63.0282C74.9702 62.8708 75.4946 62.8195 76.0126 62.8777C76.5305 62.9359 77.0305 63.1024 77.48 63.3662C80.13 65.0362 80.4 70.6862 79.71 73.3662C79.71 73.5362 78.95 75.4262 78.54 76.4562C79.37 75.7762 80.19 75.0962 81.05 74.4562C83.53 72.5462 86.1 70.6762 88.65 68.8062L90.98 67.0862C90.65 66.8162 86.69 63.6162 85.63 61.5062C84.7 59.6362 84.02 56.9962 85 55.0162C85.2143 54.5405 85.5265 54.1154 85.9162 53.7686C86.306 53.4218 86.7645 53.1611 87.2618 53.0035C87.7591 52.8459 88.2841 52.795 88.8024 52.854C89.3208 52.9131 89.8209 53.0808 90.27 53.3462C92.93 55.0062 93.19 60.6562 92.5 63.3462C92.45 63.5462 91.42 66.2662 91.13 66.9462C92.83 65.6762 94.52 64.3962 96.13 63.0562C98.3206 61.2704 100.392 59.343 102.33 57.2862C102.18 57.1562 98.03 53.8362 96.95 51.6862C96.01 49.8162 95.34 47.1662 96.32 45.1862C96.5345 44.7119 96.8463 44.2881 97.2353 43.9423C97.6243 43.5964 98.0817 43.3363 98.5778 43.1788C99.0739 43.0213 99.5975 42.9699 100.115 43.028C100.632 43.0862 101.131 43.2525 101.58 43.5162C104.24 45.1862 104.51 50.8362 103.82 53.5162C103.82 53.6962 102.99 55.7662 102.6 56.7462L102.75 56.8462C104.644 54.7202 106.348 52.4314 107.84 50.0062C108.68 48.6762 109.4 47.3662 110.08 46.0762C109.24 45.5362 105.45 43.0262 104.26 41.1962C103.07 39.3662 102.17 36.8862 102.92 34.8062C103.081 34.3104 103.344 33.854 103.693 33.4667C104.042 33.0795 104.468 32.7702 104.945 32.5588C105.421 32.3475 105.937 32.2389 106.458 32.2402C106.979 32.2415 107.495 32.3525 107.97 32.5662C110.8 33.9362 111.68 39.5662 111.29 42.2962C111.29 42.4462 110.89 43.9562 110.6 45.0462C110.89 44.4562 111.21 43.8562 111.48 43.2862C112.48 41.1562 113.33 39.1362 114.03 37.2862C114.43 36.2862 114.76 35.3362 115.03 34.4562C114.48 33.4562 112.34 29.6162 112.13 27.4562C111.92 25.2962 112.26 22.6762 113.89 21.1762C114.261 20.8109 114.705 20.5279 115.193 20.3455C115.68 20.1631 116.201 20.0854 116.721 20.1175C117.241 20.1495 117.748 20.2907 118.209 20.5316C118.671 20.7726 119.077 21.1081 119.4 21.5162C121.28 24.0262 119.49 29.3962 117.87 31.6762C117.73 31.8762 115.18 34.6762 115.15 34.6762V34.6162C114.87 35.4662 114.57 36.3762 114.21 37.3562C113.55 39.1762 112.78 41.2162 111.79 43.3562C110.743 45.6978 109.565 47.9781 108.26 50.1862C106.804 52.6629 105.131 55.0055 103.26 57.1862L103.19 57.2662C103.97 56.7862 106.19 55.5062 106.38 55.4262C108.96 54.3262 114.58 53.7062 116.64 56.0662C116.972 56.4678 117.215 56.9348 117.354 57.4366C117.493 57.9385 117.525 58.464 117.448 58.9791C117.37 59.4941 117.186 59.9871 116.905 60.4259C116.625 60.8648 116.255 61.2397 115.82 61.5262C114.01 62.8062 111.3 62.5262 109.3 61.9262C107.05 61.2062 103.3 57.7862 102.96 57.5062C101.007 59.6852 98.9087 61.7299 96.68 63.6262C95.39 64.7362 94.05 65.8162 92.68 66.8862C93.37 66.4862 93.99 66.1362 94.08 66.0962C96.65 64.9962 102.27 64.3762 104.33 66.7362C104.663 67.1372 104.908 67.604 105.048 68.1061C105.188 68.6083 105.22 69.1343 105.143 69.6498C105.065 70.1653 104.88 70.6587 104.598 71.0975C104.317 71.5363 103.946 71.9107 103.51 72.1962C101.71 73.4762 98.99 73.1962 97 72.5962C95.01 71.9962 91.68 69.0962 90.82 68.3262C90.29 68.7262 89.82 69.1362 89.25 69.5462C86.74 71.4662 84.25 73.3762 81.8 75.3362C80.95 76.0162 80.14 76.7262 79.32 77.4362L80.54 76.7562C83.11 75.6562 88.73 75.0262 90.79 77.3862C91.1218 77.7887 91.3652 78.2564 91.5044 78.759C91.6437 79.2617 91.6757 79.788 91.5984 80.3038C91.5211 80.8196 91.3361 81.3135 91.0556 81.7532C90.775 82.1929 90.4052 82.5687 89.97 82.8562C88.17 84.1362 85.45 83.8562 83.46 83.2462C81.47 82.6362 78.46 80.0262 77.46 79.1162C76.65 79.8662 75.83 80.6162 75.08 81.3762C74.57 81.9062 74.08 82.3762 73.58 82.9462L72.14 84.5662C71.27 85.6362 70.36 86.7262 69.53 87.7862C68.95 88.5162 68.41 89.2262 67.87 89.9462C68.7 89.2462 70.38 87.9462 70.53 87.8262C72.9 86.3462 78.37 84.8262 80.76 86.9062C81.1473 87.2541 81.4571 87.6797 81.6691 88.1552C81.8812 88.6307 81.9908 89.1455 81.9908 89.6662C81.9908 90.1868 81.8812 90.7017 81.6691 91.1772C81.4571 91.6527 81.1473 92.0783 80.76 92.4262C79.16 93.9662 76.44 94.1262 74.38 93.8062C72.1 93.4462 67.98 90.8062 67.47 90.4262C66.57 91.6162 65.71 92.7662 64.91 93.8762C62.14 97.7062 59.98 101.006 58.5 103.326L58.35 103.566L56.43 102.636L56.73 102.176C58.28 99.8562 60.54 96.5762 63.42 92.7762C64.33 91.5662 65.32 90.2962 66.35 89.0062C65.2788 87.8358 64.2771 86.6037 63.35 85.3162C61.14 86.1862 56.56 86.2162 55.96 86.2162C55.87 87.6962 55.79 89.1462 55.73 90.5062C55.53 95.2262 55.55 99.1662 55.6 101.926V102.246L53.49 101.246C53.49 98.5062 53.6 94.8062 53.88 90.4262C53.97 88.9262 54.1 87.3162 54.25 85.6662C53.66 85.5162 48.89 84.2962 47.09 82.8562C45.46 81.5462 43.74 79.4362 43.8 77.2162C43.796 76.6954 43.9017 76.1796 44.1102 75.7023C44.3187 75.2251 44.6254 74.797 45.0103 74.4461C45.3951 74.0952 45.8496 73.8293 46.344 73.6656C46.8384 73.502 47.3618 73.4442 47.88 73.4962C50.99 73.8962 53.6 78.9162 54.11 81.6662C54.11 81.8362 54.27 83.6662 54.33 84.7662C54.4 84.0962 54.45 83.4362 54.53 82.7662C54.66 81.3962 54.84 80.0362 55.03 78.5662C55.14 77.8562 55.26 77.1462 55.37 76.4262C55.48 75.7062 55.67 74.9662 55.82 74.2262C56.2 72.5262 56.66 70.8162 57.17 69.1062C55.97 68.9862 51.72 68.4862 49.9 67.4362C48.08 66.3862 46.06 64.5662 45.79 62.3662C45.7064 61.8516 45.7322 61.3251 45.8657 60.8212C45.9992 60.3172 46.2374 59.8471 46.5648 59.4413C46.8922 59.0356 47.3014 58.7035 47.7658 58.4665C48.2302 58.2296 48.7393 58.0932 49.26 58.0662C52.39 57.9962 55.73 62.5562 56.65 65.2062C56.71 65.3662 57.16 67.3362 57.39 68.4262C57.7 67.4262 58 66.3762 58.39 65.3462C59.39 62.3462 60.52 59.4162 61.62 56.4462C61.96 55.5362 62.28 54.6262 62.62 53.7162C62.19 53.7162 57.12 53.1862 55.08 52.0162C53.27 51.0162 51.25 49.1462 50.97 46.9462C50.888 46.4318 50.9149 45.9059 51.0491 45.4026C51.1832 44.8993 51.4216 44.4298 51.7487 44.0244C52.0758 43.6191 52.4844 43.287 52.948 43.0495C53.4116 42.8121 53.9199 42.6747 54.44 42.6462C57.58 42.5762 60.92 47.1362 61.84 49.7862C61.91 49.9862 62.55 52.7862 62.68 53.5462C63.4 51.5462 64.11 49.5462 64.68 47.5462C65.5257 44.8461 66.1938 42.0935 66.68 39.3062C66.48 39.3062 61.19 38.8062 59.1 37.6062C57.28 36.6062 55.26 34.7362 54.99 32.5362C54.9063 32.0221 54.9321 31.4962 55.0657 30.9927C55.1993 30.4893 55.4376 30.0198 55.7652 29.6148C56.0927 29.2099 56.5021 28.8786 56.9665 28.6428C57.4308 28.4069 57.9398 28.2718 58.46 28.2462C61.59 28.1662 64.93 32.7262 65.85 35.3762C65.91 35.5462 66.41 37.7062 66.62 38.7462H66.79C67.203 35.9295 67.3637 33.0815 67.27 30.2362C67.27 28.6662 67.12 27.1762 66.97 25.7262C65.97 25.7262 61.43 25.7262 59.43 24.8562C57.43 23.9862 55.3 22.4262 54.78 20.2762C54.6413 19.7725 54.6105 19.2453 54.6897 18.7289C54.7688 18.2126 54.9561 17.7187 55.2393 17.2798C55.5225 16.8408 55.8952 16.4666 56.3331 16.1817C56.7709 15.8967 57.264 15.7074 57.78 15.6262C60.89 15.1962 64.71 19.3762 65.92 21.8962C65.98 22.0362 66.5 23.5062 66.85 24.5862C66.78 23.9262 66.71 23.2462 66.62 22.5862C66.31 20.2362 65.87 18.1062 65.47 16.2162C65.23 15.1462 65 14.2162 64.77 13.2862C63.77 12.7862 59.85 10.7262 58.51 9.06619C57.17 7.40619 55.97 4.99619 56.51 2.85619C56.6295 2.35083 56.8538 1.87619 57.1683 1.46298C57.4828 1.04976 57.8806 0.70718 58.3359 0.457392C58.7911 0.207604 59.2938 0.056176 59.8113 0.0129034C60.3287 -0.0303691 60.8496 0.0354789 61.34 0.206187Z" fill="white"/>
<path d="M118.02 48.4962C115.57 48.3962 110.67 45.8862 110.67 45.8862C110.67 45.8862 113.3 43.1562 113.49 43.0062C115.68 41.2662 120.94 39.1762 123.55 40.9162C123.977 41.2151 124.335 41.6007 124.603 42.0478C124.87 42.4949 125.04 42.9934 125.101 43.5107C125.163 44.028 125.114 44.5524 124.959 45.0497C124.803 45.5469 124.545 46.0058 124.2 46.3962C122.8 48.1062 120.11 48.5862 118.02 48.4962Z" fill="white"/>
</g>
<path d="M89.41 109.856C89.41 109.856 74.54 74.0162 66.22 75.5762C57.9 77.1362 80.49 132.716 80.49 132.716C80.49 132.716 54.33 83.3662 36.49 83.3662C18.65 83.3662 43.03 137.906 65.68 156.086C65.68 156.086 30 117.646 9.18999 125.956C-11.62 134.266 50.76 173.206 50.76 173.206C50.76 173.206 14.49 161.796 18.68 170.636C22.87 179.476 34.14 181.016 34.14 181.016L43.68 183.096H95.68L103.68 179.986C103.68 179.986 136.98 163.356 128.06 156.606C119.14 149.856 99.52 164.396 99.52 164.396C99.52 164.396 133.41 126.996 126.87 112.976C120.33 98.9562 91.19 138.426 91.19 138.426C91.19 138.426 114.98 88.0362 110.19 79.2062C105.4 70.3762 89.41 109.856 89.41 109.856Z" fill="#4CAF4F"/>
<path opacity="0.4" d="M89.41 109.856C89.41 109.856 74.54 74.0162 66.22 75.5762C57.9 77.1362 80.49 132.716 80.49 132.716C80.49 132.716 54.33 83.3662 36.49 83.3662C18.65 83.3662 43.03 137.906 65.68 156.086C65.68 156.086 30 117.646 9.18999 125.956C-11.62 134.266 50.76 173.206 50.76 173.206C50.76 173.206 14.49 161.796 18.68 170.636C22.87 179.476 34.14 181.016 34.14 181.016L49.68 183.096H91.68L103.68 179.986C103.68 179.986 136.98 163.356 128.06 156.606C119.14 149.856 99.52 164.396 99.52 164.396C99.52 164.396 133.41 126.996 126.87 112.976C120.33 98.9562 91.19 138.426 91.19 138.426C91.19 138.426 114.98 88.0362 110.19 79.2062C105.4 70.3762 89.41 109.856 89.41 109.856Z" fill="white"/>
<path d="M94.17 111.746C81.09 150.396 81.09 177.746 81.09 177.746C81.09 177.746 96.55 178.346 112.6 166.446" stroke="#263238" stroke-linecap="round" stroke-linejoin="round"/>
<path d="M87.68 132.556C84.981 121.003 81.4006 109.673 76.97 98.6662" stroke="#263238" stroke-linecap="round" stroke-linejoin="round"/>
<path d="M48.98 109.956L82.27 159.316C82.27 159.316 104.87 140.316 112.6 129.586" stroke="#263238" stroke-linecap="round" stroke-linejoin="round"/>
<path d="M81.68 171.206C81.68 171.206 46.6 154.556 32.33 145.046" stroke="#263238" stroke-linecap="round" stroke-linejoin="round"/>
<path d="M187.29 29.8362H180.06V331.126H187.29V29.8362Z" fill="#C2C2C2" stroke="#ABABAB" stroke-linecap="round" stroke-linejoin="round"/>
<path d="M57.23 29.8362H50V331.126H57.23V29.8362Z" fill="#C2C2C2" stroke="#ABABAB" stroke-linecap="round" stroke-linejoin="round"/>
<path d="M122.26 29.8362H115.03V331.126H122.26V29.8362Z" fill="#C2C2C2" stroke="#ABABAB" stroke-linecap="round" stroke-linejoin="round"/>
<path d="M252.31 29.8362H245.08V331.126H252.31V29.8362Z" fill="#C2C2C2" stroke="#ABABAB" stroke-linecap="round" stroke-linejoin="round"/>
<path d="M250.14 39.2262H47.67V52.9562H250.14V39.2262Z" fill="#C2C2C2" stroke="#ABABAB" stroke-linecap="round" stroke-linejoin="round"/>
<path d="M250.14 39.2262H119.84V52.9562H250.14V39.2262Z" fill="#A6A6A6" stroke="#ABABAB" stroke-linecap="round" stroke-linejoin="round"/>
<path d="M250.14 177.476H47.67V191.206H250.14V177.476Z" fill="#C2C2C2" stroke="#ABABAB" stroke-linecap="round" stroke-linejoin="round"/>
<path d="M250.14 177.476H119.84V191.206H250.14V177.476Z" fill="#A6A6A6" stroke="#ABABAB" stroke-linecap="round" stroke-linejoin="round"/>
<path d="M250.14 315.716H47.67V329.446H250.14V315.716Z" fill="#C2C2C2" stroke="#ABABAB" stroke-linecap="round" stroke-linejoin="round"/>
<path d="M250.14 315.716H119.84V329.446H250.14V315.716Z" fill="#A6A6A6" stroke="#ABABAB" stroke-linecap="round" stroke-linejoin="round"/>
<path d="M119.87 242.006H13.91V331.016H119.87V242.006Z" fill="#4CAF4F"/>
<mask id="mask0_29_186" style="mask-type:luminance" maskUnits="userSpaceOnUse" x="13" y="242" width="107" height="90">
<path d="M119.87 242.006H13.91V331.016H119.87V242.006Z" fill="white"/>
</mask>
<g mask="url(#mask0_29_186)">
<path opacity="0.6" d="M119.87 242.006H13.91V331.016H119.87V242.006Z" fill="white" stroke="#696969" stroke-linecap="round" stroke-linejoin="round"/>
</g>
<path d="M119.87 242.006H13.91V331.016H119.87V242.006Z" stroke="#696969" stroke-linecap="round" stroke-linejoin="round"/>
<path d="M119.87 242.006H84.66V331.016H119.87V242.006Z" fill="#4CAF4F"/>
<mask id="mask1_29_186" style="mask-type:luminance" maskUnits="userSpaceOnUse" x="84" y="242" width="36" height="90">
<path d="M119.87 242.006H84.66V331.016H119.87V242.006Z" fill="white"/>
</mask>
<g mask="url(#mask1_29_186)">
<path opacity="0.39" d="M119.87 242.006H84.66V331.016H119.87V242.006Z" fill="white" stroke="#696969" stroke-linecap="round" stroke-linejoin="round"/>
</g>
<path d="M119.87 242.006H84.66V331.016H119.87V242.006Z" stroke="#696969" stroke-linecap="round" stroke-linejoin="round"/>
<path d="M102.63 242.246V331.126" stroke="#696969" stroke-linecap="round" stroke-linejoin="round"/>
<path d="M125.22 153.136H19.26V242.146H125.22V153.136Z" fill="#4CAF4F"/>
<mask id="mask2_29_186" style="mask-type:luminance" maskUnits="userSpaceOnUse" x="19" y="153" width="107" height="90">
<path d="M125.22 153.136H19.26V242.146H125.22V153.136Z" fill="white"/>
</mask>
<g mask="url(#mask2_29_186)">
<path opacity="0.6" d="M125.22 153.136H19.26V242.146H125.22V153.136Z" fill="white" stroke="#696969" stroke-linecap="round" stroke-linejoin="round"/>
</g>
<path d="M125.22 153.136H19.26V242.146H125.22V153.136Z" stroke="#696969" stroke-linecap="round" stroke-linejoin="round"/>
<path d="M125.22 153.136H90.01V242.146H125.22V153.136Z" fill="#4CAF4F"/>
<mask id="mask3_29_186" style="mask-type:luminance" maskUnits="userSpaceOnUse" x="90" y="153" width="36" height="90">
<path d="M125.22 153.136H90.01V242.146H125.22V153.136Z" fill="white"/>
</mask>
<g mask="url(#mask3_29_186)">
<path opacity="0.39" d="M125.22 153.136H90.01V242.146H125.22V153.136Z" fill="white" stroke="#696969" stroke-linecap="round" stroke-linejoin="round"/>
</g>
<path d="M125.22 153.136H90.01V242.146H125.22V153.136Z" stroke="#696969" stroke-linecap="round" stroke-linejoin="round"/>
<path d="M107.98 153.376V242.256" stroke="#696969" stroke-linecap="round" stroke-linejoin="round"/>
<path d="M400.96 242.006H295V331.016H400.96V242.006Z" fill="#4CAF4F"/>
<mask id="mask4_29_186" style="mask-type:luminance" maskUnits="userSpaceOnUse" x="295" y="242" width="106" height="90">
<path d="M400.96 242.006H295V331.016H400.96V242.006Z" fill="white"/>
</mask>
<g mask="url(#mask4_29_186)">
<path opacity="0.6" d="M400.96 242.006H295V331.016H400.96V242.006Z" fill="white" stroke="#919191" stroke-linecap="round" stroke-linejoin="round"/>
</g>
<path d="M400.96 242.006H295V331.016H400.96V242.006Z" stroke="#919191" stroke-linecap="round" stroke-linejoin="round"/>
<path d="M400.96 242.006H365.75V331.016H400.96V242.006Z" fill="#4CAF4F"/>
<mask id="mask5_29_186" style="mask-type:luminance" maskUnits="userSpaceOnUse" x="365" y="242" width="36" height="90">
<path d="M400.96 242.006H365.75V331.016H400.96V242.006Z" fill="white"/>
</mask>
<g mask="url(#mask5_29_186)">
<path opacity="0.39" d="M400.96 242.006H365.75V331.016H400.96V242.006Z" fill="white" stroke="#919191" stroke-linecap="round" stroke-linejoin="round"/>
</g>
<path d="M400.96 242.006H365.75V331.016H400.96V242.006Z" stroke="#919191" stroke-linecap="round" stroke-linejoin="round"/>
<path d="M383.72 242.246V331.126" stroke="#919191" stroke-linecap="round" stroke-linejoin="round"/>
<path d="M400.96 152.906H295V241.916H400.96V152.906Z" fill="#4CAF4F"/>
<mask id="mask6_29_186" style="mask-type:luminance" maskUnits="userSpaceOnUse" x="295" y="152" width="106" height="90">
<path d="M400.96 152.906H295V241.916H400.96V152.906Z" fill="white"/>
</mask>
<g mask="url(#mask6_29_186)">
<path opacity="0.6" d="M400.96 152.906H295V241.916H400.96V152.906Z" fill="white" stroke="#919191" stroke-linecap="round" stroke-linejoin="round"/>
</g>
<path d="M400.96 152.906H295V241.916H400.96V152.906Z" stroke="#919191" stroke-linecap="round" stroke-linejoin="round"/>
<path d="M400.96 152.906H365.75V241.916H400.96V152.906Z" fill="#4CAF4F"/>
<mask id="mask7_29_186" style="mask-type:luminance" maskUnits="userSpaceOnUse" x="365" y="152" width="36" height="90">
<path d="M400.96 152.906H365.75V241.916H400.96V152.906Z" fill="white"/>
</mask>
<g mask="url(#mask7_29_186)">
<path opacity="0.39" d="M400.96 152.906H365.75V241.916H400.96V152.906Z" fill="white" stroke="#919191" stroke-linecap="round" stroke-linejoin="round"/>
</g>
<path d="M400.96 152.906H365.75V241.916H400.96V152.906Z" stroke="#919191" stroke-linecap="round" stroke-linejoin="round"/>
<path d="M383.72 153.146V242.026" stroke="#919191" stroke-linecap="round" stroke-linejoin="round"/>
<path d="M391.65 79.2062H304V152.836H391.65V79.2062Z" fill="#4CAF4F"/>
<mask id="mask8_29_186" style="mask-type:luminance" maskUnits="userSpaceOnUse" x="304" y="79" width="88" height="74">
<path d="M391.65 79.2062H304V152.836H391.65V79.2062Z" fill="white"/>
</mask>
<g mask="url(#mask8_29_186)">
<path opacity="0.6" d="M391.65 79.2062H304V152.836H391.65V79.2062Z" fill="white" stroke="#919191" stroke-linecap="round" stroke-linejoin="round"/>
</g>
<path d="M391.65 79.2062H304V152.836H391.65V79.2062Z" stroke="#919191" stroke-linecap="round" stroke-linejoin="round"/>
<path d="M391.65 79.2062H362.53V152.836H391.65V79.2062Z" fill="#4CAF4F"/>
<mask id="mask9_29_186" style="mask-type:luminance" maskUnits="userSpaceOnUse" x="362" y="79" width="30" height="74">
<path d="M391.65 79.2062H362.53V152.836H391.65V79.2062Z" fill="white"/>
</mask>
<g mask="url(#mask9_29_186)">
<path opacity="0.39" d="M391.65 79.2062H362.53V152.836H391.65V79.2062Z" fill="white" stroke="#919191" stroke-linecap="round" stroke-linejoin="round"/>
</g>
<path d="M391.65 79.2062H362.53V152.836H391.65V79.2062Z" stroke="#919191" stroke-linecap="round" stroke-linejoin="round"/>
<path d="M377.39 79.4062V152.926" stroke="#919191" stroke-linecap="round" stroke-linejoin="round"/>
<path d="M380.44 297.556H366.71V306.146H380.44V297.556Z" fill="white" stroke="#263238" stroke-linecap="round" stroke-linejoin="round"/>
<path d="M251.24 331.126C255.824 331.126 259.54 327.41 259.54 322.826C259.54 318.242 255.824 314.526 251.24 314.526C246.656 314.526 242.94 318.242 242.94 322.826C242.94 327.41 246.656 331.126 251.24 331.126Z" fill="#263238" stroke="#263238" stroke-linecap="round" stroke-linejoin="round"/>
<path d="M387.82 185.446H382.92V323.016H387.82V185.446Z" fill="#263238" stroke="#263238" stroke-linecap="round" stroke-linejoin="round"/>
<path d="M385.21 233.566L373.62 224.346C368.69 220.418 364.993 215.157 362.966 209.188C360.94 203.219 360.671 196.794 362.19 190.676C362.637 188.891 363.666 187.305 365.115 186.169C366.563 185.034 368.349 184.413 370.19 184.406H400.19C402.032 184.41 403.819 185.029 405.269 186.165C406.718 187.301 407.746 188.889 408.19 190.676C409.712 196.793 409.444 203.218 407.42 209.187C405.395 215.156 401.699 220.418 396.77 224.346L385.21 233.566ZM370.21 189.096C369.409 189.093 368.63 189.36 367.999 189.853C367.368 190.347 366.921 191.038 366.73 191.816C365.423 197.059 365.651 202.567 367.387 207.684C369.123 212.801 372.293 217.311 376.52 220.676L385.19 227.576L393.87 220.676C398.099 217.311 401.271 212.802 403.01 207.686C404.75 202.569 404.982 197.061 403.68 191.816C403.488 191.039 403.04 190.349 402.409 189.856C401.779 189.362 401.001 189.095 400.2 189.096H370.21Z" fill="#263238"/>
<path d="M356.44 301.856H204.71V319.516H356.44V301.856Z" fill="white"/>
<mask id="mask10_29_186" style="mask-type:luminance" maskUnits="userSpaceOnUse" x="204" y="301" width="153" height="19">
<path d="M356.44 301.856H204.71V319.516H356.44V301.856Z" fill="white"/>
</mask>
<g mask="url(#mask10_29_186)">
<path opacity="0.28" d="M356.44 301.856H204.71V319.516H356.44V301.856Z" fill="black" stroke="#263238" stroke-linecap="round" stroke-linejoin="round"/>
</g>
<path d="M356.44 301.856H204.71V319.516H356.44V301.856Z" stroke="#263238" stroke-linecap="round" stroke-linejoin="round"/>
<path d="M221.71 301.856H204.71V319.516H221.71V301.856Z" stroke="#263238" stroke-linecap="round" stroke-linejoin="round"/>
<path d="M356.43 301.856H339.43V319.516H356.43V301.856Z" stroke="#263238" stroke-linecap="round" stroke-linejoin="round"/>
<path d="M289.07 301.856H272.07V319.516H289.07V301.856Z" stroke="#263238" stroke-linecap="round" stroke-linejoin="round"/>
<path d="M356.44 319.516H366.9L379.98 269.806H369.52L356.44 319.516Z" fill="white" stroke="#263238" stroke-linecap="round" stroke-linejoin="round"/>
<path d="M392.24 290.736H378.51V312.976H392.24V290.736Z" fill="white" stroke="#263238" stroke-linecap="round" stroke-linejoin="round"/>
<path d="M382.01 331.126C381.232 331.113 380.489 330.798 379.938 330.248C379.388 329.697 379.073 328.955 379.06 328.176V317.106C379.073 316.328 379.388 315.585 379.938 315.034C380.489 314.484 381.232 314.169 382.01 314.156C382.788 314.169 383.531 314.484 384.082 315.034C384.632 315.585 384.947 316.328 384.96 317.106V328.206C384.939 328.979 384.621 329.715 384.072 330.259C383.522 330.803 382.783 331.114 382.01 331.126Z" fill="#263238"/>
<path d="M389.02 331.126C388.242 331.113 387.499 330.798 386.948 330.248C386.398 329.697 386.083 328.955 386.07 328.176V317.106C386.083 316.328 386.398 315.585 386.948 315.034C387.499 314.484 388.242 314.169 389.02 314.156C389.807 314.156 390.563 314.465 391.124 315.017C391.685 315.569 392.007 316.319 392.02 317.106V328.206C391.999 328.988 391.674 329.731 391.114 330.276C390.553 330.821 389.802 331.126 389.02 331.126Z" fill="#263238"/>
<path d="M0.5 331.126H414.31" stroke="#263238" stroke-linecap="round" stroke-linejoin="round"/>
<path d="M143.27 360.016C183.167 360.016 215.51 356.085 215.51 351.236C215.51 346.387 183.167 342.456 143.27 342.456C103.373 342.456 71.03 346.387 71.03 351.236C71.03 356.085 103.373 360.016 143.27 360.016Z" fill="#4CAF4F"/>
<path opacity="0.5" d="M143.27 360.016C183.167 360.016 215.51 356.085 215.51 351.236C215.51 346.387 183.167 342.456 143.27 342.456C103.373 342.456 71.03 346.387 71.03 351.236C71.03 356.085 103.373 360.016 143.27 360.016Z" fill="white"/>
<path d="M292.76 351.206C292.76 353.626 276.63 355.586 256.76 355.586C236.89 355.586 220.76 353.586 220.76 351.206C220.76 348.826 236.88 346.836 256.76 346.836C276.64 346.836 292.76 348.826 292.76 351.206Z" fill="#4CAF4F"/>
<path opacity="0.5" d="M292.76 351.206C292.76 353.626 276.63 355.586 256.76 355.586C236.89 355.586 220.76 353.586 220.76 351.206C220.76 348.826 236.88 346.836 256.76 346.836C276.64 346.836 292.76 348.826 292.76 351.206Z" fill="white"/>
<path d="M157.68 61.9962C157.68 61.9962 152.09 57.6062 145.68 59.7962C139.27 61.9862 134.41 72.6662 132.68 81.3462C130.95 90.0262 124.3 96.6062 125.9 106.786C127.5 116.966 139.07 118.556 153.04 120.056C167.01 121.556 174.59 119.856 181.17 110.676C187.75 101.496 184.96 90.3262 181.07 80.4462C177.18 70.5662 170.7 61.3962 165.31 59.6962C159.92 57.9962 157.68 61.9962 157.68 61.9962Z" fill="#263238" stroke="#263238" stroke-linecap="round" stroke-linejoin="round"/>
<path d="M134.58 114.206C135.523 114.63 136.504 114.965 137.51 115.206" stroke="white" stroke-linecap="round" stroke-linejoin="round"/>
<path d="M156.28 69.1062C154.002 74.1965 151.114 78.9916 147.68 83.3862C141.96 90.7362 129.31 97.6762 128.5 105.386C128.37 106.418 128.46 107.467 128.765 108.461C129.071 109.456 129.583 110.374 130.27 111.156" stroke="white" stroke-linecap="round" stroke-linejoin="round"/>
<path d="M179.49 105.976C179.077 106.944 178.546 107.858 177.91 108.696" stroke="white" stroke-linecap="round" stroke-linejoin="round"/>
<path d="M174.68 86.6562C174.68 86.6562 181.11 94.0762 180.49 101.996" stroke="white" stroke-linecap="round" stroke-linejoin="round"/>
<path d="M155.06 65.0162C152.554 64.7611 150.023 65.1101 147.68 66.0339C145.336 66.9578 143.248 68.4296 141.59 70.3262C141.36 70.5862 141.15 70.8462 140.95 71.1062" stroke="white" stroke-linecap="round" stroke-linejoin="round"/>
<path d="M118.17 253.506L116.92 272.746C116.92 272.746 111.6 298.556 109.92 309.196C108.24 319.836 105.16 336.016 104.6 336.016C104.04 336.016 94.86 341.566 91.92 346.096C88.98 350.626 92.71 352.546 96.79 351.096C100.87 349.646 106.41 345.546 108.22 340.676C110.03 335.806 110.93 333.996 111.05 333.206C111.17 332.416 130.52 280.466 132.44 274.916C134.36 269.366 138.44 253.066 138.44 253.066L147.95 220.806C147.95 220.806 158.13 253.976 158.25 255.446C158.37 256.916 168.77 341.696 169.25 344.866C169.73 348.036 169.59 350.296 171.51 350.976C173.43 351.656 177.96 351.656 180.34 351.656C182.72 351.656 190.98 352.906 195.05 351.886C199.12 350.866 199.58 350.186 196.75 348.146C193.92 346.106 178.2 344.806 176.75 338.866C176.63 338.416 176.52 251.146 176.52 251.146C176.52 251.146 175.16 222.286 172.9 214.146H120.6L118.17 253.506Z" fill="white" stroke="#263238" stroke-linecap="round" stroke-linejoin="round"/>
<path d="M96.78 351.076C100.85 349.596 106.4 345.526 108.21 340.656L108.59 339.656C106.28 342.116 102.59 345.536 102.59 345.536C102.364 344.376 101.859 343.288 101.12 342.366C100.797 342.01 100.384 341.749 99.9244 341.61C99.4647 341.471 98.9758 341.459 98.51 341.576L102.51 337.176C99.51 339.036 94.11 342.836 91.99 346.106C88.96 350.616 92.68 352.546 96.78 351.076Z" fill="#263238" stroke="#263238" stroke-linecap="round" stroke-linejoin="round"/>
<path d="M196.68 348.126C194.74 346.736 186.77 345.686 181.45 343.256C181.231 343.443 181.059 343.679 180.95 343.946C180.612 344.905 180.348 345.888 180.16 346.886L169.16 344.536V344.846C169.61 348.016 169.5 350.276 171.42 350.956C173.34 351.636 177.87 351.636 180.25 351.636C182.63 351.636 190.89 352.886 194.96 351.866C199.03 350.846 199.55 350.206 196.68 348.126Z" fill="#263238" stroke="#263238" stroke-linecap="round" stroke-linejoin="round"/>
<path d="M133.41 167.206C133.41 167.206 128.22 169.596 121.94 180.876C115.07 193.186 116.25 200.026 116.15 214.876C116.05 229.726 115.75 254.376 115.75 254.376C115.75 254.376 134.75 259.466 148.38 258.666C162.01 257.866 179.3 254.776 179.3 254.776C179.3 254.776 175.61 204.496 172.12 190.036C168.63 175.576 166.53 169.036 166.53 169.036C159.785 169.972 152.95 170.073 146.18 169.336C134.61 168.206 133.41 167.206 133.41 167.206Z" fill="#263238" stroke="#263238" stroke-linecap="round" stroke-linejoin="round"/>
<path d="M155.27 211.676C155.79 213.386 156.27 215.116 156.69 216.846" stroke="white" stroke-linecap="round" stroke-linejoin="round"/>
<path d="M143.22 183.376C147.248 190.809 150.705 198.538 153.56 206.496" stroke="white" stroke-linecap="round" stroke-linejoin="round"/>
<path d="M260.8 157.646C260.2 157.246 250.37 155.706 250.37 155.706L248.45 154.916C248.45 154.916 260.35 155.866 260.45 155.366C260.55 154.866 260.95 154.266 260.15 154.166C259.35 154.066 244.04 150.956 244.04 150.956C244.04 150.956 247.93 147.276 248.43 146.476C248.93 145.676 249.62 144.076 248.82 144.076C248.02 144.076 247.82 144.576 246.73 145.276C245.64 145.976 241.34 147.676 240.14 148.666C238.94 149.656 235.36 152.256 235.36 152.256L193.78 146.536C193.78 146.536 179.18 128.536 176.01 124.696C173.806 122.134 171.298 119.85 168.54 117.896C165.48 116.546 165.54 118.806 165.54 118.806L171.93 147.206C171.93 147.206 188.46 157.056 189.48 157.056C190.5 157.056 235.16 158.536 235.16 158.536C235.16 158.536 238.16 159.936 240.04 161.126C241.92 162.316 253.91 166.126 253.91 166.126C253.91 166.126 254.71 165.726 253.81 165.026C252.91 164.326 247.13 161.536 247.13 161.536L259.13 164.136C259.13 164.136 259.83 163.636 259.53 163.136C259.23 162.636 248.53 158.546 248.53 158.546L260.53 159.146C260.53 159.146 261.39 158.046 260.8 157.646Z" fill="white" stroke="#263238" stroke-linecap="round" stroke-linejoin="round"/>
<path d="M191.27 143.446C186.96 138.136 178.35 127.536 176.01 124.696C173.806 122.134 171.298 119.85 168.54 117.896C165.48 116.546 165.54 118.806 165.54 118.806L171.93 147.206C171.93 147.206 179.39 151.646 184.59 154.566L191.27 143.446Z" fill="white" stroke="#263238" stroke-linecap="round" stroke-linejoin="round"/>
<path d="M147.08 115.466C147.08 115.466 138.4 115.866 133.08 121.756C127.76 127.646 128.39 140.606 130.59 148.386C132.79 156.166 135.59 160.456 134.98 163.156C134.37 165.856 132.19 166.746 133.38 169.236C134.57 171.726 141.46 174.426 153.63 174.026C165.8 173.626 168.1 171.026 168.2 168.746C168.3 166.466 167.4 164.556 167.7 163.156C168 161.756 176.78 153.976 176.78 145.396C176.78 136.816 172.99 133.826 172.09 127.636C171.19 121.446 171.49 120.556 167.8 117.856C164.11 115.156 151.97 113.766 147.08 115.466Z" fill="white" stroke="#263238" stroke-linecap="round" stroke-linejoin="round"/>
<path d="M143.14 145.206C140.239 147.634 137.019 149.653 133.57 151.206" stroke="#263238" stroke-linecap="round" stroke-linejoin="round"/>
<path d="M144.1 146.206C144.1 146.206 141.95 153.146 136.68 156.976" stroke="#263238" stroke-linecap="round" stroke-linejoin="round"/>
<path d="M165.64 121.746L166.64 131.326L162.44 126.436L165.64 121.746Z" fill="white" stroke="#263238" stroke-linecap="round" stroke-linejoin="round"/>
<path d="M160.05 132.126L165.64 121.746L160.55 116.266L160.05 132.126Z" fill="white" stroke="#263238" stroke-linecap="round" stroke-linejoin="round"/>
<path d="M149.28 98.5062C150.152 101.965 150.585 105.519 150.57 109.086C150.541 111.396 150.307 113.698 149.87 115.966L160.05 132.126L162.94 117.126L164.84 106.746C164.84 106.746 153.27 106.086 149.28 98.5062Z" fill="white" stroke="#263238" stroke-linecap="round" stroke-linejoin="round"/>
<path d="M159.45 123.446L160.05 132.126L157.06 127.436L159.45 123.446Z" fill="white" stroke="#263238" stroke-linecap="round" stroke-linejoin="round"/>
<path d="M146.48 115.566L155.76 132.226L159.45 123.446L149.58 109.876L146.48 115.566Z" fill="white" stroke="#263238" stroke-linecap="round" stroke-linejoin="round"/>
<path d="M309.06 123.336H224.85V192.436H309.06V123.336Z" fill="#4CAF4F"/>
<mask id="mask11_29_186" style="mask-type:luminance" maskUnits="userSpaceOnUse" x="224" y="123" width="86" height="70">
<path d="M309.06 123.336H224.85V192.436H309.06V123.336Z" fill="white"/>
</mask>
<g mask="url(#mask11_29_186)">
<path opacity="0.2" d="M309.06 123.336H224.85V192.436H309.06V123.336Z" fill="black"/>
</g>
<path d="M309.06 123.336H224.85V192.436H309.06V123.336Z" stroke="#263238" stroke-linecap="round" stroke-linejoin="round"/>
<path d="M291.23 123.336H207.02V192.436H291.23V123.336Z" fill="#4CAF4F" stroke="#263238" stroke-linecap="round" stroke-linejoin="round"/>
<path d="M322.93 215.696C320.23 211.416 309.06 192.436 309.06 192.436H291.24L300.41 215.696H322.93Z" fill="#4CAF4F"/>
<mask id="mask12_29_186" style="mask-type:luminance" maskUnits="userSpaceOnUse" x="291" y="192" width="32" height="24">
<path d="M322.93 215.696C320.23 211.416 309.06 192.436 309.06 192.436H291.24L300.41 215.696H322.93Z" fill="white"/>
</mask>
<g mask="url(#mask12_29_186)">
<path opacity="0.2" d="M322.93 215.696C320.23 211.416 309.06 192.436 309.06 192.436H291.24L300.41 215.696H322.93Z" fill="black"/>
</g>
<path d="M322.93 215.696C320.23 211.416 309.06 192.436 309.06 192.436H291.24L300.41 215.696H322.93Z" stroke="#263238" stroke-linecap="round" stroke-linejoin="round"/>
<path d="M193.1 215.696C195.8 211.416 206.96 192.436 206.96 192.436H224.79L215.62 215.696H193.1Z" fill="#4CAF4F" stroke="#263238" stroke-linecap="round" stroke-linejoin="round"/>
<path d="M206.96 192.436L199.21 215.696H287.16L291.24 192.436H206.96Z" fill="#4CAF4F" stroke="#263238" stroke-linecap="round" stroke-linejoin="round"/>
<path d="M319.9 148.336V171.476" stroke="#263238" stroke-linecap="round" stroke-linejoin="round"/>
<path d="M324.28 158.346V177.106" stroke="#263238" stroke-linecap="round" stroke-linejoin="round"/>
<path d="M197.97 171.476V185.856" stroke="#263238" stroke-linecap="round" stroke-linejoin="round"/>
<path d="M194.22 179.606V190.856" stroke="#263238" stroke-linecap="round" stroke-linejoin="round"/>
<path d="M132.61 140.306C135.594 143.686 139.058 146.611 142.89 148.986C148.89 152.576 170.89 165.046 172.62 165.746C174.35 166.446 226.89 157.866 226.89 157.866C226.89 157.866 229.89 159.266 231.78 160.456C233.67 161.646 245.65 165.456 245.65 165.456C245.65 165.456 246.45 165.056 245.55 164.366C244.65 163.676 238.87 160.866 238.87 160.866L250.87 163.466C250.87 163.466 251.57 162.966 251.27 162.466C250.97 161.966 240.27 157.876 240.27 157.876L252.27 158.476C252.27 158.476 253.17 157.376 252.57 156.976C251.97 156.576 239.68 153.776 239.68 153.776C239.68 153.776 252.75 152.676 252.85 152.176C252.95 151.676 253.35 151.086 252.55 150.986C251.75 150.886 235.39 149.286 235.39 149.286C235.39 149.286 239.68 146.596 240.18 145.796C240.68 144.996 241.38 143.396 240.58 143.396C239.78 143.396 239.58 143.896 238.49 144.596C237.4 145.296 233.1 146.996 231.9 147.986C230.7 148.976 227.11 151.586 227.11 151.586L179.03 151.686L149.18 128.136" fill="white"/>
<path d="M132.61 140.306C135.594 143.686 139.058 146.611 142.89 148.986C148.89 152.576 170.89 165.046 172.62 165.746C174.35 166.446 226.89 157.866 226.89 157.866C226.89 157.866 229.89 159.266 231.78 160.456C233.67 161.646 245.65 165.456 245.65 165.456C245.65 165.456 246.45 165.056 245.55 164.366C244.65 163.676 238.87 160.866 238.87 160.866L250.87 163.466C250.87 163.466 251.57 162.966 251.27 162.466C250.97 161.966 240.27 157.876 240.27 157.876L252.27 158.476C252.27 158.476 253.17 157.376 252.57 156.976C251.97 156.576 239.68 153.776 239.68 153.776C239.68 153.776 252.75 152.676 252.85 152.176C252.95 151.676 253.35 151.086 252.55 150.986C251.75 150.886 235.39 149.286 235.39 149.286C235.39 149.286 239.68 146.596 240.18 145.796C240.68 144.996 241.38 143.396 240.58 143.396C239.78 143.396 239.58 143.896 238.49 144.596C237.4 145.296 233.1 146.996 231.9 147.986C230.7 148.976 227.11 151.586 227.11 151.586L179.03 151.686L149.18 128.136" stroke="#263238" stroke-linecap="round" stroke-linejoin="round"/>
<path d="M252.53 150.986C251.74 150.886 235.37 149.286 235.37 149.286C235.37 149.286 239.66 146.596 240.16 145.796C240.66 144.996 241.36 143.396 240.56 143.396C239.76 143.396 239.56 143.896 238.47 144.596C237.38 145.296 233.08 146.996 231.88 147.986C230.68 148.976 227.09 151.586 227.09 151.586L179.01 151.686L173.68 147.456C171.68 150.966 167.94 157.546 165.51 161.886C169.25 163.966 172.08 165.516 172.65 165.746C174.35 166.446 226.92 157.866 226.92 157.866C226.92 157.866 229.92 159.266 231.81 160.456C233.7 161.646 245.68 165.456 245.68 165.456C245.68 165.456 246.48 165.056 245.58 164.366C244.68 163.676 238.9 160.866 238.9 160.866L250.9 163.466C250.9 163.466 251.6 162.966 251.3 162.466C251 161.966 240.3 157.876 240.3 157.876L252.3 158.476C252.3 158.476 253.2 157.376 252.6 156.976C252 156.576 239.68 153.776 239.68 153.776C239.68 153.776 252.75 152.676 252.85 152.176C252.95 151.676 253.33 151.086 252.53 150.986Z" fill="white" stroke="#263238" stroke-linecap="round" stroke-linejoin="round"/>
<path d="M172.02 90.1262C172.19 89.9193 172.416 89.7644 172.67 89.6793C172.924 89.5942 173.197 89.5823 173.458 89.6448C173.718 89.7074 173.956 89.8419 174.144 90.0331C174.332 90.2243 174.462 90.4645 174.52 90.7262C174.687 91.811 174.631 92.9184 174.356 93.9809C174.081 95.0434 173.592 96.0388 172.92 96.9062C171.82 98.0062 170.82 98.3062 170.82 96.9062C171.098 94.6262 171.498 92.363 172.02 90.1262Z" fill="white" stroke="#263238" stroke-linecap="round" stroke-linejoin="round"/>
<path d="M159.74 72.6462C159.389 77.5128 157.307 82.0928 153.87 85.5562C150.668 88.7047 147.047 91.3968 143.11 93.5562C143.11 93.5562 143.69 96.6862 144.87 97.6662C146.05 98.6462 148.39 98.4562 148.39 98.4562C149.75 102.176 151.963 105.525 154.85 108.236C159.54 112.536 165.02 112.146 168.15 105.696C171.28 99.2462 172.85 92.7762 172.46 89.0562L172.07 85.3362C172.07 85.3362 161.89 79.6862 159.74 72.6462Z" fill="white" stroke="#263238" stroke-linecap="round" stroke-linejoin="round"/>
<path d="M159.15 91.9862C159.647 91.9862 160.05 91.2698 160.05 90.3862C160.05 89.5025 159.647 88.7862 159.15 88.7862C158.653 88.7862 158.25 89.5025 158.25 90.3862C158.25 91.2698 158.653 91.9862 159.15 91.9862Z" fill="#263238"/>
<path d="M164.04 104.756C164.537 104.756 164.94 104.04 164.94 103.156C164.94 102.273 164.537 101.556 164.04 101.556C163.543 101.556 163.14 102.273 163.14 103.156C163.14 104.04 163.543 104.756 164.04 104.756Z" fill="#263238"/>
<path d="M167.83 91.9862C168.327 91.9862 168.73 91.2698 168.73 90.3862C168.73 89.5025 168.327 88.7862 167.83 88.7862C167.333 88.7862 166.93 89.5025 166.93 90.3862C166.93 91.2698 167.333 91.9862 167.83 91.9862Z" fill="#263238"/>
<path d="M166.03 88.6862C165.686 89.8841 165.584 91.1385 165.73 92.3762C166.03 94.0762 167.43 96.9662 166.23 97.4662C165.682 97.716 165.077 97.8108 164.479 97.7402C163.881 97.6697 163.314 97.4366 162.84 97.0662" stroke="#263238" stroke-linecap="round" stroke-linejoin="round"/>
<path d="M156.55 87.4962C156.55 87.4962 157.03 84.4362 161.04 84.7862" stroke="#263238" stroke-linecap="round" stroke-linejoin="round"/>
<path d="M167.29 85.7262C167.29 85.7262 171.03 82.7262 172.24 88.2162" stroke="#263238" stroke-linecap="round" stroke-linejoin="round"/>
</svg>
