<svg xmlns="http://www.w3.org/2000/svg" viewBox="0 0 500 500"><g id="freepik--background-simple--inject-119"><path d="M395.1,32.94c-47,4-171.29,15.51-240.93,10.54C67.1,37.27,61.45,28.72,48.56,55.91S59,156.14,60.65,195.76s13.7,126.64,4.84,178.7S51,441.27,55,456.81s15.32,17.87,29,17.87S203.35,463,260.59,462.25s149.15,16.32,173.34,10.1,25-15.54,16.93-59.05-19.35-198.89-19.35-241.62c0-27.32,8.06-73,8.06-108.78C439.57,44.87,435.54,29.5,395.1,32.94Z" style="fill:#4CAF4F"></path><path d="M395.1,32.94c-47,4-171.29,15.51-240.93,10.54C67.1,37.27,61.45,28.72,48.56,55.91S59,156.14,60.65,195.76s13.7,126.64,4.84,178.7S51,441.27,55,456.81s15.32,17.87,29,17.87S203.35,463,260.59,462.25s149.15,16.32,173.34,10.1,25-15.54,16.93-59.05-19.35-198.89-19.35-241.62c0-27.32,8.06-73,8.06-108.78C439.57,44.87,435.54,29.5,395.1,32.94Z" style="fill:#fff;opacity:0.7000000000000001"></path></g><g id="freepik--Coins--inject-119"><g style="opacity:0.30000000000000004"><path d="M76.18,89.65h-2.3V87a7.38,7.38,0,0,1-5.75-2.73,11.71,11.71,0,0,1-2.2-6.71l0-.4,4.79-1.29,0,.6a16.23,16.23,0,0,0,.5,3.08,5.11,5.11,0,0,0,1.2,2.29,2.84,2.84,0,0,0,2.2.82,2.76,2.76,0,0,0,2.17-.78,3.37,3.37,0,0,0,.73-2.35,5.06,5.06,0,0,0-.86-3.09,17.76,17.76,0,0,0-2.34-2.51l-5.2-4.58a11.43,11.43,0,0,1-1.74-2A7.62,7.62,0,0,1,66.34,65,11.33,11.33,0,0,1,66,62.12a7.48,7.48,0,0,1,2-5.54A7.67,7.67,0,0,1,73,54.5V51.91H75.3v2.6a8.32,8.32,0,0,1,2.52.68A6.07,6.07,0,0,1,80,56.87a8.21,8.21,0,0,1,1.39,2.59,14.49,14.49,0,0,1,.65,3.46l0,.42L77.44,64.6l0-.61A16.4,16.4,0,0,0,77,61.23a3.83,3.83,0,0,0-1.06-1.88,2.68,2.68,0,0,0-2.09-.55,3.59,3.59,0,0,0-2.21.79,2.72,2.72,0,0,0-.73,2.11,4.41,4.41,0,0,0,.42,2.08,7,7,0,0,0,1.45,1.76L78,70.12a18.75,18.75,0,0,1,2.22,2.38,12.32,12.32,0,0,1,1.72,3,10,10,0,0,1,.66,3.7,8.7,8.7,0,0,1-.85,3.92,6.88,6.88,0,0,1-2.42,2.7,7.94,7.94,0,0,1-3.11,1.13Zm-1.3-1h.3V86l.45,0a7.08,7.08,0,0,0,3.12-1,5.77,5.77,0,0,0,2.06-2.31,7.58,7.58,0,0,0,.75-3.47A9,9,0,0,0,81,75.84a11.09,11.09,0,0,0-1.57-2.72,18.19,18.19,0,0,0-2.11-2.25l-5.23-4.59a8.15,8.15,0,0,1-1.66-2,5.38,5.38,0,0,1-.54-2.55,3.65,3.65,0,0,1,1.07-2.86,4.54,4.54,0,0,1,2.8-1,3.6,3.6,0,0,1,2.84.82A4.81,4.81,0,0,1,77.92,61a16.24,16.24,0,0,1,.42,2.34L81,62.59a13.37,13.37,0,0,0-.57-2.82,7.15,7.15,0,0,0-1.21-2.26,5.3,5.3,0,0,0-1.85-1.42,7.65,7.65,0,0,0-2.64-.62l-.46,0V52.91H74v2.54l-.48,0a6.89,6.89,0,0,0-4.75,1.82A6.52,6.52,0,0,0,67,62.12a9.76,9.76,0,0,0,.31,2.6,6.81,6.81,0,0,0,.92,2,11.08,11.08,0,0,0,1.59,1.83L75,73.18a18.15,18.15,0,0,1,2.48,2.65,6,6,0,0,1,1.06,3.69,4.38,4.38,0,0,1-1,3,3.77,3.77,0,0,1-2.91,1.1,3.85,3.85,0,0,1-2.93-1.13,6.23,6.23,0,0,1-1.44-2.72,19.2,19.2,0,0,1-.48-2.66L67,77.91a10.47,10.47,0,0,0,2,5.74A6.57,6.57,0,0,0,74.39,86h.49Z"></path><path d="M74.24,98.08a27.3,27.3,0,1,1,27.31-27.3A27.34,27.34,0,0,1,74.24,98.08Zm0-53.6a26.3,26.3,0,1,0,26.31,26.3A26.33,26.33,0,0,0,74.24,44.48Z"></path><path d="M74.24,95.22A24.44,24.44,0,1,1,98.68,70.78,24.47,24.47,0,0,1,74.24,95.22Zm0-47.88A23.44,23.44,0,1,0,97.68,70.78,23.46,23.46,0,0,0,74.24,47.34Z"></path></g><g style="opacity:0.30000000000000004"><path d="M432.71,227.35h-2v-2a5.53,5.53,0,0,1-4.2-2,8.73,8.73,0,0,1-1.64-5l0-.4,3.78-1,0,.6a12.73,12.73,0,0,0,.37,2.25,3.64,3.64,0,0,0,.85,1.62,2,2,0,0,0,1.52.56,1.92,1.92,0,0,0,1.5-.53,2.37,2.37,0,0,0,.5-1.64,3.6,3.6,0,0,0-.6-2.19,12.37,12.37,0,0,0-1.71-1.82l-3.82-3.37a8.5,8.5,0,0,1-1.3-1.51,5.74,5.74,0,0,1-.8-1.76A8.25,8.25,0,0,1,425,207a5.59,5.59,0,0,1,1.53-4.17,5.69,5.69,0,0,1,3.59-1.56v-1.92h2v1.94a6,6,0,0,1,1.78.49A4.72,4.72,0,0,1,435.5,203a5.78,5.78,0,0,1,1.05,1.95,11.27,11.27,0,0,1,.49,2.58l0,.41-3.68,1-.05-.61a11,11,0,0,0-.32-2,2.71,2.71,0,0,0-.74-1.32,1.86,1.86,0,0,0-1.44-.38,2.63,2.63,0,0,0-1.55.55,1.92,1.92,0,0,0-.49,1.46,3.15,3.15,0,0,0,.29,1.46,5,5,0,0,0,1,1.26l3.84,3.37a13.29,13.29,0,0,1,1.65,1.77,8.68,8.68,0,0,1,1.28,2.21,7.28,7.28,0,0,1,.5,2.78,6.46,6.46,0,0,1-.64,2.94,5.11,5.11,0,0,1-1.82,2,5.87,5.87,0,0,1-2.23.84Zm-6.78-8.68a7.55,7.55,0,0,0,1.42,4.05,4.71,4.71,0,0,0,3.91,1.69h.49l.41,0a5,5,0,0,0,2.24-.74,4.17,4.17,0,0,0,1.47-1.64,5.57,5.57,0,0,0,.53-2.49,6.46,6.46,0,0,0-.42-2.4,8,8,0,0,0-1.14-2,12.67,12.67,0,0,0-1.53-1.64l-3.85-3.37a6.08,6.08,0,0,1-1.25-1.54,4.12,4.12,0,0,1-.41-1.93,2.81,2.81,0,0,1,.83-2.2,3.45,3.45,0,0,1,2.14-.8,2.78,2.78,0,0,1,2.19.64,3.69,3.69,0,0,1,1,1.8,12,12,0,0,1,.29,1.58l1.72-.47a9.24,9.24,0,0,0-.4-1.93,4.82,4.82,0,0,0-.87-1.62,3.63,3.63,0,0,0-1.31-1,5.59,5.59,0,0,0-1.89-.44l-.45,0h0l-.48,0a4.86,4.86,0,0,0-3.41,1.3A4.6,4.6,0,0,0,426,207a7.64,7.64,0,0,0,.22,1.88,4.86,4.86,0,0,0,.67,1.46,7.28,7.28,0,0,0,1.14,1.32l3.82,3.37a14.37,14.37,0,0,1,1.84,2,4.59,4.59,0,0,1,.8,2.79,3.29,3.29,0,0,1-.76,2.32,2.88,2.88,0,0,1-2.24.85,3,3,0,0,1-2.25-.87,4.79,4.79,0,0,1-1.09-2.06,13.59,13.59,0,0,1-.34-1.82Z"></path><path d="M431.15,233.55a20.22,20.22,0,1,1,20.22-20.21A20.24,20.24,0,0,1,431.15,233.55Zm0-39.43a19.22,19.22,0,1,0,19.22,19.22A19.24,19.24,0,0,0,431.15,194.12Z"></path><path d="M431.15,231.44a18.11,18.11,0,1,1,18.11-18.1A18.12,18.12,0,0,1,431.15,231.44Zm0-35.21a17.11,17.11,0,1,0,17.11,17.11A17.12,17.12,0,0,0,431.15,196.23Z"></path></g><g style="opacity:0.30000000000000004"><path d="M196.92,58.72h-2v-2a5.53,5.53,0,0,1-4.19-2.06,8.63,8.63,0,0,1-1.65-5l0-.41,3.78-1,.05.61a11.77,11.77,0,0,0,.36,2.24,3.64,3.64,0,0,0,.85,1.62,2,2,0,0,0,1.52.56,1.92,1.92,0,0,0,1.5-.52,2.39,2.39,0,0,0,.5-1.65,3.62,3.62,0,0,0-.6-2.19,12.89,12.89,0,0,0-1.71-1.82l-3.82-3.37a8.45,8.45,0,0,1-1.3-1.5,5.8,5.8,0,0,1-.8-1.77,8.25,8.25,0,0,1-.26-2.14,5.62,5.62,0,0,1,1.53-4.17,5.69,5.69,0,0,1,3.59-1.56V30.7h2v1.93a6,6,0,0,1,1.78.49,4.72,4.72,0,0,1,1.66,1.27,6.06,6.06,0,0,1,1,2,10.86,10.86,0,0,1,.49,2.58l0,.41-3.68,1,0-.6a11.12,11.12,0,0,0-.32-2,2.71,2.71,0,0,0-.74-1.32,1.81,1.81,0,0,0-1.44-.37,2.5,2.5,0,0,0-1.55.55A1.89,1.89,0,0,0,193,38a3.23,3.23,0,0,0,.29,1.47,5.21,5.21,0,0,0,1,1.26l3.84,3.36a13.93,13.93,0,0,1,1.65,1.77,8.9,8.9,0,0,1,1.29,2.22,7.39,7.39,0,0,1,.5,2.77,6.43,6.43,0,0,1-.65,2.94,5.14,5.14,0,0,1-1.82,2,6,6,0,0,1-2.23.83Zm-6.78-8.67a7.52,7.52,0,0,0,1.42,4,4.72,4.72,0,0,0,3.91,1.69H196l.41,0a4.92,4.92,0,0,0,2.24-.74,4.1,4.1,0,0,0,1.47-1.64,5.57,5.57,0,0,0,.54-2.49,6.5,6.5,0,0,0-.43-2.4,8.17,8.17,0,0,0-1.14-2,12.67,12.67,0,0,0-1.53-1.64l-3.85-3.37A6.23,6.23,0,0,1,192.42,40,4.16,4.16,0,0,1,192,38a2.81,2.81,0,0,1,.83-2.2A3.45,3.45,0,0,1,195,35a2.78,2.78,0,0,1,2.19.64,3.74,3.74,0,0,1,1,1.8,12.65,12.65,0,0,1,.29,1.58l1.72-.46a9,9,0,0,0-.4-1.93,4.78,4.78,0,0,0-.87-1.63,3.61,3.61,0,0,0-1.31-1,5.3,5.3,0,0,0-1.89-.45l-.45,0h0l-.48,0a4.93,4.93,0,0,0-3.41,1.3,4.6,4.6,0,0,0-1.23,3.46,7.58,7.58,0,0,0,.22,1.88,5,5,0,0,0,.67,1.47A7.58,7.58,0,0,0,192.2,43L196,46.37a13.26,13.26,0,0,1,1.84,2,4.56,4.56,0,0,1,.8,2.78,3.29,3.29,0,0,1-.76,2.32,2.88,2.88,0,0,1-2.24.85,3,3,0,0,1-2.25-.87,4.79,4.79,0,0,1-1.09-2.06,13.59,13.59,0,0,1-.34-1.82Z"></path><path d="M195.37,64.92a20.21,20.21,0,1,1,20.21-20.21A20.24,20.24,0,0,1,195.37,64.92Zm0-39.42a19.21,19.21,0,1,0,19.21,19.21A19.24,19.24,0,0,0,195.37,25.5Z"></path><path d="M195.37,62.81a18.11,18.11,0,1,1,18.1-18.1A18.12,18.12,0,0,1,195.37,62.81Zm0-35.21a17.11,17.11,0,1,0,17.1,17.11A17.13,17.13,0,0,0,195.37,27.6Z"></path></g><g style="opacity:0.30000000000000004"><path d="M73.79,198.33h-2v-2a5.57,5.57,0,0,1-4.2-2.06,8.7,8.7,0,0,1-1.65-5l0-.4,3.79-1,0,.61a12.47,12.47,0,0,0,.36,2.24,3.78,3.78,0,0,0,.85,1.63,2,2,0,0,0,1.52.56,2,2,0,0,0,1.51-.53,2.38,2.38,0,0,0,.5-1.64,3.58,3.58,0,0,0-.61-2.19,12.3,12.3,0,0,0-1.7-1.83l-3.82-3.37a8.19,8.19,0,0,1-1.31-1.5,5.8,5.8,0,0,1-.8-1.77A8.25,8.25,0,0,1,66,178a5.62,5.62,0,0,1,1.53-4.16,5.72,5.72,0,0,1,3.59-1.57v-1.91h2v1.93a6.3,6.3,0,0,1,1.77.49A4.59,4.59,0,0,1,76.59,174a5.89,5.89,0,0,1,1,1.94,11,11,0,0,1,.49,2.58l0,.41-3.69,1,0-.6a12,12,0,0,0-.33-2,2.63,2.63,0,0,0-.74-1.32,1.81,1.81,0,0,0-1.44-.37,2.51,2.51,0,0,0-1.54.55,1.85,1.85,0,0,0-.49,1.45,3.1,3.1,0,0,0,.29,1.47,4.78,4.78,0,0,0,1,1.26l3.84,3.36a14.69,14.69,0,0,1,1.65,1.77A9.18,9.18,0,0,1,78,187.72a7.43,7.43,0,0,1,.5,2.77,6.4,6.4,0,0,1-.65,2.94,5.07,5.07,0,0,1-1.82,2,5.86,5.86,0,0,1-2.23.83ZM67,189.66a7.57,7.57,0,0,0,1.42,4,4.71,4.71,0,0,0,3.92,1.69l.49,0,.4,0a5.12,5.12,0,0,0,2.24-.74A4.12,4.12,0,0,0,77,193a5.41,5.41,0,0,0,.54-2.49,6.3,6.3,0,0,0-.43-2.4,7.86,7.86,0,0,0-1.14-2,12.63,12.63,0,0,0-1.53-1.64l-3.84-3.37a5.91,5.91,0,0,1-1.26-1.53,4.14,4.14,0,0,1-.4-1.94,2.8,2.8,0,0,1,.82-2.2,3.51,3.51,0,0,1,2.14-.8,2.77,2.77,0,0,1,2.19.64,3.66,3.66,0,0,1,1,1.8,11.06,11.06,0,0,1,.29,1.58l1.73-.46a9.62,9.62,0,0,0-.4-1.93,5.26,5.26,0,0,0-.87-1.63,3.85,3.85,0,0,0-1.32-1,5.3,5.3,0,0,0-1.89-.45l-.45,0v0h-.48a4.9,4.9,0,0,0-3.41,1.31A4.63,4.63,0,0,0,67,178a7.11,7.11,0,0,0,.23,1.88,4.66,4.66,0,0,0,.66,1.47,7.3,7.3,0,0,0,1.15,1.32L72.89,186a13.26,13.26,0,0,1,1.84,2,4.51,4.51,0,0,1,.81,2.79,3.33,3.33,0,0,1-.77,2.32,3.33,3.33,0,0,1-4.48,0A4.53,4.53,0,0,1,69.2,191a11.72,11.72,0,0,1-.34-1.82Z"></path><path d="M72.24,204.53a20.21,20.21,0,1,1,20.21-20.21A20.23,20.23,0,0,1,72.24,204.53Zm0-39.42a19.21,19.21,0,1,0,19.21,19.21A19.23,19.23,0,0,0,72.24,165.11Z"></path><path d="M72.24,202.42a18.1,18.1,0,1,1,18.1-18.1A18.12,18.12,0,0,1,72.24,202.42Zm0-35.2a17.1,17.1,0,1,0,17.1,17.1A17.12,17.12,0,0,0,72.24,167.22Z"></path></g><g style="opacity:0.30000000000000004"><path d="M340.12,456.44h-2.41v-2.89a8,8,0,0,1-6.27-3,12.66,12.66,0,0,1-2.4-7.28l0-.4,5.14-1.39,0,.61a18.27,18.27,0,0,0,.54,3.36,5.73,5.73,0,0,0,1.32,2.52,3.14,3.14,0,0,0,2.43.9,3.07,3.07,0,0,0,2.4-.86,3.7,3.7,0,0,0,.81-2.6,5.53,5.53,0,0,0-.95-3.38,19.25,19.25,0,0,0-2.55-2.74l-5.67-5a11.85,11.85,0,0,1-1.89-2.18,8.24,8.24,0,0,1-1.15-2.54,11.82,11.82,0,0,1-.38-3.11,8.1,8.1,0,0,1,2.19-6,8.33,8.33,0,0,1,5.4-2.27v-2.81h2.46v2.83a9.23,9.23,0,0,1,2.77.73,6.61,6.61,0,0,1,2.38,1.83,8.7,8.7,0,0,1,1.51,2.8,16.77,16.77,0,0,1,.71,3.76l0,.42-5,1.35,0-.6a17,17,0,0,0-.48-3,4.26,4.26,0,0,0-1.17-2.07,2.9,2.9,0,0,0-2.31-.62,4,4,0,0,0-2.44.88,3,3,0,0,0-.81,2.33,5,5,0,0,0,.46,2.29,7.83,7.83,0,0,0,1.59,1.93l5.7,5a21.35,21.35,0,0,1,2.42,2.58,13.39,13.39,0,0,1,1.86,3.23,10.74,10.74,0,0,1,.72,4,9.3,9.3,0,0,1-.93,4.25,7.38,7.38,0,0,1-2.61,2.92,8.53,8.53,0,0,1-3.42,1.23Zm-1.41-1h.41v-2.86l.45-.05A7.7,7.7,0,0,0,343,451.4a6.4,6.4,0,0,0,2.26-2.54,8.37,8.37,0,0,0,.82-3.79,9.85,9.85,0,0,0-.65-3.65,12.39,12.39,0,0,0-1.72-3,20.82,20.82,0,0,0-2.3-2.46l-5.7-5a8.8,8.8,0,0,1-1.8-2.2,5.94,5.94,0,0,1-.58-2.76,4,4,0,0,1,1.15-3.08,4.91,4.91,0,0,1,3-1.13,3.94,3.94,0,0,1,3.07.89,5.15,5.15,0,0,1,1.45,2.55,16.59,16.59,0,0,1,.46,2.59l3-.82a14.49,14.49,0,0,0-.62-3.11,7.86,7.86,0,0,0-1.33-2.49,5.76,5.76,0,0,0-2-1.55,8.08,8.08,0,0,0-2.89-.68l-.46,0v-2.75h-.46v2.77l-.49,0a7.5,7.5,0,0,0-5.2,2,7.12,7.12,0,0,0-1.9,5.29,11.19,11.19,0,0,0,.34,2.85,7.36,7.36,0,0,0,1,2.24,11.31,11.31,0,0,0,1.73,2l5.66,5a20.9,20.9,0,0,1,2.7,2.89,6.54,6.54,0,0,1,1.14,4,4.68,4.68,0,0,1-1.07,3.28,4.09,4.09,0,0,1-3.14,1.18,4.17,4.17,0,0,1-3.16-1.22,6.69,6.69,0,0,1-1.55-2.94,19,19,0,0,1-.53-2.95l-3.2.87a11.5,11.5,0,0,0,2.17,6.31c1.3,1.7,3.26,2.55,6,2.6h.49Z"></path><path d="M338.06,465.63a29.71,29.71,0,1,1,29.71-29.71A29.74,29.74,0,0,1,338.06,465.63Zm0-58.41a28.71,28.71,0,1,0,28.71,28.7A28.73,28.73,0,0,0,338.06,407.22Z"></path><path d="M338.06,462.51a26.59,26.59,0,1,1,26.58-26.59A26.61,26.61,0,0,1,338.06,462.51Zm0-52.17a25.59,25.59,0,1,0,25.58,25.58A25.61,25.61,0,0,0,338.06,410.34Z"></path></g><g style="opacity:0.30000000000000004"><path d="M138.34,436.65h-2v-2a5.57,5.57,0,0,1-4.2-2.06,8.7,8.7,0,0,1-1.64-5l0-.41,3.78-1,0,.61a12.62,12.62,0,0,0,.37,2.24,3.73,3.73,0,0,0,.85,1.63,2,2,0,0,0,1.52.56,1.93,1.93,0,0,0,1.5-.53,2.39,2.39,0,0,0,.5-1.65,3.57,3.57,0,0,0-.6-2.18,12.92,12.92,0,0,0-1.71-1.83L133,421.68a8.45,8.45,0,0,1-1.3-1.5,5.8,5.8,0,0,1-.8-1.77,8.25,8.25,0,0,1-.26-2.14,5.58,5.58,0,0,1,1.53-4.16,5.7,5.7,0,0,1,3.59-1.57v-1.91h2v1.93a6.37,6.37,0,0,1,1.78.49,4.47,4.47,0,0,1,1.66,1.28,5.73,5.73,0,0,1,1.05,1.94,11,11,0,0,1,.49,2.58l0,.41-3.68,1-.05-.6a11.12,11.12,0,0,0-.32-2,2.75,2.75,0,0,0-.74-1.32,1.81,1.81,0,0,0-1.44-.37,2.56,2.56,0,0,0-1.55.55,1.89,1.89,0,0,0-.49,1.45,3.23,3.23,0,0,0,.29,1.47,5.21,5.21,0,0,0,1,1.26l3.84,3.36a13.93,13.93,0,0,1,1.65,1.77,8.9,8.9,0,0,1,1.29,2.22,7.43,7.43,0,0,1,.49,2.77,6.4,6.4,0,0,1-.64,2.94,5.14,5.14,0,0,1-1.82,2,5.86,5.86,0,0,1-2.23.83ZM131.56,428a7.49,7.49,0,0,0,1.42,4,4.71,4.71,0,0,0,3.91,1.69l.49,0,.41,0A5.17,5.17,0,0,0,140,433a4.2,4.2,0,0,0,1.47-1.65,5.54,5.54,0,0,0,.53-2.49,6.5,6.5,0,0,0-.42-2.4,8.17,8.17,0,0,0-1.14-2,13.36,13.36,0,0,0-1.53-1.64l-3.85-3.37a6.05,6.05,0,0,1-1.25-1.53,4.13,4.13,0,0,1-.41-1.94,2.81,2.81,0,0,1,.83-2.2,3.45,3.45,0,0,1,2.14-.8,2.78,2.78,0,0,1,2.19.64,3.74,3.74,0,0,1,1,1.8,12.65,12.65,0,0,1,.29,1.58l1.72-.46a9.11,9.11,0,0,0-.4-1.93,4.87,4.87,0,0,0-.87-1.63,3.72,3.72,0,0,0-1.31-1,5.3,5.3,0,0,0-1.89-.45l-.45,0v0h-.48a4.89,4.89,0,0,0-3.41,1.31,4.58,4.58,0,0,0-1.23,3.45,7.58,7.58,0,0,0,.22,1.88,5,5,0,0,0,.67,1.47,7.63,7.63,0,0,0,1.14,1.32l3.82,3.36a13.81,13.81,0,0,1,1.84,2,4.56,4.56,0,0,1,.8,2.78,3.29,3.29,0,0,1-.76,2.32,2.89,2.89,0,0,1-2.24.86,3,3,0,0,1-2.25-.88,4.79,4.79,0,0,1-1.09-2.06,13,13,0,0,1-.34-1.82Z"></path><path d="M136.78,442.85A20.21,20.21,0,1,1,157,422.64,20.24,20.24,0,0,1,136.78,442.85Zm0-39.42A19.21,19.21,0,1,0,156,422.64,19.23,19.23,0,0,0,136.78,403.43Z"></path><path d="M136.78,440.74a18.1,18.1,0,1,1,18.11-18.1A18.12,18.12,0,0,1,136.78,440.74Zm0-35.2a17.1,17.1,0,1,0,17.11,17.1A17.12,17.12,0,0,0,136.78,405.54Z"></path></g><g style="opacity:0.30000000000000004"><path d="M426.39,76.59h-2v-2a5.49,5.49,0,0,1-4.19-2.05,8.67,8.67,0,0,1-1.65-5l0-.4,3.79-1,0,.6a11.87,11.87,0,0,0,.36,2.25,3.74,3.74,0,0,0,.85,1.62,2,2,0,0,0,1.52.56,1.89,1.89,0,0,0,1.5-.53,2.32,2.32,0,0,0,.5-1.64,3.6,3.6,0,0,0-.6-2.19,12.82,12.82,0,0,0-1.7-1.82L421,61.61a8.51,8.51,0,0,1-1.3-1.5,5.74,5.74,0,0,1-.8-1.76,8.25,8.25,0,0,1-.26-2.14A5.63,5.63,0,0,1,420.17,52a5.69,5.69,0,0,1,3.59-1.56V48.56h2V50.5a6,6,0,0,1,1.78.49,4.76,4.76,0,0,1,1.67,1.27,5.94,5.94,0,0,1,1,2,10.76,10.76,0,0,1,.49,2.58l0,.41-3.68,1-.05-.61a11.15,11.15,0,0,0-.32-2,2.71,2.71,0,0,0-.74-1.32,1.81,1.81,0,0,0-1.44-.38,2.57,2.57,0,0,0-1.54.55,1.83,1.83,0,0,0-.5,1.46,3,3,0,0,0,.3,1.46,4.76,4.76,0,0,0,1,1.26L427.65,62a14.76,14.76,0,0,1,1.66,1.77A9.12,9.12,0,0,1,430.59,66a7.48,7.48,0,0,1,.5,2.78,6.46,6.46,0,0,1-.65,2.94,5,5,0,0,1-1.82,2,5.87,5.87,0,0,1-2.23.84Zm-6.78-8.68A7.55,7.55,0,0,0,421,72a4.74,4.74,0,0,0,3.91,1.69h.49l.41,0a5,5,0,0,0,2.24-.74,4.1,4.1,0,0,0,1.47-1.64,5.47,5.47,0,0,0,.54-2.49,6.46,6.46,0,0,0-.43-2.4,7.69,7.69,0,0,0-1.14-2A12.67,12.67,0,0,0,427,62.74l-3.85-3.37a6.08,6.08,0,0,1-1.25-1.54,4.12,4.12,0,0,1-.41-1.93,2.81,2.81,0,0,1,.83-2.2,3.45,3.45,0,0,1,2.14-.8,2.75,2.75,0,0,1,2.19.64,3.63,3.63,0,0,1,1,1.79,11.46,11.46,0,0,1,.29,1.59l1.72-.47a9.24,9.24,0,0,0-.4-1.93,4.89,4.89,0,0,0-.86-1.62,3.62,3.62,0,0,0-1.32-1,5.3,5.3,0,0,0-1.89-.45l-.45,0h0l-.48,0a4.93,4.93,0,0,0-3.41,1.3,4.6,4.6,0,0,0-1.23,3.46,7.64,7.64,0,0,0,.22,1.88,5,5,0,0,0,.67,1.46,7.28,7.28,0,0,0,1.14,1.32l3.82,3.37a13.77,13.77,0,0,1,1.84,2,4.61,4.61,0,0,1,.8,2.79,3.29,3.29,0,0,1-.76,2.32,2.88,2.88,0,0,1-2.24.85,3,3,0,0,1-2.25-.87,4.79,4.79,0,0,1-1.09-2.06,13.58,13.58,0,0,1-.33-1.82Z"></path><path d="M424.84,82.79a20.22,20.22,0,1,1,20.21-20.21A20.24,20.24,0,0,1,424.84,82.79Zm0-39.43a19.22,19.22,0,1,0,19.21,19.22A19.24,19.24,0,0,0,424.84,43.36Z"></path><path d="M424.84,80.68a18.11,18.11,0,1,1,18.1-18.1A18.12,18.12,0,0,1,424.84,80.68Zm0-35.21a17.11,17.11,0,1,0,17.1,17.11A17.13,17.13,0,0,0,424.84,45.47Z"></path></g></g><g id="freepik--World--inject-119"><polygon points="227.28 126.79 239.62 129.34 243.82 133.71 249.3 134.55 251.04 139.75 249.77 143.27 246.03 144.98 236.87 143.49 236.62 142.36 240.95 139.34 237.96 133.83 229.77 132.71 225.41 128.97 227.28 126.79" style="fill:#4CAF4F"></polygon><path d="M326.68,240.61,316.9,239l-11.8-1.5-8.69,1.93-8.5.12-8.54,4-5,1.4-3.08.68-5.14,4.68-5.11,3.48-8.63-3.08.22-8.29-5.2-.9-5.61,1.24-1.4-2.33-.56-5.17-2.58-2.37-3.8,1.43-.5,3.06-4.71,1.33L223,234.52l-3.18-6.35,2.46-8.79,8.26-1.24,2.68,1.46,3.36-.74,3.65-3.46,3.89.31,7,7.57,1.9-.71-2-6.33-2.43-3-.62-5.45L257.3,201l-.91-10.68,3.68-4.64,2.21-7.26,2.68-1.18,5.51-5.64-.21-2.3-4.43,1.28-1.33-2.06-3.09.68-4.51,2.18,1.43-4.14,9.19-5,1.68-3,5.29,5.29,3.09,2,3.67-2-2.49-3.27-6.82-2.89-8.41-6.08-8.06-3.21-7,.38-4.11-2.62-4.74-.13-.31,1.25,1.25,8.25,1.74,2.56-.53,9.53-6.6-3.24,0-4.11-6.51-1.5-3.21-2.52-.15-7.32,6.82-7.69-.94-6.86-3,1-2.52-2.09-1.77-4-2,.16-.12,4.73-3,1.25-3.58-9.5-2.56-.91-4.3-.81-4,3.24,6.79,4.08,2.18,4.52-11.78-5.33-8.68-6-2.25-7.44-7.78-.63-4.8,4.89a43.61,43.61,0,0,1-3.71,3.18,47.71,47.71,0,0,1-6.48,2.61l-.06,5-6.38,1.71,1.24,3,10.75-.62,6.63,4.7,2.18,9.81L181,160.89l2.61,9.12-4.8,15.48,2.86,20.84,5.14,11.21,5.64,8.16,4.33-.37-2.4-4.17-3-2.87-2.77-5.86,2.4-1.12,6.16,9.22,4.8,8.35,1.62,7.29,6.76,5.26,11.08,4.9,15.45.68,5.42,3.21L246.7,254l5.73,2,6.54.32,6.1-1.65s.35,2.86.66,4.26-2.56,7-2.56,7l-1.84,6.29,3.62,5.67,6.72,1.15,10.69,7.05,4.29.81.94,4.2.92,1.85a120.53,120.53,0,0,0,52.65-40.73l-.31-2.07,4.52-15.42-4.2-1.71Z" style="fill:#4CAF4F"></path><path d="M331.25,123.41,327,118.77l-5.29-5.3-3-8.16,5.23-.28-.34-2.86-3.71.53,2.77-2.09,2.93-2.71L325,95.1l-4.36-3.74-2.06-5.88a121.05,121.05,0,0,0-146.07-2.8L180,85.83l-2.81,5.91-5.07,2.31,1.12,7.69-2.06,1.34L169,106.79l1.4,5,4.89-.5-.9,5.2,4.76-1.06L185,103.24l-.16-4.68,7.73-2.3,1.21-3.8,7.95-2.64-.22-5,5.82-1.58s3.71-3.18,4.55-3.37a35.93,35.93,0,0,1,5.08.35l5,2.43,5.89-1.31,4.36-4.21,6.57-.87a7.08,7.08,0,0,0,3.33.44c1.4-.31,5.17-3.21,5.17-3.21l9.25,3.24,3.93,1.78.93,4.2,4.33-.37.84-2.83,4,.87.22,2.3-7.91,4.11L269,91.94l11.34,3.37,5.45,4.67,6.29-.81.78-3.11L294.94,95l-8.54-4-4.61.44,3.4-1.93-4.42-4,4.7-1.34,6.91,2,2.9,6.42,3.89,3,4.33,7.57,7.16,3.11,2.06,9.25,7.38,2.78.4,3.14,0,3.83,2.8,4.68,1.12,2.39,5-.21,1.18-5.27Z" style="fill:#4CAF4F"></path><path d="M328.62,94.36,329,96l-.41,4.8,1.71,3.73,3.34.44,1.18,5.33-3.68-.66,2.53,15.33-2,6.91,4,7.35,4.39,2.55,3.36,15.14,6.26,11,5.91,8.1,6.83.25,1-6.11.76-.92a121.43,121.43,0,0,0-35.52-74.82Z" style="fill:#4CAF4F"></path><polygon points="263.48 106.98 243.17 102.97 235.1 105.05 234.32 110.81 230.15 107.92 224.29 110.69 225.79 120.06 231.64 122.58 234.1 116.45 239.24 119.72 249.61 125.36 253.1 133.12 262.44 140.75 273.78 136.17 272.57 132.03 268.99 127.82 265.94 116.73 267.68 111.35 263.48 106.98" style="fill:#4CAF4F"></polygon><polygon points="279.98 109.79 275.53 109.6 272.57 113.5 276.34 121.19 279.98 120.38 279.98 109.79" style="fill:#4CAF4F"></polygon><polygon points="307.24 109.33 296.58 106.4 293.88 103.47 291.82 104.81 295.03 109.98 298.33 116.89 302.9 117.64 303.5 116.33 300.04 112.69 307.95 113.88 307.24 109.33" style="fill:#4CAF4F"></polygon><polygon points="247.85 228.7 246.98 230.07 255.95 230.73 260.19 233.9 265.64 233.28 266.92 229.76 260.22 230.07 247.85 228.7" style="fill:#4CAF4F"></polygon><polygon points="273.99 228.49 268.47 231.48 269.81 233.53 277.1 231.91 278 229.36 275.54 230.2 273.99 228.49" style="fill:#4CAF4F"></polygon><path d="M243.7,302.28A121.88,121.88,0,1,1,365.58,180.4,122,122,0,0,1,243.7,302.28Zm0-241.76A119.88,119.88,0,1,0,363.58,180.4,120,120,0,0,0,243.7,60.52Z" style="fill:#263238"></path><path d="M243.7,301.78c-42.06,0-76.27-54.45-76.27-121.38S201.64,59,243.7,59,320,113.47,320,180.4,285.76,301.78,243.7,301.78ZM243.7,60c-41.5,0-75.27,54-75.27,120.38S202.2,300.78,243.7,300.78,319,246.78,319,180.4,285.21,60,243.7,60Z" style="fill:#263238"></path><path d="M243.7,301.78c-7.62,0-14.73-12.71-20-35.8-5.22-22.86-8.1-53.26-8.1-85.58s2.88-62.72,8.1-85.59C229,71.73,236.08,59,243.7,59s14.73,12.71,20,35.79c5.22,22.87,8.09,53.27,8.09,85.59s-2.87,62.72-8.09,85.58C258.43,289.07,251.33,301.78,243.7,301.78ZM243.7,60c-14.94,0-27.09,54-27.09,120.38s12.15,120.38,27.09,120.38,27.09-54,27.09-120.38S258.64,60,243.7,60Z" style="fill:#263238"></path><path d="M310.65,80.59H177.38a.5.5,0,0,1-.5-.5.5.5,0,0,1,.5-.5H310.65a.5.5,0,0,1,.5.5A.5.5,0,0,1,310.65,80.59Z" style="fill:#263238"></path><path d="M354.4,133.31H132.67a.5.5,0,0,1-.5-.5.5.5,0,0,1,.5-.5H354.4a.51.51,0,0,1,.5.5A.5.5,0,0,1,354.4,133.31Z" style="fill:#263238"></path><path d="M310.65,281.09H177.38a.5.5,0,0,1-.5-.5.5.5,0,0,1,.5-.5H310.65a.5.5,0,0,1,.5.5A.5.5,0,0,1,310.65,281.09Z" style="fill:#263238"></path><path d="M355.26,228.37H132.81a.51.51,0,0,1-.5-.5.5.5,0,0,1,.5-.5H355.26a.5.5,0,0,1,.5.5A.5.5,0,0,1,355.26,228.37Z" style="fill:#263238"></path><path d="M364.58,180.9H122.83a.5.5,0,0,1,0-1H364.58a.5.5,0,0,1,0,1Z" style="fill:#263238"></path></g><g id="freepik--Hands--inject-119"><path d="M304.09,324.12s-20.38-7-33.37-15.1-21.78-11.24-26.35-10.54-14.76.7-22.13,2.11-12,2.81-13.35,6.32,4.57,13.35,11.94,15.46S243,334.31,243,334.31s-64.28,61.48-61.82,67.8,30.56,32,34.42,32.32,61.83-17.57,65.34-18.27A69.06,69.06,0,0,0,303,407a75.25,75.25,0,0,0,12.65-10.19l29.16-12.65-33-63.58Z" style="fill:#fff"></path><path d="M215.66,434.93h-.14c-4.51-.4-32.52-26.63-34.85-32.63-2.46-6.32,53.07-59.83,61.5-67.91-2.69-1.75-15-9.69-21.47-11.53-5-1.43-9.26-6.19-11.26-10.27-1.19-2.43-1.55-4.51-1-5.86,1.47-3.65,6-5.14,13.72-6.63a124.77,124.77,0,0,1,14.57-1.47c3.1-.19,5.78-.36,7.58-.64,5.05-.78,14.28,2.9,26.69,10.61,12.14,7.55,31,14.26,33.08,15l7.55-3.43a.51.51,0,0,1,.65.23l33,63.58a.47.47,0,0,1,0,.4.51.51,0,0,1-.27.29L316,397.26a78.55,78.55,0,0,1-12.66,10.18A69.82,69.82,0,0,1,281,416.65c-1.11.22-8,2.27-16.72,4.86C240.43,428.58,218.78,434.93,215.66,434.93Zm30.05-136a8.3,8.3,0,0,0-1.26.09c-1.85.29-4.55.45-7.67.65a121.65,121.65,0,0,0-14.45,1.46c-7.42,1.41-11.69,2.79-13,6-.42,1.05,0,2.94,1,5.05,1.9,3.88,5.93,8.4,10.63,9.75,7.37,2.1,21.67,11.6,22.27,12a.49.49,0,0,1,.22.38.46.46,0,0,1-.15.4c-25.74,24.62-63.42,62.85-61.71,67.26,2.47,6.33,30.42,31.67,34,32,2.48.22,31.23-8.29,48.38-13.38,9.09-2.7,15.66-4.65,16.82-4.88a69.24,69.24,0,0,0,21.95-9.06,76.63,76.63,0,0,0,12.55-10.11.66.66,0,0,1,.17-.12L344.15,384l-32.56-62.69-7.3,3.32a.47.47,0,0,1-.37,0c-.2-.07-20.57-7.13-33.47-15.15C259.41,302.58,250.73,298.88,245.71,298.88Z" style="fill:#263238"></path><path d="M274.51,383.22s14.82,13.22,16.43,18.84a20.59,20.59,0,0,1-.4,11.22l-9.64,2.88Z" style="fill:#263238"></path><path d="M280.9,416.66a.48.48,0,0,1-.26-.07.55.55,0,0,1-.23-.33L274,383.31a.5.5,0,0,1,.83-.46c.61.54,15,13.38,16.58,19.07a20.9,20.9,0,0,1-.41,11.53.53.53,0,0,1-.33.31l-9.63,2.88Zm-5.62-32.06,6,30.92,8.85-2.65a20.08,20.08,0,0,0,.32-10.68C289.17,397.67,278.74,387.79,275.28,384.6Zm15.26,28.68h0Z" style="fill:#263238"></path><polygon points="320.6 342.34 334.22 388.03 344.84 384.19 320.6 342.34" style="fill:#263238"></polygon><path d="M334.22,388.53a.46.46,0,0,1-.22-.06.51.51,0,0,1-.26-.3l-13.62-45.69a.5.5,0,0,1,.91-.39l24.24,41.85a.52.52,0,0,1,0,.42.5.5,0,0,1-.3.3l-10.62,3.84A.47.47,0,0,1,334.22,388.53Zm-11.93-42.28,12.26,41.13,9.56-3.45Z" style="fill:#263238"></path><path d="M220.83,322.37s26,4.56,30.92,6.67,31.61,30.56,41.1,39.34,14.4,22.49,14.75,31.27-3.16,20.37-7.73,22.13-7.73-.7-9.13-4.21-2.11-10.19-2.11-10.19L283,395.79a51.52,51.52,0,0,1-.7,13.7c-1.41,6.67-3.87,20.72-9.49,24.23s-12.29,1.41-13-.35a40.35,40.35,0,0,1-1.41-4.91s-1.76,6.32-7,8.07-12.64-.35-12.64-.35-6,7-10.89,5.62-9.84-6.67-9.84-6.67-16.51-10.19-31.61-20.73-42.16-43.56-42.16-43.56l-13-8.08,39.7-55.5,16.86,10.54Z" style="fill:#fff"></path><path d="M229.22,442.49a5.53,5.53,0,0,1-1.5-.2c-4.79-1.37-9.47-6.19-10-6.77-1.07-.67-17.07-10.59-31.58-20.71-14.67-10.23-40.85-41.94-42.2-43.59l-12.93-8a.49.49,0,0,1-.23-.33.54.54,0,0,1,.09-.39L170.54,307a.49.49,0,0,1,.67-.13L188,317.32l32.91,4.55h0c1.06.19,26.11,4.6,31,6.71,3.31,1.42,15.85,14.07,26.9,25.23,5.7,5.75,11.08,11.19,14.35,14.21,9.3,8.61,14.54,22.42,14.91,31.61.35,8.71-3.16,20.74-8.05,22.62-5.1,2-8.39-1-9.77-4.5s-2-9.4-2.14-10.23l-4.49-9.26a49.63,49.63,0,0,1-.85,11.33l-.36,1.72c-1.49,7.29-4,19.49-9.35,22.84a13.33,13.33,0,0,1-10.88,1.39,4.53,4.53,0,0,1-2.85-2,29.72,29.72,0,0,1-1-3.39c-.9,2.06-2.94,5.56-6.77,6.84-4.8,1.6-11.15.12-12.63-.26C237.9,437.88,233.5,442.49,229.22,442.49ZM132,362.62l12.55,7.8a.6.6,0,0,1,.12.11c.27.33,27.18,33.09,42.05,43.46s31.43,20.61,31.6,20.71l.1.09c.05,0,4.88,5.18,9.61,6.53,4.55,1.3,10.31-5.39,10.37-5.46a.51.51,0,0,1,.52-.16c.07,0,7.29,2.05,12.35.36s6.68-7.68,6.7-7.74a.49.49,0,0,1,.48-.36h0a.49.49,0,0,1,.48.39,42.11,42.11,0,0,0,1.38,4.84,3.79,3.79,0,0,0,2.23,1.4,12.3,12.3,0,0,0,10-1.29c5-3.12,7.44-15.06,8.9-22.19l.36-1.73a51.11,51.11,0,0,0,.69-13.55.5.5,0,0,1,.95-.26l5.62,11.59a.48.48,0,0,1,.05.17c0,.06.71,6.64,2.07,10.05.59,1.46,2.93,6.07,8.49,3.93,4-1.55,7.78-12.47,7.41-21.64-.36-9-5.49-22.49-14.59-30.92-3.28-3-8.67-8.47-14.38-14.23-10.44-10.55-23.45-23.68-26.58-25-4.78-2.05-30.2-6.53-30.8-6.64l-33-4.57a.44.44,0,0,1-.19-.07l-16.47-10.29Z" style="fill:#263238"></path><polygon points="175.91 322.7 148.62 375.21 144.25 370.84 175.91 322.7" style="fill:#263238"></polygon><path d="M148.62,375.71a.5.5,0,0,1-.35-.14l-4.37-4.37a.5.5,0,0,1-.07-.63l31.66-48.15a.5.5,0,0,1,.67-.15.49.49,0,0,1,.19.66l-27.29,52.51a.5.5,0,0,1-.36.27Zm-3.73-4.93,3.6,3.6L171,331.12Z" style="fill:#263238"></path><path d="M228.56,300.23s-14.77-.38-18.27,1.06c-6,2.46-6.32,10.54-6.32,11.94s-4.21,12.65-4.92,16.86,4.22,6.33,15.46,2.46,14.4-8.78,14.4-19.32" style="fill:#fff"></path><path d="M204.64,335.08a7.47,7.47,0,0,1-4.86-1.35,3.8,3.8,0,0,1-1.22-3.72,98,98,0,0,1,3.06-10.55,54.78,54.78,0,0,0,1.85-6.23c0-1,.19-9.75,6.63-12.4,3.56-1.47,17.87-1.11,18.47-1.1a.5.5,0,0,1,.49.52.51.51,0,0,1-.51.48c-.15,0-14.7-.36-18.07,1-5.84,2.41-6,10.56-6,11.48,0,.68-.68,2.82-1.9,6.54a97.13,97.13,0,0,0-3,10.41,2.82,2.82,0,0,0,.88,2.79c2.08,1.76,7.15,1.43,13.92-.89,10.64-3.66,14.06-8.24,14.06-18.85a.51.51,0,0,1,.5-.5.5.5,0,0,1,.5.5c0,11.15-3.58,16-14.74,19.8A32.24,32.24,0,0,1,204.64,335.08Z" style="fill:#263238"></path><path d="M200.11,328.13a.48.48,0,0,1-.26-.07.49.49,0,0,1-.21-.61l4.22-10.89a.41.41,0,0,1,.17-.22,10.67,10.67,0,0,1,5.56-1.85,4,4,0,0,1,3.1,1.23c1.05,1.15,1.48,3,1.26,5.63a4.6,4.6,0,0,1-1.76,3.31c-1.95,1.59-5.3,2-7.58,1.72a4.85,4.85,0,0,0-4.12,1.58A.52.52,0,0,1,200.11,328.13Zm4.62-11.06-3.49,9a5.56,5.56,0,0,1,3.5-.72c2.07.26,5.1-.1,6.82-1.5a3.65,3.65,0,0,0,1.4-2.61c.19-2.3-.15-3.94-1-4.87a3,3,0,0,0-2.36-.91A9.79,9.79,0,0,0,204.73,317.07Z" style="fill:#263238"></path><path d="M283,396.29a.5.5,0,0,1-.48-.37s-1.32-4.34-12.19-17a37.28,37.28,0,0,1-4.88-8c-.52-1.06-1-2.06-1.5-2.9a.5.5,0,0,1,.19-.68.5.5,0,0,1,.68.18c.5.87,1,1.88,1.53,3a36.54,36.54,0,0,0,4.74,7.79c11.1,12.95,12.35,17.23,12.39,17.4a.49.49,0,0,1-.35.62Z" style="fill:#263238"></path><path d="M263.21,366.18a.51.51,0,0,1-.44-.25l-1.27-2.22a.33.33,0,0,1-.06-.19l-.71-7a.52.52,0,0,1,.45-.55.51.51,0,0,1,.55.45l.69,6.92,1.22,2.12a.51.51,0,0,1-.18.69A.57.57,0,0,1,263.21,366.18Z" style="fill:#263238"></path><path d="M258.42,429a.5.5,0,0,1-.39-.82c1.22-1.52,2.71-9.71.68-12.76s-15.95-30.16-16.54-31.31a.51.51,0,0,1-.06-.21l-.35-8.43a.5.5,0,0,1,.48-.52.51.51,0,0,1,.52.48l.35,8.32c.93,1.83,14.42,28.11,16.43,31.12,2.21,3.31.86,12-.73,13.94A.51.51,0,0,1,258.42,429Z" style="fill:#263238"></path><path d="M238.75,436.68a.5.5,0,0,1-.5-.47c0-.11-.76-11.16-6.22-18a82.15,82.15,0,0,1-5.86-8.73.49.49,0,0,1,.17-.69.5.5,0,0,1,.68.17,80.34,80.34,0,0,0,5.8,8.62c5.65,7.07,6.4,18.09,6.43,18.55a.5.5,0,0,1-.47.53Z" style="fill:#263238"></path><path d="M224.72,406.52a.5.5,0,0,1-.44-.25c-2.8-4.92-4.93-9.17-4.95-9.21a.54.54,0,0,1-.05-.22v-4.57a.5.5,0,0,1,1,0v4.45c.34.68,2.32,4.59,4.87,9a.51.51,0,0,1-.19.69A.5.5,0,0,1,224.72,406.52Z" style="fill:#263238"></path><path d="M163,396.4S154.55,394,152.18,391s-3.39-12.71-3.56-15.76-2-6.1,1.69-7.45,8.65,2.71,10.51,6.78,2,9.65,2,10.5,2.88,5.42,2.88,5.42S168.44,395.72,163,396.4Z" style="fill:#fff"></path><path d="M163,396.9l-.13,0c-.35-.1-8.66-2.46-11.11-5.6-2.9-3.73-3.65-15.92-3.66-16a17.08,17.08,0,0,0-.31-2.13c-.42-2.18-.89-4.65,2.33-5.82,3.88-1.41,9.08,2.55,11.13,7S163.35,385,163.35,385a29.31,29.31,0,0,0,2.81,5.16c.07.15,1.39,2.75.35,4.72a4.12,4.12,0,0,1-3.43,2ZM151.85,368a4,4,0,0,0-1.37.23c-2.3.84-2.15,2.26-1.69,4.69a16.54,16.54,0,0,1,.33,2.27c.21,3.88,1.34,12.76,3.45,15.48s9.55,4.94,10.49,5.22a3.18,3.18,0,0,0,2.57-1.43c.8-1.52-.33-3.74-.34-3.77-.87-1.37-2.94-4.75-2.94-5.65,0-.06,0-6-2-10.3C158.77,371.26,155,368,151.85,368Z" style="fill:#263238"></path><path d="M149.6,381.67s3,3,5.19,2.85.67-7.55.67-7.55a10.18,10.18,0,0,1-4.19-2.17,36.07,36.07,0,0,1-2.84-2.85Z" style="fill:#fff"></path><path d="M154.62,385c-2.35,0-5.25-2.87-5.38-3a.61.61,0,0,1-.14-.29L147.93,372a.5.5,0,0,1,.29-.52.49.49,0,0,1,.58.13,38.26,38.26,0,0,0,2.81,2.8,9.53,9.53,0,0,0,4,2.06.52.52,0,0,1,.38.39c.13.6,1.16,5.9-.1,7.57a1.39,1.39,0,0,1-1,.57Zm-4.55-3.59c.9.86,3.17,2.68,4.68,2.59a.43.43,0,0,0,.31-.19c.71-.94.38-4.33,0-6.45a10.63,10.63,0,0,1-4.09-2.21c-.76-.69-1.37-1.29-1.84-1.76Z" style="fill:#263238"></path><path d="M178.78,413s-9,1.86-11.18-1.19-6.61-15.25-6.44-19.48,11.35-14.57,16.94-18.81,9.15-5.59,12.54-3.56,6.1,4.58,5.09,8.13-9.15,18.81-10.51,21.52-2.71,12.2-2.71,12.2Z" style="fill:#fff"></path><path d="M173.31,414.06c-2.44,0-5-.41-6.12-1.95-2.23-3.1-6.71-15.32-6.53-19.8s11.44-14.87,17.14-19.19c5.21-3.94,9.21-5.92,13.1-3.59,2.85,1.72,6.51,4.48,5.31,8.7-.83,2.89-6.15,13.14-9,18.65-.71,1.36-1.26,2.41-1.53,3-1.31,2.61-2.65,12-2.67,12a.48.48,0,0,1-.34.41l-3.73,1.19h-.05A30.82,30.82,0,0,1,173.31,414.06Zm14.12-44.52c-2.31,0-5.08,1.39-9,4.38-5.76,4.36-16.59,14.54-16.74,18.43-.17,4.23,4.23,16.24,6.34,19.17,1.65,2.28,8.22,1.5,10.65,1l3.41-1.09c.25-1.69,1.46-9.54,2.71-12l1.54-3c2.84-5.47,8.14-15.66,8.93-18.45s-.71-5.08-4.86-7.57A5.58,5.58,0,0,0,187.43,369.54ZM178.78,413h0Z" style="fill:#263238"></path><path d="M175.39,376.4s-3.73,3.56-1.86,6.27,6.61,5.25,8.64,4.57,8.64-7.62,9.83-9.82-6.1-7.46-6.1-7.46A25.33,25.33,0,0,0,175.39,376.4Z" style="fill:#fff"></path><path d="M181.41,387.85c-2.58,0-6.67-2.54-8.29-4.9-2.06-3,1.67-6.66,1.92-6.9a25.35,25.35,0,0,1,10.73-6.57.49.49,0,0,1,.42.08c1.28.92,7.57,5.63,6.25,8.09s-7.9,9.33-10.11,10.07A3,3,0,0,1,181.41,387.85Zm4.39-17.34a25.28,25.28,0,0,0-10.05,6.24h0s-3.4,3.3-1.8,5.63c1.87,2.72,6.42,4.94,8.07,4.38s8.36-7.38,9.55-9.59C192.21,376,188.58,372.55,185.8,370.51Zm-10.41,5.89h0Z" style="fill:#263238"></path><path d="M193.46,426s-9.81,2-12.22-1.29-7.21-16.66-7-21.29,12.4-15.92,18.51-20.54,10-6.11,13.7-3.89,6.66,5,5.55,8.88-10,20.55-11.47,23.51-3,13.33-3,13.33Z" style="fill:#fff"></path><path d="M187.48,427.16c-2.66,0-5.44-.45-6.64-2.12-2.38-3.29-7.32-16.83-7.13-21.6s12.48-16.21,18.71-20.92c5.67-4.3,10-6.45,14.26-3.92,3.1,1.86,7.08,4.87,5.77,9.45-.9,3.15-6.72,14.35-9.84,20.37-.77,1.48-1.37,2.63-1.67,3.22-1.42,2.86-2.9,13.08-2.91,13.18a.51.51,0,0,1-.34.41l-4.08,1.29h-.05A32.74,32.74,0,0,1,187.48,427.16Zm15.43-48.64c-2.53,0-5.57,1.52-9.89,4.79-6.3,4.78-18.14,15.91-18.31,20.17-.18,4.63,4.63,17.77,6.94,21,1.81,2.5,9,1.65,11.69,1.1l3.74-1.19c.27-1.79,1.6-10.43,3-13.17.3-.6.89-1.75,1.67-3.24,3.11-6,8.9-17.13,9.77-20.18s-.78-5.59-5.33-8.32A6.16,6.16,0,0,0,202.91,378.52ZM193.46,426h0Z" style="fill:#263238"></path><path d="M189.76,386.06s-4.07,3.89-2,6.85,7.22,5.74,9.44,5,9.44-8.33,10.74-10.74-6.66-8.14-6.66-8.14A27.49,27.49,0,0,0,189.76,386.06Z" style="fill:#fff"></path><path d="M196.32,398.53c-2.8,0-7.24-2.77-9-5.34-2.22-3.23,1.83-7.23,2.1-7.48a27.91,27.91,0,0,1,11.7-7.17.52.52,0,0,1,.42.08c1.39,1,8.24,6.13,6.81,8.79-1.35,2.51-8.61,10.17-11,11A3.13,3.13,0,0,1,196.32,398.53Zm4.82-18.95a27.46,27.46,0,0,0-11,6.83h0s-3.74,3.63-2,6.21c1.9,2.77,6.88,5.47,8.87,4.8s9.11-8,10.45-10.49C208.19,385.57,204.27,381.87,201.14,379.58Zm-11.38,6.48h0Z" style="fill:#263238"></path><path d="M212.54,431.94s-2.59-7.76-2.59-8.46,4.71-12,4.24-16.93-4.47-10.58-7.06-9.17-7.29,5.41-11.52,11.76-5.64,11.28-4.23,13.63,9.88,11.29,13.4,12.7,10.78-1,10.78-1Z" style="fill:#fff"></path><path d="M207.59,436.4a8.2,8.2,0,0,1-3-.47C201,434.48,192.38,425.42,191,423c-1.56-2.61,0-7.78,4.25-14.17,4-6,8.76-10.32,11.69-11.92a2.62,2.62,0,0,1,2.56.12c2.48,1.31,4.87,5.64,5.23,9.44s-2.16,11-3.52,14.88c-.35,1-.68,1.94-.71,2.13,0,.45,1.31,4.51,2.52,8.14l2.91,2.39a.52.52,0,0,1,.18.48.5.5,0,0,1-.34.38A29.92,29.92,0,0,1,207.59,436.4Zm.41-38.74a1.23,1.23,0,0,0-.63.16c-2.83,1.54-7.43,5.72-11.34,11.59s-5.56,10.87-4.22,13.11S201.56,433.64,205,435c2.61,1.05,7.56-.19,9.56-.78l-2.31-1.89a.51.51,0,0,1-.15-.23c-.62-1.84-2.62-7.89-2.62-8.62a12.52,12.52,0,0,1,.76-2.43c1.24-3.53,3.82-10.86,3.48-14.45s-2.53-7.5-4.71-8.66A2.19,2.19,0,0,0,208,397.66Z" style="fill:#263238"></path><path d="M196.08,411.25s3.06,1.88,5.18,1.88,7.52-4.93,7.28-9.87-3.29-3.76-3.29-3.76S197,405.61,196.08,411.25Z" style="fill:#fff"></path><path d="M201.25,413.63c-2.23,0-5.3-1.87-5.43-1.95a.52.52,0,0,1-.23-.51c1-5.77,9-11.82,9.36-12.07l.12-.07a2.79,2.79,0,0,1,2.35.25c1,.65,1.53,2,1.62,4,.17,3.56-2.32,6.58-3.4,7.71C204.08,412.58,202.36,413.63,201.25,413.63ZM196.64,411a11.68,11.68,0,0,0,4.61,1.63c.7,0,2.18-.81,3.66-2.37a10,10,0,0,0,3.13-7c-.07-1.61-.48-2.7-1.16-3.15a1.68,1.68,0,0,0-1.39-.18C204.75,400.51,197.75,406,196.64,411Z" style="fill:#263238"></path><polygon points="309.03 318.34 345.29 396.84 367.05 387.45 329.08 309.38 309.03 318.34" style="fill:#fff"></polygon><path d="M345.29,397.34a.49.49,0,0,1-.45-.29l-36.26-78.5a.46.46,0,0,1,0-.38.45.45,0,0,1,.26-.28l20.05-9a.48.48,0,0,1,.65.24l38,78.06a.49.49,0,0,1,0,.39.51.51,0,0,1-.27.29l-21.76,9.38A.46.46,0,0,1,345.29,397.34ZM309.7,318.59l35.84,77.59,20.83-9L328.85,310Z" style="fill:#263238"></path><polygon points="484.73 215.15 321.83 310.66 375.69 420.72 484.73 366.32 484.73 215.15" style="fill:#263238"></polygon><path d="M375.69,421.22l-.16,0a.53.53,0,0,1-.29-.26L321.38,310.88a.5.5,0,0,1,.2-.65l162.9-95.52a.5.5,0,0,1,.75.44V366.32a.51.51,0,0,1-.27.44l-109,54.41A.42.42,0,0,1,375.69,421.22Zm-53.2-110.36,53.43,109.19,108.31-54V216Z" style="fill:#263238"></path><polygon points="182.34 312.37 132.85 389.16 114.08 379.77 166.12 302.56 182.34 312.37" style="fill:#fff"></polygon><path d="M132.85,389.66a.43.43,0,0,1-.22-.06l-18.77-9.38a.5.5,0,0,1-.19-.73l52-77.21a.5.5,0,0,1,.67-.15l16.21,9.81a.51.51,0,0,1,.17.7l-49.49,76.79A.48.48,0,0,1,132.85,389.66Zm-18-10.08,17.86,8.93,49-76-15.37-9.3Z" style="fill:#263238"></path><polygon points="18.36 204.53 18.36 367.92 98.87 417.82 173.8 302.99 18.36 204.53" style="fill:#4CAF4F"></polygon><path d="M98.87,418.32a.5.5,0,0,1-.26-.08L18.1,368.34a.49.49,0,0,1-.24-.42V204.53a.51.51,0,0,1,.26-.44.52.52,0,0,1,.51,0l155.44,98.46a.52.52,0,0,1,.22.32.51.51,0,0,1-.07.38L99.29,418.09A.48.48,0,0,1,98.87,418.32Zm-80-50.68,79.86,49.49,74.39-114L18.86,205.44Z" style="fill:#263238"></path></g></svg>
